%TF.GenerationSoftware,KiCad,Pcbnew,(5.1.2)-1*%
%TF.CreationDate,2019-06-15T16:56:32+02:00*%
%TF.ProjectId,i2s_tx,6932735f-7478-42e6-9b69-6361645f7063,rev?*%
%TF.SameCoordinates,Original*%
%TF.FileFunction,Copper,L2,Bot*%
%TF.FilePolarity,Positive*%
%FSLAX46Y46*%
G04 Gerber Fmt 4.6, Leading zero omitted, Abs format (unit mm)*
G04 Created by KiCad (PCBNEW (5.1.2)-1) date 2019-06-15 16:56:32*
%MOMM*%
%LPD*%
G04 APERTURE LIST*
%ADD10R,1.350000X1.350000*%
%ADD11O,1.350000X1.350000*%
%ADD12R,1.500000X1.500000*%
%ADD13C,1.500000*%
%ADD14C,2.500000*%
%ADD15C,0.800000*%
%ADD16C,0.700000*%
%ADD17C,1.000000*%
%ADD18C,0.250000*%
%ADD19C,0.254000*%
G04 APERTURE END LIST*
D10*
X63500000Y-45085000D03*
D11*
X65500000Y-45085000D03*
X63500000Y-47085000D03*
X65500000Y-47085000D03*
X63500000Y-49085000D03*
X65500000Y-49085000D03*
X63500000Y-51085000D03*
X65500000Y-51085000D03*
X63500000Y-53085000D03*
X65500000Y-53085000D03*
X63500000Y-55085000D03*
X65500000Y-55085000D03*
D12*
X36195000Y-78500000D03*
D13*
X36195000Y-76460000D03*
X36195000Y-74420000D03*
X36195000Y-72380000D03*
X37975000Y-77480000D03*
X37975000Y-75440000D03*
X37975000Y-73400000D03*
X37975000Y-71360000D03*
D14*
X37085000Y-66850000D03*
X37085000Y-83010000D03*
X37085000Y-42370000D03*
X37085000Y-26210000D03*
D13*
X37975000Y-30720000D03*
X37975000Y-32760000D03*
X37975000Y-34800000D03*
X37975000Y-36840000D03*
X36195000Y-31740000D03*
X36195000Y-33780000D03*
X36195000Y-35820000D03*
D12*
X36195000Y-37860000D03*
X36195000Y-58180000D03*
D13*
X36195000Y-56140000D03*
X36195000Y-54100000D03*
X36195000Y-52060000D03*
X37975000Y-57160000D03*
X37975000Y-55120000D03*
X37975000Y-53080000D03*
X37975000Y-51040000D03*
D14*
X37085000Y-46530000D03*
X37085000Y-62690000D03*
D10*
X73025000Y-80010000D03*
D11*
X73025000Y-78010000D03*
D10*
X69850000Y-45085000D03*
D11*
X69850000Y-47085000D03*
X69850000Y-49085000D03*
X69850000Y-51085000D03*
X69850000Y-53085000D03*
X69850000Y-55085000D03*
X69850000Y-57085000D03*
D13*
X58420000Y-77470000D03*
X46990000Y-65405000D03*
X55245000Y-71120000D03*
X55245000Y-76200000D03*
X45085000Y-74930000D03*
X52070000Y-83820000D03*
X48895000Y-45085000D03*
X55245000Y-29210000D03*
X55245000Y-34290000D03*
X45085000Y-33020000D03*
X55245000Y-50165000D03*
X55245000Y-55245000D03*
X45085000Y-53975000D03*
D15*
X57785000Y-56515000D03*
D16*
X50800000Y-57785000D03*
X50165000Y-56515000D03*
X50165000Y-55245000D03*
X50165000Y-52705000D03*
D15*
X57785000Y-60959966D03*
X54864000Y-57912000D03*
X57150000Y-48895000D03*
D16*
X42545000Y-53340000D03*
X40005000Y-52070000D03*
D15*
X59599990Y-52705000D03*
D16*
X50165000Y-80010000D03*
X50800000Y-77470000D03*
D15*
X55245000Y-74295000D03*
D16*
X53340000Y-68580000D03*
X47625000Y-68580000D03*
X40640000Y-74335000D03*
X41910000Y-75565000D03*
D15*
X56515000Y-47625000D03*
X49530000Y-74930000D03*
X51394999Y-69305000D03*
D16*
X42545000Y-39370000D03*
X40640000Y-33655000D03*
X55880000Y-31750000D03*
X55880000Y-36195000D03*
X55245000Y-38100000D03*
D17*
X69755000Y-55085000D02*
X69850000Y-54990000D01*
X65405000Y-55085000D02*
X69755000Y-55085000D01*
D18*
X65500000Y-55085000D02*
X64070000Y-56515000D01*
X64070000Y-56515000D02*
X58350685Y-56515000D01*
X58350685Y-56515000D02*
X57785000Y-56515000D01*
X36560000Y-58180000D02*
X36195000Y-58180000D01*
X38705000Y-60325000D02*
X36560000Y-58180000D01*
X49530000Y-60325000D02*
X38705000Y-60325000D01*
X50800000Y-57785000D02*
X50800000Y-59055000D01*
X50800000Y-59055000D02*
X49530000Y-60325000D01*
X50165000Y-56515000D02*
X48895000Y-56515000D01*
X48250000Y-57160000D02*
X37975000Y-57160000D01*
X48895000Y-56515000D02*
X48250000Y-57160000D01*
X38100000Y-55245000D02*
X37975000Y-55120000D01*
X50165000Y-55245000D02*
X38100000Y-55245000D01*
X35445001Y-55390001D02*
X36195000Y-56140000D01*
X46990000Y-52705000D02*
X43180000Y-48895000D01*
X50165000Y-52705000D02*
X46990000Y-52705000D01*
X43180000Y-48895000D02*
X36671250Y-48895000D01*
X36671250Y-48895000D02*
X34290000Y-51276250D01*
X34290000Y-51276250D02*
X34290000Y-54235000D01*
X34290000Y-54235000D02*
X35445001Y-55390001D01*
D17*
X69755000Y-53085000D02*
X69850000Y-52990000D01*
X65405000Y-53085000D02*
X69755000Y-53085000D01*
D18*
X57785000Y-60959966D02*
X54864000Y-58038966D01*
X54864000Y-58038966D02*
X54864000Y-57912000D01*
X63469800Y-49054800D02*
X63500000Y-49085000D01*
X63310000Y-48895000D02*
X63500000Y-49085000D01*
X57150000Y-48895000D02*
X63310000Y-48895000D01*
X38235000Y-53340000D02*
X37975000Y-53080000D01*
X42545000Y-53340000D02*
X38235000Y-53340000D01*
X36195000Y-50582170D02*
X36195000Y-52060000D01*
X37247170Y-49530000D02*
X36195000Y-50582170D01*
X38735000Y-49530000D02*
X37247170Y-49530000D01*
X40005000Y-52070000D02*
X40005000Y-50800000D01*
X40005000Y-50800000D02*
X38735000Y-49530000D01*
X61219990Y-51085000D02*
X59999989Y-52305001D01*
X63500000Y-51085000D02*
X61219990Y-51085000D01*
X59999989Y-52305001D02*
X59599990Y-52705000D01*
X36195000Y-79500000D02*
X36195000Y-78500000D01*
X36705000Y-80010000D02*
X36195000Y-79500000D01*
X50165000Y-80010000D02*
X36705000Y-80010000D01*
X50800000Y-77470000D02*
X43815000Y-77470000D01*
X38724999Y-78229999D02*
X37975000Y-77480000D01*
X43055001Y-78229999D02*
X38724999Y-78229999D01*
X43815000Y-77470000D02*
X43055001Y-78229999D01*
X38724999Y-76189999D02*
X37975000Y-75440000D01*
X38775001Y-76240001D02*
X38724999Y-76189999D01*
X53299999Y-76240001D02*
X38775001Y-76240001D01*
X55245000Y-74295000D02*
X53299999Y-76240001D01*
X53340000Y-68580000D02*
X47625000Y-68580000D01*
X38975000Y-71360000D02*
X37975000Y-71360000D01*
X40640000Y-74335000D02*
X40640000Y-71755000D01*
X40245000Y-71360000D02*
X37975000Y-71360000D01*
X40640000Y-71755000D02*
X40245000Y-71360000D01*
X36195000Y-70485000D02*
X36195000Y-72380000D01*
X36830000Y-69850000D02*
X36195000Y-70485000D01*
X40005000Y-69850000D02*
X36830000Y-69850000D01*
X41910000Y-71755000D02*
X40005000Y-69850000D01*
X41910000Y-71755000D02*
X41910000Y-75565000D01*
X49530000Y-74930000D02*
X49530000Y-71120000D01*
X49530000Y-71120000D02*
X51394999Y-69255001D01*
X51394999Y-69255001D02*
X51394999Y-69305000D01*
X62960000Y-47625000D02*
X63500000Y-47085000D01*
X56515000Y-47625000D02*
X62960000Y-47625000D01*
X36195000Y-31740000D02*
X33655000Y-34280000D01*
X33655000Y-37753998D02*
X35271002Y-39370000D01*
X33655000Y-34280000D02*
X33655000Y-37753998D01*
X35271002Y-39370000D02*
X42545000Y-39370000D01*
X37975000Y-30720000D02*
X39610000Y-30720000D01*
X39610000Y-30720000D02*
X40640000Y-31750000D01*
X40640000Y-31750000D02*
X40640000Y-33655000D01*
X43815000Y-31750000D02*
X55880000Y-31750000D01*
X37975000Y-34800000D02*
X40765000Y-34800000D01*
X40765000Y-34800000D02*
X43815000Y-31750000D01*
X37975000Y-36840000D02*
X55235000Y-36840000D01*
X55235000Y-36840000D02*
X55880000Y-36195000D01*
X37643998Y-38100000D02*
X55245000Y-38100000D01*
X36195000Y-37860000D02*
X37403998Y-37860000D01*
X37403998Y-37860000D02*
X37643998Y-38100000D01*
D17*
X69755000Y-45085000D02*
X69850000Y-44990000D01*
X65405000Y-45085000D02*
X69755000Y-45085000D01*
X69755000Y-47085000D02*
X69850000Y-46990000D01*
X65405000Y-47085000D02*
X69755000Y-47085000D01*
X69755000Y-49085000D02*
X69850000Y-48990000D01*
X65405000Y-49085000D02*
X69755000Y-49085000D01*
X69755000Y-51085000D02*
X69850000Y-50990000D01*
X65405000Y-51085000D02*
X69755000Y-51085000D01*
D19*
G36*
X58928000Y-43815000D02*
G01*
X58930440Y-43839776D01*
X58937667Y-43863601D01*
X58949403Y-43885557D01*
X58965197Y-43904803D01*
X58984443Y-43920597D01*
X59006399Y-43932333D01*
X59030224Y-43939560D01*
X59055000Y-43942000D01*
X71628000Y-43942000D01*
X71628000Y-59563000D01*
X59690000Y-59563000D01*
X59665224Y-59565440D01*
X59641399Y-59572667D01*
X59619443Y-59584403D01*
X59600197Y-59600197D01*
X59584403Y-59619443D01*
X59572667Y-59641399D01*
X59565440Y-59665224D01*
X59563000Y-59690000D01*
X59563000Y-73660000D01*
X59565440Y-73684776D01*
X59572667Y-73708601D01*
X59584403Y-73730557D01*
X59600197Y-73749803D01*
X59619443Y-73765597D01*
X59641399Y-73777333D01*
X59665224Y-73784560D01*
X59690000Y-73787000D01*
X74803000Y-73787000D01*
X74803000Y-85598000D01*
X28067000Y-85598000D01*
X28067000Y-84323605D01*
X35951000Y-84323605D01*
X36076914Y-84613577D01*
X36409126Y-84779433D01*
X36767312Y-84877290D01*
X37137706Y-84903389D01*
X37506075Y-84856725D01*
X37858262Y-84739094D01*
X38093086Y-84613577D01*
X38219000Y-84323605D01*
X37085000Y-83189605D01*
X35951000Y-84323605D01*
X28067000Y-84323605D01*
X28067000Y-81082426D01*
X31649000Y-81082426D01*
X31649000Y-81477574D01*
X31726090Y-81865129D01*
X31877306Y-82230197D01*
X32096838Y-82558750D01*
X32376250Y-82838162D01*
X32704803Y-83057694D01*
X33069871Y-83208910D01*
X33457426Y-83286000D01*
X33852574Y-83286000D01*
X34240129Y-83208910D01*
X34605197Y-83057694D01*
X34933750Y-82838162D01*
X35213162Y-82558750D01*
X35282585Y-82454852D01*
X35217710Y-82692312D01*
X35191611Y-83062706D01*
X35238275Y-83431075D01*
X35355906Y-83783262D01*
X35481423Y-84018086D01*
X35771395Y-84144000D01*
X36905395Y-83010000D01*
X37264605Y-83010000D01*
X38398605Y-84144000D01*
X38688577Y-84018086D01*
X38854433Y-83685874D01*
X38952290Y-83327688D01*
X38978389Y-82957294D01*
X38931725Y-82588925D01*
X38814094Y-82236738D01*
X38688577Y-82001914D01*
X38398605Y-81876000D01*
X37264605Y-83010000D01*
X36905395Y-83010000D01*
X35771395Y-81876000D01*
X35537302Y-81977650D01*
X35583910Y-81865129D01*
X35617473Y-81696395D01*
X35951000Y-81696395D01*
X37085000Y-82830395D01*
X38219000Y-81696395D01*
X38093086Y-81406423D01*
X37760874Y-81240567D01*
X37402688Y-81142710D01*
X37032294Y-81116611D01*
X36663925Y-81163275D01*
X36311738Y-81280906D01*
X36076914Y-81406423D01*
X35951000Y-81696395D01*
X35617473Y-81696395D01*
X35661000Y-81477574D01*
X35661000Y-81082426D01*
X35583910Y-80694871D01*
X35432694Y-80329803D01*
X35213162Y-80001250D01*
X34933750Y-79721838D01*
X34605197Y-79502306D01*
X34240129Y-79351090D01*
X33852574Y-79274000D01*
X33457426Y-79274000D01*
X33069871Y-79351090D01*
X32704803Y-79502306D01*
X32376250Y-79721838D01*
X32096838Y-80001250D01*
X31877306Y-80329803D01*
X31726090Y-80694871D01*
X31649000Y-81082426D01*
X28067000Y-81082426D01*
X28067000Y-77750000D01*
X35062157Y-77750000D01*
X35062157Y-79250000D01*
X35069513Y-79324689D01*
X35091299Y-79396508D01*
X35126678Y-79462696D01*
X35174289Y-79520711D01*
X35232304Y-79568322D01*
X35298492Y-79603701D01*
X35370311Y-79625487D01*
X35445000Y-79632843D01*
X35706530Y-79632843D01*
X35725255Y-79694574D01*
X35772241Y-79782479D01*
X35835473Y-79859527D01*
X35854785Y-79875376D01*
X36329628Y-80350220D01*
X36345473Y-80369527D01*
X36422521Y-80432759D01*
X36503391Y-80475985D01*
X36510425Y-80479745D01*
X36605807Y-80508678D01*
X36705000Y-80518448D01*
X36729854Y-80516000D01*
X49637210Y-80516000D01*
X49699015Y-80577805D01*
X49818742Y-80657804D01*
X49951775Y-80712908D01*
X50093003Y-80741000D01*
X50236997Y-80741000D01*
X50378225Y-80712908D01*
X50511258Y-80657804D01*
X50630985Y-80577805D01*
X50732805Y-80475985D01*
X50812804Y-80356258D01*
X50867908Y-80223225D01*
X50896000Y-80081997D01*
X50896000Y-79938003D01*
X50867908Y-79796775D01*
X50812804Y-79663742D01*
X50732805Y-79544015D01*
X50630985Y-79442195D01*
X50511258Y-79362196D01*
X50378225Y-79307092D01*
X50236997Y-79279000D01*
X50093003Y-79279000D01*
X49951775Y-79307092D01*
X49818742Y-79362196D01*
X49699015Y-79442195D01*
X49637210Y-79504000D01*
X37229425Y-79504000D01*
X37263322Y-79462696D01*
X37298701Y-79396508D01*
X37320487Y-79324689D01*
X37327843Y-79250000D01*
X37327843Y-78407825D01*
X37439271Y-78482279D01*
X37645100Y-78567536D01*
X37863606Y-78611000D01*
X38086394Y-78611000D01*
X38304900Y-78567536D01*
X38334630Y-78555222D01*
X38349627Y-78570219D01*
X38365472Y-78589526D01*
X38442520Y-78652758D01*
X38530424Y-78699744D01*
X38625806Y-78728677D01*
X38724999Y-78738447D01*
X38749853Y-78735999D01*
X43030155Y-78735999D01*
X43055001Y-78738446D01*
X43079847Y-78735999D01*
X43079855Y-78735999D01*
X43154194Y-78728677D01*
X43249576Y-78699744D01*
X43337480Y-78652758D01*
X43414528Y-78589526D01*
X43430377Y-78570214D01*
X43661191Y-78339400D01*
X71757090Y-78339400D01*
X71787762Y-78440528D01*
X71895527Y-78673629D01*
X72046697Y-78881227D01*
X72172910Y-78997646D01*
X72137304Y-79016678D01*
X72079289Y-79064289D01*
X72031678Y-79122304D01*
X71996299Y-79188492D01*
X71974513Y-79260311D01*
X71967157Y-79335000D01*
X71967157Y-80685000D01*
X71974513Y-80759689D01*
X71996299Y-80831508D01*
X72031678Y-80897696D01*
X72079289Y-80955711D01*
X72137304Y-81003322D01*
X72203492Y-81038701D01*
X72275311Y-81060487D01*
X72350000Y-81067843D01*
X73700000Y-81067843D01*
X73774689Y-81060487D01*
X73846508Y-81038701D01*
X73912696Y-81003322D01*
X73970711Y-80955711D01*
X74018322Y-80897696D01*
X74053701Y-80831508D01*
X74075487Y-80759689D01*
X74082843Y-80685000D01*
X74082843Y-79335000D01*
X74075487Y-79260311D01*
X74053701Y-79188492D01*
X74018322Y-79122304D01*
X73970711Y-79064289D01*
X73912696Y-79016678D01*
X73877090Y-78997646D01*
X74003303Y-78881227D01*
X74154473Y-78673629D01*
X74262238Y-78440528D01*
X74292910Y-78339400D01*
X74169224Y-78137000D01*
X73152000Y-78137000D01*
X73152000Y-78157000D01*
X72898000Y-78157000D01*
X72898000Y-78137000D01*
X71880776Y-78137000D01*
X71757090Y-78339400D01*
X43661191Y-78339400D01*
X44024592Y-77976000D01*
X50272210Y-77976000D01*
X50334015Y-78037805D01*
X50453742Y-78117804D01*
X50586775Y-78172908D01*
X50728003Y-78201000D01*
X50871997Y-78201000D01*
X51013225Y-78172908D01*
X51146258Y-78117804D01*
X51265985Y-78037805D01*
X51367805Y-77935985D01*
X51447804Y-77816258D01*
X51502908Y-77683225D01*
X51503430Y-77680600D01*
X71757090Y-77680600D01*
X71880776Y-77883000D01*
X72898000Y-77883000D01*
X72898000Y-76864915D01*
X73152000Y-76864915D01*
X73152000Y-77883000D01*
X74169224Y-77883000D01*
X74292910Y-77680600D01*
X74262238Y-77579472D01*
X74154473Y-77346371D01*
X74003303Y-77138773D01*
X73814537Y-76964656D01*
X73595430Y-76830711D01*
X73354401Y-76742085D01*
X73152000Y-76864915D01*
X72898000Y-76864915D01*
X72695599Y-76742085D01*
X72454570Y-76830711D01*
X72235463Y-76964656D01*
X72046697Y-77138773D01*
X71895527Y-77346371D01*
X71787762Y-77579472D01*
X71757090Y-77680600D01*
X51503430Y-77680600D01*
X51531000Y-77541997D01*
X51531000Y-77398003D01*
X51502908Y-77256775D01*
X51447804Y-77123742D01*
X51367805Y-77004015D01*
X51265985Y-76902195D01*
X51146258Y-76822196D01*
X51013225Y-76767092D01*
X50907193Y-76746001D01*
X53275153Y-76746001D01*
X53299999Y-76748448D01*
X53324845Y-76746001D01*
X53324853Y-76746001D01*
X53399192Y-76738679D01*
X53494574Y-76709746D01*
X53582478Y-76662760D01*
X53659526Y-76599528D01*
X53675375Y-76580216D01*
X55179592Y-75076000D01*
X55321922Y-75076000D01*
X55472809Y-75045987D01*
X55614942Y-74987113D01*
X55742859Y-74901642D01*
X55851642Y-74792859D01*
X55937113Y-74664942D01*
X55995987Y-74522809D01*
X56026000Y-74371922D01*
X56026000Y-74218078D01*
X55995987Y-74067191D01*
X55937113Y-73925058D01*
X55851642Y-73797141D01*
X55742859Y-73688358D01*
X55614942Y-73602887D01*
X55472809Y-73544013D01*
X55321922Y-73514000D01*
X55168078Y-73514000D01*
X55017191Y-73544013D01*
X54875058Y-73602887D01*
X54747141Y-73688358D01*
X54638358Y-73797141D01*
X54552887Y-73925058D01*
X54494013Y-74067191D01*
X54464000Y-74218078D01*
X54464000Y-74360408D01*
X53090408Y-75734001D01*
X42621705Y-75734001D01*
X42641000Y-75636997D01*
X42641000Y-75493003D01*
X42612908Y-75351775D01*
X42557804Y-75218742D01*
X42477805Y-75099015D01*
X42416000Y-75037210D01*
X42416000Y-71779854D01*
X42418448Y-71755000D01*
X42408678Y-71655807D01*
X42379745Y-71560425D01*
X42376618Y-71554575D01*
X42332759Y-71472521D01*
X42269527Y-71395473D01*
X42250220Y-71379628D01*
X40380376Y-69509785D01*
X40364527Y-69490473D01*
X40287479Y-69427241D01*
X40199575Y-69380255D01*
X40104193Y-69351322D01*
X40029854Y-69344000D01*
X40029846Y-69344000D01*
X40005000Y-69341553D01*
X39980154Y-69344000D01*
X36854854Y-69344000D01*
X36830000Y-69341552D01*
X36805146Y-69344000D01*
X36730807Y-69351322D01*
X36635425Y-69380255D01*
X36547521Y-69427241D01*
X36470473Y-69490473D01*
X36454628Y-69509780D01*
X35854785Y-70109624D01*
X35835473Y-70125473D01*
X35772241Y-70202521D01*
X35725255Y-70290426D01*
X35696322Y-70385808D01*
X35689000Y-70460147D01*
X35689000Y-70460154D01*
X35686553Y-70485000D01*
X35689000Y-70509846D01*
X35689000Y-71365407D01*
X35659271Y-71377721D01*
X35474030Y-71501495D01*
X35316495Y-71659030D01*
X35192721Y-71844271D01*
X35107464Y-72050100D01*
X35064000Y-72268606D01*
X35064000Y-72491394D01*
X35107464Y-72709900D01*
X35192721Y-72915729D01*
X35316495Y-73100970D01*
X35474030Y-73258505D01*
X35659271Y-73382279D01*
X35702053Y-73400000D01*
X35659271Y-73417721D01*
X35474030Y-73541495D01*
X35316495Y-73699030D01*
X35192721Y-73884271D01*
X35107464Y-74090100D01*
X35064000Y-74308606D01*
X35064000Y-74531394D01*
X35107464Y-74749900D01*
X35192721Y-74955729D01*
X35316495Y-75140970D01*
X35474030Y-75298505D01*
X35659271Y-75422279D01*
X35702053Y-75440000D01*
X35659271Y-75457721D01*
X35474030Y-75581495D01*
X35316495Y-75739030D01*
X35192721Y-75924271D01*
X35107464Y-76130100D01*
X35064000Y-76348606D01*
X35064000Y-76571394D01*
X35107464Y-76789900D01*
X35192721Y-76995729D01*
X35316495Y-77180970D01*
X35474030Y-77338505D01*
X35516911Y-77367157D01*
X35445000Y-77367157D01*
X35370311Y-77374513D01*
X35298492Y-77396299D01*
X35232304Y-77431678D01*
X35174289Y-77479289D01*
X35126678Y-77537304D01*
X35091299Y-77603492D01*
X35069513Y-77675311D01*
X35062157Y-77750000D01*
X28067000Y-77750000D01*
X28067000Y-68382426D01*
X31649000Y-68382426D01*
X31649000Y-68777574D01*
X31726090Y-69165129D01*
X31877306Y-69530197D01*
X32096838Y-69858750D01*
X32376250Y-70138162D01*
X32704803Y-70357694D01*
X33069871Y-70508910D01*
X33457426Y-70586000D01*
X33852574Y-70586000D01*
X34240129Y-70508910D01*
X34605197Y-70357694D01*
X34933750Y-70138162D01*
X35213162Y-69858750D01*
X35432694Y-69530197D01*
X35583910Y-69165129D01*
X35661000Y-68777574D01*
X35661000Y-68382426D01*
X35617474Y-68163605D01*
X35951000Y-68163605D01*
X36076914Y-68453577D01*
X36409126Y-68619433D01*
X36767312Y-68717290D01*
X37137706Y-68743389D01*
X37506075Y-68696725D01*
X37858262Y-68579094D01*
X37991262Y-68508003D01*
X46894000Y-68508003D01*
X46894000Y-68651997D01*
X46922092Y-68793225D01*
X46977196Y-68926258D01*
X47057195Y-69045985D01*
X47159015Y-69147805D01*
X47278742Y-69227804D01*
X47411775Y-69282908D01*
X47553003Y-69311000D01*
X47696997Y-69311000D01*
X47838225Y-69282908D01*
X47971258Y-69227804D01*
X48090985Y-69147805D01*
X48152790Y-69086000D01*
X50642260Y-69086000D01*
X50613999Y-69228078D01*
X50613999Y-69320409D01*
X49189781Y-70744628D01*
X49170474Y-70760473D01*
X49107242Y-70837521D01*
X49099742Y-70851553D01*
X49060255Y-70925426D01*
X49031322Y-71020808D01*
X49021553Y-71120000D01*
X49024001Y-71144856D01*
X49024000Y-74331499D01*
X48923358Y-74432141D01*
X48837887Y-74560058D01*
X48779013Y-74702191D01*
X48749000Y-74853078D01*
X48749000Y-75006922D01*
X48779013Y-75157809D01*
X48837887Y-75299942D01*
X48923358Y-75427859D01*
X49032141Y-75536642D01*
X49160058Y-75622113D01*
X49302191Y-75680987D01*
X49453078Y-75711000D01*
X49606922Y-75711000D01*
X49757809Y-75680987D01*
X49899942Y-75622113D01*
X50027859Y-75536642D01*
X50136642Y-75427859D01*
X50222113Y-75299942D01*
X50280987Y-75157809D01*
X50311000Y-75006922D01*
X50311000Y-74853078D01*
X50280987Y-74702191D01*
X50222113Y-74560058D01*
X50136642Y-74432141D01*
X50036000Y-74331499D01*
X50036000Y-71329591D01*
X51285977Y-70079615D01*
X51318077Y-70086000D01*
X51471921Y-70086000D01*
X51622808Y-70055987D01*
X51764941Y-69997113D01*
X51892858Y-69911642D01*
X52001641Y-69802859D01*
X52087112Y-69674942D01*
X52145986Y-69532809D01*
X52175999Y-69381922D01*
X52175999Y-69228078D01*
X52147738Y-69086000D01*
X52812210Y-69086000D01*
X52874015Y-69147805D01*
X52993742Y-69227804D01*
X53126775Y-69282908D01*
X53268003Y-69311000D01*
X53411997Y-69311000D01*
X53553225Y-69282908D01*
X53686258Y-69227804D01*
X53805985Y-69147805D01*
X53907805Y-69045985D01*
X53987804Y-68926258D01*
X54042908Y-68793225D01*
X54071000Y-68651997D01*
X54071000Y-68508003D01*
X54042908Y-68366775D01*
X53987804Y-68233742D01*
X53907805Y-68114015D01*
X53805985Y-68012195D01*
X53686258Y-67932196D01*
X53553225Y-67877092D01*
X53411997Y-67849000D01*
X53268003Y-67849000D01*
X53126775Y-67877092D01*
X52993742Y-67932196D01*
X52874015Y-68012195D01*
X52812210Y-68074000D01*
X48152790Y-68074000D01*
X48090985Y-68012195D01*
X47971258Y-67932196D01*
X47838225Y-67877092D01*
X47696997Y-67849000D01*
X47553003Y-67849000D01*
X47411775Y-67877092D01*
X47278742Y-67932196D01*
X47159015Y-68012195D01*
X47057195Y-68114015D01*
X46977196Y-68233742D01*
X46922092Y-68366775D01*
X46894000Y-68508003D01*
X37991262Y-68508003D01*
X38093086Y-68453577D01*
X38219000Y-68163605D01*
X37085000Y-67029605D01*
X35951000Y-68163605D01*
X35617474Y-68163605D01*
X35583910Y-67994871D01*
X35537302Y-67882350D01*
X35771395Y-67984000D01*
X36905395Y-66850000D01*
X37264605Y-66850000D01*
X38398605Y-67984000D01*
X38688577Y-67858086D01*
X38854433Y-67525874D01*
X38952290Y-67167688D01*
X38978389Y-66797294D01*
X38931725Y-66428925D01*
X38814094Y-66076738D01*
X38688577Y-65841914D01*
X38398605Y-65716000D01*
X37264605Y-66850000D01*
X36905395Y-66850000D01*
X35771395Y-65716000D01*
X35481423Y-65841914D01*
X35315567Y-66174126D01*
X35217710Y-66532312D01*
X35191611Y-66902706D01*
X35238275Y-67271075D01*
X35283527Y-67406558D01*
X35213162Y-67301250D01*
X34933750Y-67021838D01*
X34605197Y-66802306D01*
X34240129Y-66651090D01*
X33852574Y-66574000D01*
X33457426Y-66574000D01*
X33069871Y-66651090D01*
X32704803Y-66802306D01*
X32376250Y-67021838D01*
X32096838Y-67301250D01*
X31877306Y-67629803D01*
X31726090Y-67994871D01*
X31649000Y-68382426D01*
X28067000Y-68382426D01*
X28067000Y-65536395D01*
X35951000Y-65536395D01*
X37085000Y-66670395D01*
X38219000Y-65536395D01*
X38093086Y-65246423D01*
X37760874Y-65080567D01*
X37402688Y-64982710D01*
X37032294Y-64956611D01*
X36663925Y-65003275D01*
X36311738Y-65120906D01*
X36076914Y-65246423D01*
X35951000Y-65536395D01*
X28067000Y-65536395D01*
X28067000Y-64003605D01*
X35951000Y-64003605D01*
X36076914Y-64293577D01*
X36409126Y-64459433D01*
X36767312Y-64557290D01*
X37137706Y-64583389D01*
X37506075Y-64536725D01*
X37858262Y-64419094D01*
X38093086Y-64293577D01*
X38219000Y-64003605D01*
X37085000Y-62869605D01*
X35951000Y-64003605D01*
X28067000Y-64003605D01*
X28067000Y-60762426D01*
X31649000Y-60762426D01*
X31649000Y-61157574D01*
X31726090Y-61545129D01*
X31877306Y-61910197D01*
X32096838Y-62238750D01*
X32376250Y-62518162D01*
X32704803Y-62737694D01*
X33069871Y-62888910D01*
X33457426Y-62966000D01*
X33852574Y-62966000D01*
X34240129Y-62888910D01*
X34605197Y-62737694D01*
X34933750Y-62518162D01*
X35213162Y-62238750D01*
X35282585Y-62134852D01*
X35217710Y-62372312D01*
X35191611Y-62742706D01*
X35238275Y-63111075D01*
X35355906Y-63463262D01*
X35481423Y-63698086D01*
X35771395Y-63824000D01*
X36905395Y-62690000D01*
X37264605Y-62690000D01*
X38398605Y-63824000D01*
X38688577Y-63698086D01*
X38854433Y-63365874D01*
X38952290Y-63007688D01*
X38978389Y-62637294D01*
X38931725Y-62268925D01*
X38814094Y-61916738D01*
X38688577Y-61681914D01*
X38398605Y-61556000D01*
X37264605Y-62690000D01*
X36905395Y-62690000D01*
X35771395Y-61556000D01*
X35537302Y-61657650D01*
X35583910Y-61545129D01*
X35617473Y-61376395D01*
X35951000Y-61376395D01*
X37085000Y-62510395D01*
X38219000Y-61376395D01*
X38093086Y-61086423D01*
X37760874Y-60920567D01*
X37402688Y-60822710D01*
X37032294Y-60796611D01*
X36663925Y-60843275D01*
X36311738Y-60960906D01*
X36076914Y-61086423D01*
X35951000Y-61376395D01*
X35617473Y-61376395D01*
X35661000Y-61157574D01*
X35661000Y-60762426D01*
X35583910Y-60374871D01*
X35432694Y-60009803D01*
X35213162Y-59681250D01*
X34933750Y-59401838D01*
X34605197Y-59182306D01*
X34240129Y-59031090D01*
X33852574Y-58954000D01*
X33457426Y-58954000D01*
X33069871Y-59031090D01*
X32704803Y-59182306D01*
X32376250Y-59401838D01*
X32096838Y-59681250D01*
X31877306Y-60009803D01*
X31726090Y-60374871D01*
X31649000Y-60762426D01*
X28067000Y-60762426D01*
X28067000Y-51276250D01*
X33781553Y-51276250D01*
X33784000Y-51301096D01*
X33784001Y-54210144D01*
X33781553Y-54235000D01*
X33791322Y-54334192D01*
X33820255Y-54429574D01*
X33835997Y-54459025D01*
X33867242Y-54517479D01*
X33930474Y-54594527D01*
X33949780Y-54610371D01*
X35104779Y-55765371D01*
X35104784Y-55765375D01*
X35119779Y-55780370D01*
X35107464Y-55810100D01*
X35064000Y-56028606D01*
X35064000Y-56251394D01*
X35107464Y-56469900D01*
X35192721Y-56675729D01*
X35316495Y-56860970D01*
X35474030Y-57018505D01*
X35516911Y-57047157D01*
X35445000Y-57047157D01*
X35370311Y-57054513D01*
X35298492Y-57076299D01*
X35232304Y-57111678D01*
X35174289Y-57159289D01*
X35126678Y-57217304D01*
X35091299Y-57283492D01*
X35069513Y-57355311D01*
X35062157Y-57430000D01*
X35062157Y-58930000D01*
X35069513Y-59004689D01*
X35091299Y-59076508D01*
X35126678Y-59142696D01*
X35174289Y-59200711D01*
X35232304Y-59248322D01*
X35298492Y-59283701D01*
X35370311Y-59305487D01*
X35445000Y-59312843D01*
X36945000Y-59312843D01*
X36974360Y-59309951D01*
X38329628Y-60665220D01*
X38345473Y-60684527D01*
X38422521Y-60747759D01*
X38510425Y-60794745D01*
X38605806Y-60823678D01*
X38615694Y-60824652D01*
X38680146Y-60831000D01*
X38680153Y-60831000D01*
X38704999Y-60833447D01*
X38729845Y-60831000D01*
X49505154Y-60831000D01*
X49530000Y-60833447D01*
X49554846Y-60831000D01*
X49554854Y-60831000D01*
X49629193Y-60823678D01*
X49724575Y-60794745D01*
X49812479Y-60747759D01*
X49889527Y-60684527D01*
X49905376Y-60665215D01*
X51140220Y-59430372D01*
X51159527Y-59414527D01*
X51222759Y-59337479D01*
X51269745Y-59249575D01*
X51298678Y-59154193D01*
X51306000Y-59079854D01*
X51306000Y-59079847D01*
X51308447Y-59055001D01*
X51306000Y-59030155D01*
X51306000Y-58312790D01*
X51367805Y-58250985D01*
X51447804Y-58131258D01*
X51502908Y-57998225D01*
X51531000Y-57856997D01*
X51531000Y-57835078D01*
X54083000Y-57835078D01*
X54083000Y-57988922D01*
X54113013Y-58139809D01*
X54171887Y-58281942D01*
X54257358Y-58409859D01*
X54366141Y-58518642D01*
X54494058Y-58604113D01*
X54636191Y-58662987D01*
X54787078Y-58693000D01*
X54802443Y-58693000D01*
X57004000Y-60894558D01*
X57004000Y-61036888D01*
X57034013Y-61187775D01*
X57092887Y-61329908D01*
X57178358Y-61457825D01*
X57287141Y-61566608D01*
X57415058Y-61652079D01*
X57557191Y-61710953D01*
X57708078Y-61740966D01*
X57861922Y-61740966D01*
X58012809Y-61710953D01*
X58154942Y-61652079D01*
X58282859Y-61566608D01*
X58391642Y-61457825D01*
X58477113Y-61329908D01*
X58535987Y-61187775D01*
X58566000Y-61036888D01*
X58566000Y-60883044D01*
X58535987Y-60732157D01*
X58477113Y-60590024D01*
X58391642Y-60462107D01*
X58282859Y-60353324D01*
X58154942Y-60267853D01*
X58012809Y-60208979D01*
X57861922Y-60178966D01*
X57719592Y-60178966D01*
X55625845Y-58085220D01*
X55645000Y-57988922D01*
X55645000Y-57835078D01*
X55614987Y-57684191D01*
X55556113Y-57542058D01*
X55470816Y-57414400D01*
X68582090Y-57414400D01*
X68612762Y-57515528D01*
X68720527Y-57748629D01*
X68871697Y-57956227D01*
X69060463Y-58130344D01*
X69279570Y-58264289D01*
X69520599Y-58352915D01*
X69723000Y-58230085D01*
X69723000Y-57212000D01*
X69977000Y-57212000D01*
X69977000Y-58230085D01*
X70179401Y-58352915D01*
X70420430Y-58264289D01*
X70639537Y-58130344D01*
X70828303Y-57956227D01*
X70979473Y-57748629D01*
X71087238Y-57515528D01*
X71117910Y-57414400D01*
X70994224Y-57212000D01*
X69977000Y-57212000D01*
X69723000Y-57212000D01*
X68705776Y-57212000D01*
X68582090Y-57414400D01*
X55470816Y-57414400D01*
X55470642Y-57414141D01*
X55361859Y-57305358D01*
X55233942Y-57219887D01*
X55091809Y-57161013D01*
X54940922Y-57131000D01*
X54787078Y-57131000D01*
X54636191Y-57161013D01*
X54494058Y-57219887D01*
X54366141Y-57305358D01*
X54257358Y-57414141D01*
X54171887Y-57542058D01*
X54113013Y-57684191D01*
X54083000Y-57835078D01*
X51531000Y-57835078D01*
X51531000Y-57713003D01*
X51502908Y-57571775D01*
X51447804Y-57438742D01*
X51367805Y-57319015D01*
X51265985Y-57217195D01*
X51146258Y-57137196D01*
X51013225Y-57082092D01*
X50871997Y-57054000D01*
X50728003Y-57054000D01*
X50642853Y-57070937D01*
X50732805Y-56980985D01*
X50812804Y-56861258D01*
X50867908Y-56728225D01*
X50896000Y-56586997D01*
X50896000Y-56443003D01*
X50867908Y-56301775D01*
X50812804Y-56168742D01*
X50732805Y-56049015D01*
X50630985Y-55947195D01*
X50530421Y-55880000D01*
X50630985Y-55812805D01*
X50732805Y-55710985D01*
X50812804Y-55591258D01*
X50867908Y-55458225D01*
X50896000Y-55316997D01*
X50896000Y-55173003D01*
X50867908Y-55031775D01*
X50812804Y-54898742D01*
X50732805Y-54779015D01*
X50630985Y-54677195D01*
X50511258Y-54597196D01*
X50378225Y-54542092D01*
X50236997Y-54514000D01*
X50093003Y-54514000D01*
X49951775Y-54542092D01*
X49818742Y-54597196D01*
X49699015Y-54677195D01*
X49637210Y-54739000D01*
X39041370Y-54739000D01*
X38977279Y-54584271D01*
X38853505Y-54399030D01*
X38695970Y-54241495D01*
X38510729Y-54117721D01*
X38467947Y-54100000D01*
X38510729Y-54082279D01*
X38695970Y-53958505D01*
X38808475Y-53846000D01*
X42017210Y-53846000D01*
X42079015Y-53907805D01*
X42198742Y-53987804D01*
X42331775Y-54042908D01*
X42473003Y-54071000D01*
X42616997Y-54071000D01*
X42758225Y-54042908D01*
X42891258Y-53987804D01*
X43010985Y-53907805D01*
X43112805Y-53805985D01*
X43192804Y-53686258D01*
X43247908Y-53553225D01*
X43276000Y-53411997D01*
X43276000Y-53268003D01*
X43247908Y-53126775D01*
X43192804Y-52993742D01*
X43112805Y-52874015D01*
X43010985Y-52772195D01*
X42891258Y-52692196D01*
X42758225Y-52637092D01*
X42616997Y-52609000D01*
X42473003Y-52609000D01*
X42331775Y-52637092D01*
X42198742Y-52692196D01*
X42079015Y-52772195D01*
X42017210Y-52834000D01*
X39079225Y-52834000D01*
X39062536Y-52750100D01*
X38977279Y-52544271D01*
X38853505Y-52359030D01*
X38695970Y-52201495D01*
X38510729Y-52077721D01*
X38467947Y-52060000D01*
X38510729Y-52042279D01*
X38695970Y-51918505D01*
X38853505Y-51760970D01*
X38977279Y-51575729D01*
X39062536Y-51369900D01*
X39106000Y-51151394D01*
X39106000Y-50928606D01*
X39062536Y-50710100D01*
X38977279Y-50504271D01*
X38944254Y-50454845D01*
X39499001Y-51009593D01*
X39499000Y-51542210D01*
X39437195Y-51604015D01*
X39357196Y-51723742D01*
X39302092Y-51856775D01*
X39274000Y-51998003D01*
X39274000Y-52141997D01*
X39302092Y-52283225D01*
X39357196Y-52416258D01*
X39437195Y-52535985D01*
X39539015Y-52637805D01*
X39658742Y-52717804D01*
X39791775Y-52772908D01*
X39933003Y-52801000D01*
X40076997Y-52801000D01*
X40218225Y-52772908D01*
X40351258Y-52717804D01*
X40470985Y-52637805D01*
X40572805Y-52535985D01*
X40652804Y-52416258D01*
X40707908Y-52283225D01*
X40736000Y-52141997D01*
X40736000Y-51998003D01*
X40707908Y-51856775D01*
X40652804Y-51723742D01*
X40572805Y-51604015D01*
X40511000Y-51542210D01*
X40511000Y-50824845D01*
X40513447Y-50799999D01*
X40511000Y-50775153D01*
X40511000Y-50775146D01*
X40503678Y-50700807D01*
X40491980Y-50662241D01*
X40474745Y-50605425D01*
X40459312Y-50576553D01*
X40427759Y-50517521D01*
X40364527Y-50440473D01*
X40345220Y-50424628D01*
X39321591Y-49401000D01*
X42970409Y-49401000D01*
X46614628Y-53045220D01*
X46630473Y-53064527D01*
X46707521Y-53127759D01*
X46772902Y-53162706D01*
X46795425Y-53174745D01*
X46890807Y-53203678D01*
X46990000Y-53213448D01*
X47014854Y-53211000D01*
X49637210Y-53211000D01*
X49699015Y-53272805D01*
X49818742Y-53352804D01*
X49951775Y-53407908D01*
X50093003Y-53436000D01*
X50236997Y-53436000D01*
X50378225Y-53407908D01*
X50511258Y-53352804D01*
X50630985Y-53272805D01*
X50732805Y-53170985D01*
X50812804Y-53051258D01*
X50867908Y-52918225D01*
X50896000Y-52776997D01*
X50896000Y-52633003D01*
X50867908Y-52491775D01*
X50812804Y-52358742D01*
X50732805Y-52239015D01*
X50630985Y-52137195D01*
X50511258Y-52057196D01*
X50378225Y-52002092D01*
X50236997Y-51974000D01*
X50093003Y-51974000D01*
X49951775Y-52002092D01*
X49818742Y-52057196D01*
X49699015Y-52137195D01*
X49637210Y-52199000D01*
X47199592Y-52199000D01*
X43555376Y-48554785D01*
X43539527Y-48535473D01*
X43462479Y-48472241D01*
X43374575Y-48425255D01*
X43279193Y-48396322D01*
X43204854Y-48389000D01*
X43204846Y-48389000D01*
X43180000Y-48386553D01*
X43155154Y-48389000D01*
X37409175Y-48389000D01*
X37506075Y-48376725D01*
X37858262Y-48259094D01*
X38093086Y-48133577D01*
X38219000Y-47843605D01*
X37085000Y-46709605D01*
X35951000Y-47843605D01*
X36076914Y-48133577D01*
X36409126Y-48299433D01*
X36736968Y-48389000D01*
X36696095Y-48389000D01*
X36671249Y-48386553D01*
X36646403Y-48389000D01*
X36646396Y-48389000D01*
X36572057Y-48396322D01*
X36476675Y-48425255D01*
X36388771Y-48472241D01*
X36311723Y-48535473D01*
X36295878Y-48554780D01*
X33949785Y-50900874D01*
X33930473Y-50916723D01*
X33867241Y-50993771D01*
X33820255Y-51081676D01*
X33791322Y-51177058D01*
X33784000Y-51251397D01*
X33784000Y-51251404D01*
X33781553Y-51276250D01*
X28067000Y-51276250D01*
X28067000Y-48062426D01*
X31649000Y-48062426D01*
X31649000Y-48457574D01*
X31726090Y-48845129D01*
X31877306Y-49210197D01*
X32096838Y-49538750D01*
X32376250Y-49818162D01*
X32704803Y-50037694D01*
X33069871Y-50188910D01*
X33457426Y-50266000D01*
X33852574Y-50266000D01*
X34240129Y-50188910D01*
X34605197Y-50037694D01*
X34933750Y-49818162D01*
X35213162Y-49538750D01*
X35432694Y-49210197D01*
X35583910Y-48845129D01*
X35661000Y-48457574D01*
X35661000Y-48062426D01*
X35583910Y-47674871D01*
X35537302Y-47562350D01*
X35771395Y-47664000D01*
X36905395Y-46530000D01*
X37264605Y-46530000D01*
X38398605Y-47664000D01*
X38665566Y-47548078D01*
X55734000Y-47548078D01*
X55734000Y-47701922D01*
X55764013Y-47852809D01*
X55822887Y-47994942D01*
X55908358Y-48122859D01*
X56017141Y-48231642D01*
X56145058Y-48317113D01*
X56287191Y-48375987D01*
X56438078Y-48406000D01*
X56537439Y-48406000D01*
X56457887Y-48525058D01*
X56399013Y-48667191D01*
X56369000Y-48818078D01*
X56369000Y-48971922D01*
X56399013Y-49122809D01*
X56457887Y-49264942D01*
X56543358Y-49392859D01*
X56652141Y-49501642D01*
X56780058Y-49587113D01*
X56922191Y-49645987D01*
X57073078Y-49676000D01*
X57226922Y-49676000D01*
X57377809Y-49645987D01*
X57519942Y-49587113D01*
X57647859Y-49501642D01*
X57748501Y-49401000D01*
X62492341Y-49401000D01*
X62519663Y-49491069D01*
X62617720Y-49674521D01*
X62749683Y-49835317D01*
X62910479Y-49967280D01*
X63093931Y-50065337D01*
X63158752Y-50085000D01*
X63093931Y-50104663D01*
X62910479Y-50202720D01*
X62749683Y-50334683D01*
X62617720Y-50495479D01*
X62573077Y-50579000D01*
X61244836Y-50579000D01*
X61219990Y-50576553D01*
X61195144Y-50579000D01*
X61195136Y-50579000D01*
X61120797Y-50586322D01*
X61025415Y-50615255D01*
X60937511Y-50662241D01*
X60860463Y-50725473D01*
X60844618Y-50744780D01*
X59665399Y-51924000D01*
X59523068Y-51924000D01*
X59372181Y-51954013D01*
X59230048Y-52012887D01*
X59102131Y-52098358D01*
X58993348Y-52207141D01*
X58907877Y-52335058D01*
X58849003Y-52477191D01*
X58818990Y-52628078D01*
X58818990Y-52781922D01*
X58849003Y-52932809D01*
X58907877Y-53074942D01*
X58993348Y-53202859D01*
X59102131Y-53311642D01*
X59230048Y-53397113D01*
X59372181Y-53455987D01*
X59523068Y-53486000D01*
X59676912Y-53486000D01*
X59827799Y-53455987D01*
X59969932Y-53397113D01*
X60097849Y-53311642D01*
X60206632Y-53202859D01*
X60292103Y-53074942D01*
X60350977Y-52932809D01*
X60380990Y-52781922D01*
X60380990Y-52639591D01*
X61429582Y-51591000D01*
X62573077Y-51591000D01*
X62617720Y-51674521D01*
X62749683Y-51835317D01*
X62910479Y-51967280D01*
X63093931Y-52065337D01*
X63158752Y-52085000D01*
X63093931Y-52104663D01*
X62910479Y-52202720D01*
X62749683Y-52334683D01*
X62617720Y-52495479D01*
X62519663Y-52678931D01*
X62459280Y-52877988D01*
X62438891Y-53085000D01*
X62459280Y-53292012D01*
X62519663Y-53491069D01*
X62617720Y-53674521D01*
X62749683Y-53835317D01*
X62875634Y-53938683D01*
X62710463Y-54039656D01*
X62521697Y-54213773D01*
X62370527Y-54421371D01*
X62262762Y-54654472D01*
X62232090Y-54755600D01*
X62355776Y-54958000D01*
X63373000Y-54958000D01*
X63373000Y-54938000D01*
X63627000Y-54938000D01*
X63627000Y-54958000D01*
X63647000Y-54958000D01*
X63647000Y-55212000D01*
X63627000Y-55212000D01*
X63627000Y-55232000D01*
X63373000Y-55232000D01*
X63373000Y-55212000D01*
X62355776Y-55212000D01*
X62232090Y-55414400D01*
X62262762Y-55515528D01*
X62370527Y-55748629D01*
X62521697Y-55956227D01*
X62578910Y-56009000D01*
X58383501Y-56009000D01*
X58282859Y-55908358D01*
X58154942Y-55822887D01*
X58012809Y-55764013D01*
X57861922Y-55734000D01*
X57708078Y-55734000D01*
X57557191Y-55764013D01*
X57415058Y-55822887D01*
X57287141Y-55908358D01*
X57178358Y-56017141D01*
X57092887Y-56145058D01*
X57034013Y-56287191D01*
X57004000Y-56438078D01*
X57004000Y-56591922D01*
X57034013Y-56742809D01*
X57092887Y-56884942D01*
X57178358Y-57012859D01*
X57287141Y-57121642D01*
X57415058Y-57207113D01*
X57557191Y-57265987D01*
X57708078Y-57296000D01*
X57861922Y-57296000D01*
X58012809Y-57265987D01*
X58154942Y-57207113D01*
X58282859Y-57121642D01*
X58383501Y-57021000D01*
X64045154Y-57021000D01*
X64070000Y-57023447D01*
X64094846Y-57021000D01*
X64094854Y-57021000D01*
X64169193Y-57013678D01*
X64264575Y-56984745D01*
X64352479Y-56937759D01*
X64429527Y-56874527D01*
X64445376Y-56855215D01*
X65202362Y-56098229D01*
X65292988Y-56125720D01*
X65448128Y-56141000D01*
X65551872Y-56141000D01*
X65707012Y-56125720D01*
X65906069Y-56065337D01*
X66089521Y-55967280D01*
X66091081Y-55966000D01*
X69180949Y-55966000D01*
X69060463Y-56039656D01*
X68871697Y-56213773D01*
X68720527Y-56421371D01*
X68612762Y-56654472D01*
X68582090Y-56755600D01*
X68705776Y-56958000D01*
X69723000Y-56958000D01*
X69723000Y-56938000D01*
X69977000Y-56938000D01*
X69977000Y-56958000D01*
X70994224Y-56958000D01*
X71117910Y-56755600D01*
X71087238Y-56654472D01*
X70979473Y-56421371D01*
X70828303Y-56213773D01*
X70639537Y-56039656D01*
X70474366Y-55938683D01*
X70600317Y-55835317D01*
X70732280Y-55674521D01*
X70830337Y-55491069D01*
X70890720Y-55292012D01*
X70911109Y-55085000D01*
X70890720Y-54877988D01*
X70830337Y-54678931D01*
X70732280Y-54495479D01*
X70600317Y-54334683D01*
X70439521Y-54202720D01*
X70256069Y-54104663D01*
X70191248Y-54085000D01*
X70256069Y-54065337D01*
X70439521Y-53967280D01*
X70600317Y-53835317D01*
X70732280Y-53674521D01*
X70830337Y-53491069D01*
X70890720Y-53292012D01*
X70911109Y-53085000D01*
X70890720Y-52877988D01*
X70830337Y-52678931D01*
X70732280Y-52495479D01*
X70600317Y-52334683D01*
X70439521Y-52202720D01*
X70256069Y-52104663D01*
X70191248Y-52085000D01*
X70256069Y-52065337D01*
X70439521Y-51967280D01*
X70600317Y-51835317D01*
X70732280Y-51674521D01*
X70830337Y-51491069D01*
X70890720Y-51292012D01*
X70911109Y-51085000D01*
X70890720Y-50877988D01*
X70830337Y-50678931D01*
X70732280Y-50495479D01*
X70600317Y-50334683D01*
X70439521Y-50202720D01*
X70256069Y-50104663D01*
X70191248Y-50085000D01*
X70256069Y-50065337D01*
X70439521Y-49967280D01*
X70600317Y-49835317D01*
X70732280Y-49674521D01*
X70830337Y-49491069D01*
X70890720Y-49292012D01*
X70911109Y-49085000D01*
X70890720Y-48877988D01*
X70830337Y-48678931D01*
X70732280Y-48495479D01*
X70600317Y-48334683D01*
X70439521Y-48202720D01*
X70256069Y-48104663D01*
X70191248Y-48085000D01*
X70256069Y-48065337D01*
X70439521Y-47967280D01*
X70600317Y-47835317D01*
X70732280Y-47674521D01*
X70830337Y-47491069D01*
X70890720Y-47292012D01*
X70911109Y-47085000D01*
X70890720Y-46877988D01*
X70830337Y-46678931D01*
X70732280Y-46495479D01*
X70600317Y-46334683D01*
X70439521Y-46202720D01*
X70327499Y-46142843D01*
X70525000Y-46142843D01*
X70599689Y-46135487D01*
X70671508Y-46113701D01*
X70737696Y-46078322D01*
X70795711Y-46030711D01*
X70843322Y-45972696D01*
X70878701Y-45906508D01*
X70900487Y-45834689D01*
X70907843Y-45760000D01*
X70907843Y-44410000D01*
X70900487Y-44335311D01*
X70878701Y-44263492D01*
X70843322Y-44197304D01*
X70795711Y-44139289D01*
X70737696Y-44091678D01*
X70671508Y-44056299D01*
X70599689Y-44034513D01*
X70525000Y-44027157D01*
X69175000Y-44027157D01*
X69100311Y-44034513D01*
X69028492Y-44056299D01*
X68962304Y-44091678D01*
X68904289Y-44139289D01*
X68856678Y-44197304D01*
X68853099Y-44204000D01*
X66091081Y-44204000D01*
X66089521Y-44202720D01*
X65906069Y-44104663D01*
X65707012Y-44044280D01*
X65551872Y-44029000D01*
X65448128Y-44029000D01*
X65292988Y-44044280D01*
X65093931Y-44104663D01*
X64910479Y-44202720D01*
X64749683Y-44334683D01*
X64617720Y-44495479D01*
X64557843Y-44607501D01*
X64557843Y-44410000D01*
X64550487Y-44335311D01*
X64528701Y-44263492D01*
X64493322Y-44197304D01*
X64445711Y-44139289D01*
X64387696Y-44091678D01*
X64321508Y-44056299D01*
X64249689Y-44034513D01*
X64175000Y-44027157D01*
X62825000Y-44027157D01*
X62750311Y-44034513D01*
X62678492Y-44056299D01*
X62612304Y-44091678D01*
X62554289Y-44139289D01*
X62506678Y-44197304D01*
X62471299Y-44263492D01*
X62449513Y-44335311D01*
X62442157Y-44410000D01*
X62442157Y-45760000D01*
X62449513Y-45834689D01*
X62471299Y-45906508D01*
X62506678Y-45972696D01*
X62554289Y-46030711D01*
X62612304Y-46078322D01*
X62678492Y-46113701D01*
X62750311Y-46135487D01*
X62825000Y-46142843D01*
X63022501Y-46142843D01*
X62910479Y-46202720D01*
X62749683Y-46334683D01*
X62617720Y-46495479D01*
X62519663Y-46678931D01*
X62459280Y-46877988D01*
X62438891Y-47085000D01*
X62442240Y-47119000D01*
X57113501Y-47119000D01*
X57012859Y-47018358D01*
X56884942Y-46932887D01*
X56742809Y-46874013D01*
X56591922Y-46844000D01*
X56438078Y-46844000D01*
X56287191Y-46874013D01*
X56145058Y-46932887D01*
X56017141Y-47018358D01*
X55908358Y-47127141D01*
X55822887Y-47255058D01*
X55764013Y-47397191D01*
X55734000Y-47548078D01*
X38665566Y-47548078D01*
X38688577Y-47538086D01*
X38854433Y-47205874D01*
X38952290Y-46847688D01*
X38978389Y-46477294D01*
X38931725Y-46108925D01*
X38814094Y-45756738D01*
X38688577Y-45521914D01*
X38398605Y-45396000D01*
X37264605Y-46530000D01*
X36905395Y-46530000D01*
X35771395Y-45396000D01*
X35481423Y-45521914D01*
X35315567Y-45854126D01*
X35217710Y-46212312D01*
X35191611Y-46582706D01*
X35238275Y-46951075D01*
X35283527Y-47086558D01*
X35213162Y-46981250D01*
X34933750Y-46701838D01*
X34605197Y-46482306D01*
X34240129Y-46331090D01*
X33852574Y-46254000D01*
X33457426Y-46254000D01*
X33069871Y-46331090D01*
X32704803Y-46482306D01*
X32376250Y-46701838D01*
X32096838Y-46981250D01*
X31877306Y-47309803D01*
X31726090Y-47674871D01*
X31649000Y-48062426D01*
X28067000Y-48062426D01*
X28067000Y-45216395D01*
X35951000Y-45216395D01*
X37085000Y-46350395D01*
X38219000Y-45216395D01*
X38093086Y-44926423D01*
X37760874Y-44760567D01*
X37402688Y-44662710D01*
X37032294Y-44636611D01*
X36663925Y-44683275D01*
X36311738Y-44800906D01*
X36076914Y-44926423D01*
X35951000Y-45216395D01*
X28067000Y-45216395D01*
X28067000Y-43683605D01*
X35951000Y-43683605D01*
X36076914Y-43973577D01*
X36409126Y-44139433D01*
X36767312Y-44237290D01*
X37137706Y-44263389D01*
X37506075Y-44216725D01*
X37858262Y-44099094D01*
X38093086Y-43973577D01*
X38219000Y-43683605D01*
X37085000Y-42549605D01*
X35951000Y-43683605D01*
X28067000Y-43683605D01*
X28067000Y-40442426D01*
X31649000Y-40442426D01*
X31649000Y-40837574D01*
X31726090Y-41225129D01*
X31877306Y-41590197D01*
X32096838Y-41918750D01*
X32376250Y-42198162D01*
X32704803Y-42417694D01*
X33069871Y-42568910D01*
X33457426Y-42646000D01*
X33852574Y-42646000D01*
X34240129Y-42568910D01*
X34605197Y-42417694D01*
X34933750Y-42198162D01*
X35213162Y-41918750D01*
X35282585Y-41814852D01*
X35217710Y-42052312D01*
X35191611Y-42422706D01*
X35238275Y-42791075D01*
X35355906Y-43143262D01*
X35481423Y-43378086D01*
X35771395Y-43504000D01*
X36905395Y-42370000D01*
X37264605Y-42370000D01*
X38398605Y-43504000D01*
X38688577Y-43378086D01*
X38854433Y-43045874D01*
X38952290Y-42687688D01*
X38978389Y-42317294D01*
X38931725Y-41948925D01*
X38814094Y-41596738D01*
X38688577Y-41361914D01*
X38398605Y-41236000D01*
X37264605Y-42370000D01*
X36905395Y-42370000D01*
X35771395Y-41236000D01*
X35537302Y-41337650D01*
X35583910Y-41225129D01*
X35617473Y-41056395D01*
X35951000Y-41056395D01*
X37085000Y-42190395D01*
X38219000Y-41056395D01*
X38093086Y-40766423D01*
X37760874Y-40600567D01*
X37402688Y-40502710D01*
X37032294Y-40476611D01*
X36663925Y-40523275D01*
X36311738Y-40640906D01*
X36076914Y-40766423D01*
X35951000Y-41056395D01*
X35617473Y-41056395D01*
X35661000Y-40837574D01*
X35661000Y-40442426D01*
X35583910Y-40054871D01*
X35509819Y-39876000D01*
X42017210Y-39876000D01*
X42079015Y-39937805D01*
X42198742Y-40017804D01*
X42331775Y-40072908D01*
X42473003Y-40101000D01*
X42616997Y-40101000D01*
X42758225Y-40072908D01*
X42891258Y-40017804D01*
X43010985Y-39937805D01*
X43112805Y-39835985D01*
X43192804Y-39716258D01*
X43247908Y-39583225D01*
X43276000Y-39441997D01*
X43276000Y-39298003D01*
X43247908Y-39156775D01*
X43192804Y-39023742D01*
X43112805Y-38904015D01*
X43010985Y-38802195D01*
X42891258Y-38722196D01*
X42758225Y-38667092D01*
X42616997Y-38639000D01*
X42473003Y-38639000D01*
X42331775Y-38667092D01*
X42198742Y-38722196D01*
X42079015Y-38802195D01*
X42017210Y-38864000D01*
X37229425Y-38864000D01*
X37263322Y-38822696D01*
X37298701Y-38756508D01*
X37320487Y-38684689D01*
X37327843Y-38610000D01*
X37327843Y-38495122D01*
X37361519Y-38522759D01*
X37449423Y-38569745D01*
X37522605Y-38591944D01*
X37544804Y-38598678D01*
X37554692Y-38599652D01*
X37619144Y-38606000D01*
X37619151Y-38606000D01*
X37643997Y-38608447D01*
X37668843Y-38606000D01*
X54717210Y-38606000D01*
X54779015Y-38667805D01*
X54898742Y-38747804D01*
X55031775Y-38802908D01*
X55173003Y-38831000D01*
X55316997Y-38831000D01*
X55458225Y-38802908D01*
X55591258Y-38747804D01*
X55710985Y-38667805D01*
X55812805Y-38565985D01*
X55892804Y-38446258D01*
X55947908Y-38313225D01*
X55976000Y-38171997D01*
X55976000Y-38028003D01*
X55947908Y-37886775D01*
X55892804Y-37753742D01*
X55812805Y-37634015D01*
X55710985Y-37532195D01*
X55591258Y-37452196D01*
X55458225Y-37397092D01*
X55316997Y-37369000D01*
X55173003Y-37369000D01*
X55031775Y-37397092D01*
X54898742Y-37452196D01*
X54779015Y-37532195D01*
X54717210Y-37594000D01*
X38820475Y-37594000D01*
X38853505Y-37560970D01*
X38977279Y-37375729D01*
X38989593Y-37346000D01*
X55210154Y-37346000D01*
X55235000Y-37348447D01*
X55259846Y-37346000D01*
X55259854Y-37346000D01*
X55334193Y-37338678D01*
X55429575Y-37309745D01*
X55517479Y-37262759D01*
X55594527Y-37199527D01*
X55610376Y-37180215D01*
X55864591Y-36926000D01*
X55951997Y-36926000D01*
X56093225Y-36897908D01*
X56226258Y-36842804D01*
X56345985Y-36762805D01*
X56447805Y-36660985D01*
X56527804Y-36541258D01*
X56582908Y-36408225D01*
X56611000Y-36266997D01*
X56611000Y-36123003D01*
X56582908Y-35981775D01*
X56527804Y-35848742D01*
X56447805Y-35729015D01*
X56345985Y-35627195D01*
X56226258Y-35547196D01*
X56093225Y-35492092D01*
X55951997Y-35464000D01*
X55808003Y-35464000D01*
X55666775Y-35492092D01*
X55533742Y-35547196D01*
X55414015Y-35627195D01*
X55312195Y-35729015D01*
X55232196Y-35848742D01*
X55177092Y-35981775D01*
X55149000Y-36123003D01*
X55149000Y-36210409D01*
X55025409Y-36334000D01*
X38989593Y-36334000D01*
X38977279Y-36304271D01*
X38853505Y-36119030D01*
X38695970Y-35961495D01*
X38510729Y-35837721D01*
X38467947Y-35820000D01*
X38510729Y-35802279D01*
X38695970Y-35678505D01*
X38853505Y-35520970D01*
X38977279Y-35335729D01*
X38989593Y-35306000D01*
X40740154Y-35306000D01*
X40765000Y-35308447D01*
X40789846Y-35306000D01*
X40789854Y-35306000D01*
X40864193Y-35298678D01*
X40959575Y-35269745D01*
X41047479Y-35222759D01*
X41124527Y-35159527D01*
X41140376Y-35140215D01*
X44024592Y-32256000D01*
X55352210Y-32256000D01*
X55414015Y-32317805D01*
X55533742Y-32397804D01*
X55666775Y-32452908D01*
X55808003Y-32481000D01*
X55951997Y-32481000D01*
X56093225Y-32452908D01*
X56226258Y-32397804D01*
X56345985Y-32317805D01*
X56447805Y-32215985D01*
X56527804Y-32096258D01*
X56582908Y-31963225D01*
X56611000Y-31821997D01*
X56611000Y-31678003D01*
X56582908Y-31536775D01*
X56527804Y-31403742D01*
X56447805Y-31284015D01*
X56345985Y-31182195D01*
X56226258Y-31102196D01*
X56093225Y-31047092D01*
X55951997Y-31019000D01*
X55808003Y-31019000D01*
X55666775Y-31047092D01*
X55533742Y-31102196D01*
X55414015Y-31182195D01*
X55352210Y-31244000D01*
X43839845Y-31244000D01*
X43814999Y-31241553D01*
X43790153Y-31244000D01*
X43790146Y-31244000D01*
X43725694Y-31250348D01*
X43715806Y-31251322D01*
X43693607Y-31258056D01*
X43620425Y-31280255D01*
X43532521Y-31327241D01*
X43455473Y-31390473D01*
X43439630Y-31409778D01*
X41353647Y-33495762D01*
X41342908Y-33441775D01*
X41287804Y-33308742D01*
X41207805Y-33189015D01*
X41146000Y-33127210D01*
X41146000Y-31774846D01*
X41148447Y-31750000D01*
X41146000Y-31725154D01*
X41146000Y-31725146D01*
X41138678Y-31650807D01*
X41109745Y-31555425D01*
X41062759Y-31467521D01*
X40999527Y-31390473D01*
X40980220Y-31374628D01*
X39985376Y-30379785D01*
X39969527Y-30360473D01*
X39892479Y-30297241D01*
X39804575Y-30250255D01*
X39709193Y-30221322D01*
X39634854Y-30214000D01*
X39634846Y-30214000D01*
X39610000Y-30211553D01*
X39585154Y-30214000D01*
X38989593Y-30214000D01*
X38977279Y-30184271D01*
X38853505Y-29999030D01*
X38695970Y-29841495D01*
X38510729Y-29717721D01*
X38304900Y-29632464D01*
X38086394Y-29589000D01*
X37863606Y-29589000D01*
X37645100Y-29632464D01*
X37439271Y-29717721D01*
X37254030Y-29841495D01*
X37096495Y-29999030D01*
X36972721Y-30184271D01*
X36887464Y-30390100D01*
X36844000Y-30608606D01*
X36844000Y-30813406D01*
X36730729Y-30737721D01*
X36524900Y-30652464D01*
X36306394Y-30609000D01*
X36083606Y-30609000D01*
X35865100Y-30652464D01*
X35659271Y-30737721D01*
X35474030Y-30861495D01*
X35316495Y-31019030D01*
X35192721Y-31204271D01*
X35107464Y-31410100D01*
X35064000Y-31628606D01*
X35064000Y-31851394D01*
X35107464Y-32069900D01*
X35119778Y-32099630D01*
X33314785Y-33904624D01*
X33295473Y-33920473D01*
X33232241Y-33997521D01*
X33185255Y-34085426D01*
X33156322Y-34180808D01*
X33149000Y-34255147D01*
X33149000Y-34255154D01*
X33146553Y-34280000D01*
X33149000Y-34304846D01*
X33149001Y-37729142D01*
X33146553Y-37753998D01*
X33156322Y-37853190D01*
X33185255Y-37948572D01*
X33207127Y-37989490D01*
X33232242Y-38036477D01*
X33295474Y-38113525D01*
X33314780Y-38129370D01*
X33819411Y-38634000D01*
X33457426Y-38634000D01*
X33069871Y-38711090D01*
X32704803Y-38862306D01*
X32376250Y-39081838D01*
X32096838Y-39361250D01*
X31877306Y-39689803D01*
X31726090Y-40054871D01*
X31649000Y-40442426D01*
X28067000Y-40442426D01*
X28067000Y-27742426D01*
X31649000Y-27742426D01*
X31649000Y-28137574D01*
X31726090Y-28525129D01*
X31877306Y-28890197D01*
X32096838Y-29218750D01*
X32376250Y-29498162D01*
X32704803Y-29717694D01*
X33069871Y-29868910D01*
X33457426Y-29946000D01*
X33852574Y-29946000D01*
X34240129Y-29868910D01*
X34605197Y-29717694D01*
X34933750Y-29498162D01*
X35213162Y-29218750D01*
X35432694Y-28890197D01*
X35583910Y-28525129D01*
X35661000Y-28137574D01*
X35661000Y-27742426D01*
X35617474Y-27523605D01*
X35951000Y-27523605D01*
X36076914Y-27813577D01*
X36409126Y-27979433D01*
X36767312Y-28077290D01*
X37137706Y-28103389D01*
X37506075Y-28056725D01*
X37858262Y-27939094D01*
X38093086Y-27813577D01*
X38219000Y-27523605D01*
X37085000Y-26389605D01*
X35951000Y-27523605D01*
X35617474Y-27523605D01*
X35583910Y-27354871D01*
X35537302Y-27242350D01*
X35771395Y-27344000D01*
X36905395Y-26210000D01*
X37264605Y-26210000D01*
X38398605Y-27344000D01*
X38688577Y-27218086D01*
X38854433Y-26885874D01*
X38952290Y-26527688D01*
X38978389Y-26157294D01*
X38931725Y-25788925D01*
X38814094Y-25436738D01*
X38688577Y-25201914D01*
X38398605Y-25076000D01*
X37264605Y-26210000D01*
X36905395Y-26210000D01*
X35771395Y-25076000D01*
X35481423Y-25201914D01*
X35315567Y-25534126D01*
X35217710Y-25892312D01*
X35191611Y-26262706D01*
X35238275Y-26631075D01*
X35283527Y-26766558D01*
X35213162Y-26661250D01*
X34933750Y-26381838D01*
X34605197Y-26162306D01*
X34240129Y-26011090D01*
X33852574Y-25934000D01*
X33457426Y-25934000D01*
X33069871Y-26011090D01*
X32704803Y-26162306D01*
X32376250Y-26381838D01*
X32096838Y-26661250D01*
X31877306Y-26989803D01*
X31726090Y-27354871D01*
X31649000Y-27742426D01*
X28067000Y-27742426D01*
X28067000Y-24896395D01*
X35951000Y-24896395D01*
X37085000Y-26030395D01*
X38219000Y-24896395D01*
X38093086Y-24606423D01*
X37760874Y-24440567D01*
X37402688Y-24342710D01*
X37032294Y-24316611D01*
X36663925Y-24363275D01*
X36311738Y-24480906D01*
X36076914Y-24606423D01*
X35951000Y-24896395D01*
X28067000Y-24896395D01*
X28067000Y-23622000D01*
X58928000Y-23622000D01*
X58928000Y-43815000D01*
X58928000Y-43815000D01*
G37*
X58928000Y-43815000D02*
X58930440Y-43839776D01*
X58937667Y-43863601D01*
X58949403Y-43885557D01*
X58965197Y-43904803D01*
X58984443Y-43920597D01*
X59006399Y-43932333D01*
X59030224Y-43939560D01*
X59055000Y-43942000D01*
X71628000Y-43942000D01*
X71628000Y-59563000D01*
X59690000Y-59563000D01*
X59665224Y-59565440D01*
X59641399Y-59572667D01*
X59619443Y-59584403D01*
X59600197Y-59600197D01*
X59584403Y-59619443D01*
X59572667Y-59641399D01*
X59565440Y-59665224D01*
X59563000Y-59690000D01*
X59563000Y-73660000D01*
X59565440Y-73684776D01*
X59572667Y-73708601D01*
X59584403Y-73730557D01*
X59600197Y-73749803D01*
X59619443Y-73765597D01*
X59641399Y-73777333D01*
X59665224Y-73784560D01*
X59690000Y-73787000D01*
X74803000Y-73787000D01*
X74803000Y-85598000D01*
X28067000Y-85598000D01*
X28067000Y-84323605D01*
X35951000Y-84323605D01*
X36076914Y-84613577D01*
X36409126Y-84779433D01*
X36767312Y-84877290D01*
X37137706Y-84903389D01*
X37506075Y-84856725D01*
X37858262Y-84739094D01*
X38093086Y-84613577D01*
X38219000Y-84323605D01*
X37085000Y-83189605D01*
X35951000Y-84323605D01*
X28067000Y-84323605D01*
X28067000Y-81082426D01*
X31649000Y-81082426D01*
X31649000Y-81477574D01*
X31726090Y-81865129D01*
X31877306Y-82230197D01*
X32096838Y-82558750D01*
X32376250Y-82838162D01*
X32704803Y-83057694D01*
X33069871Y-83208910D01*
X33457426Y-83286000D01*
X33852574Y-83286000D01*
X34240129Y-83208910D01*
X34605197Y-83057694D01*
X34933750Y-82838162D01*
X35213162Y-82558750D01*
X35282585Y-82454852D01*
X35217710Y-82692312D01*
X35191611Y-83062706D01*
X35238275Y-83431075D01*
X35355906Y-83783262D01*
X35481423Y-84018086D01*
X35771395Y-84144000D01*
X36905395Y-83010000D01*
X37264605Y-83010000D01*
X38398605Y-84144000D01*
X38688577Y-84018086D01*
X38854433Y-83685874D01*
X38952290Y-83327688D01*
X38978389Y-82957294D01*
X38931725Y-82588925D01*
X38814094Y-82236738D01*
X38688577Y-82001914D01*
X38398605Y-81876000D01*
X37264605Y-83010000D01*
X36905395Y-83010000D01*
X35771395Y-81876000D01*
X35537302Y-81977650D01*
X35583910Y-81865129D01*
X35617473Y-81696395D01*
X35951000Y-81696395D01*
X37085000Y-82830395D01*
X38219000Y-81696395D01*
X38093086Y-81406423D01*
X37760874Y-81240567D01*
X37402688Y-81142710D01*
X37032294Y-81116611D01*
X36663925Y-81163275D01*
X36311738Y-81280906D01*
X36076914Y-81406423D01*
X35951000Y-81696395D01*
X35617473Y-81696395D01*
X35661000Y-81477574D01*
X35661000Y-81082426D01*
X35583910Y-80694871D01*
X35432694Y-80329803D01*
X35213162Y-80001250D01*
X34933750Y-79721838D01*
X34605197Y-79502306D01*
X34240129Y-79351090D01*
X33852574Y-79274000D01*
X33457426Y-79274000D01*
X33069871Y-79351090D01*
X32704803Y-79502306D01*
X32376250Y-79721838D01*
X32096838Y-80001250D01*
X31877306Y-80329803D01*
X31726090Y-80694871D01*
X31649000Y-81082426D01*
X28067000Y-81082426D01*
X28067000Y-77750000D01*
X35062157Y-77750000D01*
X35062157Y-79250000D01*
X35069513Y-79324689D01*
X35091299Y-79396508D01*
X35126678Y-79462696D01*
X35174289Y-79520711D01*
X35232304Y-79568322D01*
X35298492Y-79603701D01*
X35370311Y-79625487D01*
X35445000Y-79632843D01*
X35706530Y-79632843D01*
X35725255Y-79694574D01*
X35772241Y-79782479D01*
X35835473Y-79859527D01*
X35854785Y-79875376D01*
X36329628Y-80350220D01*
X36345473Y-80369527D01*
X36422521Y-80432759D01*
X36503391Y-80475985D01*
X36510425Y-80479745D01*
X36605807Y-80508678D01*
X36705000Y-80518448D01*
X36729854Y-80516000D01*
X49637210Y-80516000D01*
X49699015Y-80577805D01*
X49818742Y-80657804D01*
X49951775Y-80712908D01*
X50093003Y-80741000D01*
X50236997Y-80741000D01*
X50378225Y-80712908D01*
X50511258Y-80657804D01*
X50630985Y-80577805D01*
X50732805Y-80475985D01*
X50812804Y-80356258D01*
X50867908Y-80223225D01*
X50896000Y-80081997D01*
X50896000Y-79938003D01*
X50867908Y-79796775D01*
X50812804Y-79663742D01*
X50732805Y-79544015D01*
X50630985Y-79442195D01*
X50511258Y-79362196D01*
X50378225Y-79307092D01*
X50236997Y-79279000D01*
X50093003Y-79279000D01*
X49951775Y-79307092D01*
X49818742Y-79362196D01*
X49699015Y-79442195D01*
X49637210Y-79504000D01*
X37229425Y-79504000D01*
X37263322Y-79462696D01*
X37298701Y-79396508D01*
X37320487Y-79324689D01*
X37327843Y-79250000D01*
X37327843Y-78407825D01*
X37439271Y-78482279D01*
X37645100Y-78567536D01*
X37863606Y-78611000D01*
X38086394Y-78611000D01*
X38304900Y-78567536D01*
X38334630Y-78555222D01*
X38349627Y-78570219D01*
X38365472Y-78589526D01*
X38442520Y-78652758D01*
X38530424Y-78699744D01*
X38625806Y-78728677D01*
X38724999Y-78738447D01*
X38749853Y-78735999D01*
X43030155Y-78735999D01*
X43055001Y-78738446D01*
X43079847Y-78735999D01*
X43079855Y-78735999D01*
X43154194Y-78728677D01*
X43249576Y-78699744D01*
X43337480Y-78652758D01*
X43414528Y-78589526D01*
X43430377Y-78570214D01*
X43661191Y-78339400D01*
X71757090Y-78339400D01*
X71787762Y-78440528D01*
X71895527Y-78673629D01*
X72046697Y-78881227D01*
X72172910Y-78997646D01*
X72137304Y-79016678D01*
X72079289Y-79064289D01*
X72031678Y-79122304D01*
X71996299Y-79188492D01*
X71974513Y-79260311D01*
X71967157Y-79335000D01*
X71967157Y-80685000D01*
X71974513Y-80759689D01*
X71996299Y-80831508D01*
X72031678Y-80897696D01*
X72079289Y-80955711D01*
X72137304Y-81003322D01*
X72203492Y-81038701D01*
X72275311Y-81060487D01*
X72350000Y-81067843D01*
X73700000Y-81067843D01*
X73774689Y-81060487D01*
X73846508Y-81038701D01*
X73912696Y-81003322D01*
X73970711Y-80955711D01*
X74018322Y-80897696D01*
X74053701Y-80831508D01*
X74075487Y-80759689D01*
X74082843Y-80685000D01*
X74082843Y-79335000D01*
X74075487Y-79260311D01*
X74053701Y-79188492D01*
X74018322Y-79122304D01*
X73970711Y-79064289D01*
X73912696Y-79016678D01*
X73877090Y-78997646D01*
X74003303Y-78881227D01*
X74154473Y-78673629D01*
X74262238Y-78440528D01*
X74292910Y-78339400D01*
X74169224Y-78137000D01*
X73152000Y-78137000D01*
X73152000Y-78157000D01*
X72898000Y-78157000D01*
X72898000Y-78137000D01*
X71880776Y-78137000D01*
X71757090Y-78339400D01*
X43661191Y-78339400D01*
X44024592Y-77976000D01*
X50272210Y-77976000D01*
X50334015Y-78037805D01*
X50453742Y-78117804D01*
X50586775Y-78172908D01*
X50728003Y-78201000D01*
X50871997Y-78201000D01*
X51013225Y-78172908D01*
X51146258Y-78117804D01*
X51265985Y-78037805D01*
X51367805Y-77935985D01*
X51447804Y-77816258D01*
X51502908Y-77683225D01*
X51503430Y-77680600D01*
X71757090Y-77680600D01*
X71880776Y-77883000D01*
X72898000Y-77883000D01*
X72898000Y-76864915D01*
X73152000Y-76864915D01*
X73152000Y-77883000D01*
X74169224Y-77883000D01*
X74292910Y-77680600D01*
X74262238Y-77579472D01*
X74154473Y-77346371D01*
X74003303Y-77138773D01*
X73814537Y-76964656D01*
X73595430Y-76830711D01*
X73354401Y-76742085D01*
X73152000Y-76864915D01*
X72898000Y-76864915D01*
X72695599Y-76742085D01*
X72454570Y-76830711D01*
X72235463Y-76964656D01*
X72046697Y-77138773D01*
X71895527Y-77346371D01*
X71787762Y-77579472D01*
X71757090Y-77680600D01*
X51503430Y-77680600D01*
X51531000Y-77541997D01*
X51531000Y-77398003D01*
X51502908Y-77256775D01*
X51447804Y-77123742D01*
X51367805Y-77004015D01*
X51265985Y-76902195D01*
X51146258Y-76822196D01*
X51013225Y-76767092D01*
X50907193Y-76746001D01*
X53275153Y-76746001D01*
X53299999Y-76748448D01*
X53324845Y-76746001D01*
X53324853Y-76746001D01*
X53399192Y-76738679D01*
X53494574Y-76709746D01*
X53582478Y-76662760D01*
X53659526Y-76599528D01*
X53675375Y-76580216D01*
X55179592Y-75076000D01*
X55321922Y-75076000D01*
X55472809Y-75045987D01*
X55614942Y-74987113D01*
X55742859Y-74901642D01*
X55851642Y-74792859D01*
X55937113Y-74664942D01*
X55995987Y-74522809D01*
X56026000Y-74371922D01*
X56026000Y-74218078D01*
X55995987Y-74067191D01*
X55937113Y-73925058D01*
X55851642Y-73797141D01*
X55742859Y-73688358D01*
X55614942Y-73602887D01*
X55472809Y-73544013D01*
X55321922Y-73514000D01*
X55168078Y-73514000D01*
X55017191Y-73544013D01*
X54875058Y-73602887D01*
X54747141Y-73688358D01*
X54638358Y-73797141D01*
X54552887Y-73925058D01*
X54494013Y-74067191D01*
X54464000Y-74218078D01*
X54464000Y-74360408D01*
X53090408Y-75734001D01*
X42621705Y-75734001D01*
X42641000Y-75636997D01*
X42641000Y-75493003D01*
X42612908Y-75351775D01*
X42557804Y-75218742D01*
X42477805Y-75099015D01*
X42416000Y-75037210D01*
X42416000Y-71779854D01*
X42418448Y-71755000D01*
X42408678Y-71655807D01*
X42379745Y-71560425D01*
X42376618Y-71554575D01*
X42332759Y-71472521D01*
X42269527Y-71395473D01*
X42250220Y-71379628D01*
X40380376Y-69509785D01*
X40364527Y-69490473D01*
X40287479Y-69427241D01*
X40199575Y-69380255D01*
X40104193Y-69351322D01*
X40029854Y-69344000D01*
X40029846Y-69344000D01*
X40005000Y-69341553D01*
X39980154Y-69344000D01*
X36854854Y-69344000D01*
X36830000Y-69341552D01*
X36805146Y-69344000D01*
X36730807Y-69351322D01*
X36635425Y-69380255D01*
X36547521Y-69427241D01*
X36470473Y-69490473D01*
X36454628Y-69509780D01*
X35854785Y-70109624D01*
X35835473Y-70125473D01*
X35772241Y-70202521D01*
X35725255Y-70290426D01*
X35696322Y-70385808D01*
X35689000Y-70460147D01*
X35689000Y-70460154D01*
X35686553Y-70485000D01*
X35689000Y-70509846D01*
X35689000Y-71365407D01*
X35659271Y-71377721D01*
X35474030Y-71501495D01*
X35316495Y-71659030D01*
X35192721Y-71844271D01*
X35107464Y-72050100D01*
X35064000Y-72268606D01*
X35064000Y-72491394D01*
X35107464Y-72709900D01*
X35192721Y-72915729D01*
X35316495Y-73100970D01*
X35474030Y-73258505D01*
X35659271Y-73382279D01*
X35702053Y-73400000D01*
X35659271Y-73417721D01*
X35474030Y-73541495D01*
X35316495Y-73699030D01*
X35192721Y-73884271D01*
X35107464Y-74090100D01*
X35064000Y-74308606D01*
X35064000Y-74531394D01*
X35107464Y-74749900D01*
X35192721Y-74955729D01*
X35316495Y-75140970D01*
X35474030Y-75298505D01*
X35659271Y-75422279D01*
X35702053Y-75440000D01*
X35659271Y-75457721D01*
X35474030Y-75581495D01*
X35316495Y-75739030D01*
X35192721Y-75924271D01*
X35107464Y-76130100D01*
X35064000Y-76348606D01*
X35064000Y-76571394D01*
X35107464Y-76789900D01*
X35192721Y-76995729D01*
X35316495Y-77180970D01*
X35474030Y-77338505D01*
X35516911Y-77367157D01*
X35445000Y-77367157D01*
X35370311Y-77374513D01*
X35298492Y-77396299D01*
X35232304Y-77431678D01*
X35174289Y-77479289D01*
X35126678Y-77537304D01*
X35091299Y-77603492D01*
X35069513Y-77675311D01*
X35062157Y-77750000D01*
X28067000Y-77750000D01*
X28067000Y-68382426D01*
X31649000Y-68382426D01*
X31649000Y-68777574D01*
X31726090Y-69165129D01*
X31877306Y-69530197D01*
X32096838Y-69858750D01*
X32376250Y-70138162D01*
X32704803Y-70357694D01*
X33069871Y-70508910D01*
X33457426Y-70586000D01*
X33852574Y-70586000D01*
X34240129Y-70508910D01*
X34605197Y-70357694D01*
X34933750Y-70138162D01*
X35213162Y-69858750D01*
X35432694Y-69530197D01*
X35583910Y-69165129D01*
X35661000Y-68777574D01*
X35661000Y-68382426D01*
X35617474Y-68163605D01*
X35951000Y-68163605D01*
X36076914Y-68453577D01*
X36409126Y-68619433D01*
X36767312Y-68717290D01*
X37137706Y-68743389D01*
X37506075Y-68696725D01*
X37858262Y-68579094D01*
X37991262Y-68508003D01*
X46894000Y-68508003D01*
X46894000Y-68651997D01*
X46922092Y-68793225D01*
X46977196Y-68926258D01*
X47057195Y-69045985D01*
X47159015Y-69147805D01*
X47278742Y-69227804D01*
X47411775Y-69282908D01*
X47553003Y-69311000D01*
X47696997Y-69311000D01*
X47838225Y-69282908D01*
X47971258Y-69227804D01*
X48090985Y-69147805D01*
X48152790Y-69086000D01*
X50642260Y-69086000D01*
X50613999Y-69228078D01*
X50613999Y-69320409D01*
X49189781Y-70744628D01*
X49170474Y-70760473D01*
X49107242Y-70837521D01*
X49099742Y-70851553D01*
X49060255Y-70925426D01*
X49031322Y-71020808D01*
X49021553Y-71120000D01*
X49024001Y-71144856D01*
X49024000Y-74331499D01*
X48923358Y-74432141D01*
X48837887Y-74560058D01*
X48779013Y-74702191D01*
X48749000Y-74853078D01*
X48749000Y-75006922D01*
X48779013Y-75157809D01*
X48837887Y-75299942D01*
X48923358Y-75427859D01*
X49032141Y-75536642D01*
X49160058Y-75622113D01*
X49302191Y-75680987D01*
X49453078Y-75711000D01*
X49606922Y-75711000D01*
X49757809Y-75680987D01*
X49899942Y-75622113D01*
X50027859Y-75536642D01*
X50136642Y-75427859D01*
X50222113Y-75299942D01*
X50280987Y-75157809D01*
X50311000Y-75006922D01*
X50311000Y-74853078D01*
X50280987Y-74702191D01*
X50222113Y-74560058D01*
X50136642Y-74432141D01*
X50036000Y-74331499D01*
X50036000Y-71329591D01*
X51285977Y-70079615D01*
X51318077Y-70086000D01*
X51471921Y-70086000D01*
X51622808Y-70055987D01*
X51764941Y-69997113D01*
X51892858Y-69911642D01*
X52001641Y-69802859D01*
X52087112Y-69674942D01*
X52145986Y-69532809D01*
X52175999Y-69381922D01*
X52175999Y-69228078D01*
X52147738Y-69086000D01*
X52812210Y-69086000D01*
X52874015Y-69147805D01*
X52993742Y-69227804D01*
X53126775Y-69282908D01*
X53268003Y-69311000D01*
X53411997Y-69311000D01*
X53553225Y-69282908D01*
X53686258Y-69227804D01*
X53805985Y-69147805D01*
X53907805Y-69045985D01*
X53987804Y-68926258D01*
X54042908Y-68793225D01*
X54071000Y-68651997D01*
X54071000Y-68508003D01*
X54042908Y-68366775D01*
X53987804Y-68233742D01*
X53907805Y-68114015D01*
X53805985Y-68012195D01*
X53686258Y-67932196D01*
X53553225Y-67877092D01*
X53411997Y-67849000D01*
X53268003Y-67849000D01*
X53126775Y-67877092D01*
X52993742Y-67932196D01*
X52874015Y-68012195D01*
X52812210Y-68074000D01*
X48152790Y-68074000D01*
X48090985Y-68012195D01*
X47971258Y-67932196D01*
X47838225Y-67877092D01*
X47696997Y-67849000D01*
X47553003Y-67849000D01*
X47411775Y-67877092D01*
X47278742Y-67932196D01*
X47159015Y-68012195D01*
X47057195Y-68114015D01*
X46977196Y-68233742D01*
X46922092Y-68366775D01*
X46894000Y-68508003D01*
X37991262Y-68508003D01*
X38093086Y-68453577D01*
X38219000Y-68163605D01*
X37085000Y-67029605D01*
X35951000Y-68163605D01*
X35617474Y-68163605D01*
X35583910Y-67994871D01*
X35537302Y-67882350D01*
X35771395Y-67984000D01*
X36905395Y-66850000D01*
X37264605Y-66850000D01*
X38398605Y-67984000D01*
X38688577Y-67858086D01*
X38854433Y-67525874D01*
X38952290Y-67167688D01*
X38978389Y-66797294D01*
X38931725Y-66428925D01*
X38814094Y-66076738D01*
X38688577Y-65841914D01*
X38398605Y-65716000D01*
X37264605Y-66850000D01*
X36905395Y-66850000D01*
X35771395Y-65716000D01*
X35481423Y-65841914D01*
X35315567Y-66174126D01*
X35217710Y-66532312D01*
X35191611Y-66902706D01*
X35238275Y-67271075D01*
X35283527Y-67406558D01*
X35213162Y-67301250D01*
X34933750Y-67021838D01*
X34605197Y-66802306D01*
X34240129Y-66651090D01*
X33852574Y-66574000D01*
X33457426Y-66574000D01*
X33069871Y-66651090D01*
X32704803Y-66802306D01*
X32376250Y-67021838D01*
X32096838Y-67301250D01*
X31877306Y-67629803D01*
X31726090Y-67994871D01*
X31649000Y-68382426D01*
X28067000Y-68382426D01*
X28067000Y-65536395D01*
X35951000Y-65536395D01*
X37085000Y-66670395D01*
X38219000Y-65536395D01*
X38093086Y-65246423D01*
X37760874Y-65080567D01*
X37402688Y-64982710D01*
X37032294Y-64956611D01*
X36663925Y-65003275D01*
X36311738Y-65120906D01*
X36076914Y-65246423D01*
X35951000Y-65536395D01*
X28067000Y-65536395D01*
X28067000Y-64003605D01*
X35951000Y-64003605D01*
X36076914Y-64293577D01*
X36409126Y-64459433D01*
X36767312Y-64557290D01*
X37137706Y-64583389D01*
X37506075Y-64536725D01*
X37858262Y-64419094D01*
X38093086Y-64293577D01*
X38219000Y-64003605D01*
X37085000Y-62869605D01*
X35951000Y-64003605D01*
X28067000Y-64003605D01*
X28067000Y-60762426D01*
X31649000Y-60762426D01*
X31649000Y-61157574D01*
X31726090Y-61545129D01*
X31877306Y-61910197D01*
X32096838Y-62238750D01*
X32376250Y-62518162D01*
X32704803Y-62737694D01*
X33069871Y-62888910D01*
X33457426Y-62966000D01*
X33852574Y-62966000D01*
X34240129Y-62888910D01*
X34605197Y-62737694D01*
X34933750Y-62518162D01*
X35213162Y-62238750D01*
X35282585Y-62134852D01*
X35217710Y-62372312D01*
X35191611Y-62742706D01*
X35238275Y-63111075D01*
X35355906Y-63463262D01*
X35481423Y-63698086D01*
X35771395Y-63824000D01*
X36905395Y-62690000D01*
X37264605Y-62690000D01*
X38398605Y-63824000D01*
X38688577Y-63698086D01*
X38854433Y-63365874D01*
X38952290Y-63007688D01*
X38978389Y-62637294D01*
X38931725Y-62268925D01*
X38814094Y-61916738D01*
X38688577Y-61681914D01*
X38398605Y-61556000D01*
X37264605Y-62690000D01*
X36905395Y-62690000D01*
X35771395Y-61556000D01*
X35537302Y-61657650D01*
X35583910Y-61545129D01*
X35617473Y-61376395D01*
X35951000Y-61376395D01*
X37085000Y-62510395D01*
X38219000Y-61376395D01*
X38093086Y-61086423D01*
X37760874Y-60920567D01*
X37402688Y-60822710D01*
X37032294Y-60796611D01*
X36663925Y-60843275D01*
X36311738Y-60960906D01*
X36076914Y-61086423D01*
X35951000Y-61376395D01*
X35617473Y-61376395D01*
X35661000Y-61157574D01*
X35661000Y-60762426D01*
X35583910Y-60374871D01*
X35432694Y-60009803D01*
X35213162Y-59681250D01*
X34933750Y-59401838D01*
X34605197Y-59182306D01*
X34240129Y-59031090D01*
X33852574Y-58954000D01*
X33457426Y-58954000D01*
X33069871Y-59031090D01*
X32704803Y-59182306D01*
X32376250Y-59401838D01*
X32096838Y-59681250D01*
X31877306Y-60009803D01*
X31726090Y-60374871D01*
X31649000Y-60762426D01*
X28067000Y-60762426D01*
X28067000Y-51276250D01*
X33781553Y-51276250D01*
X33784000Y-51301096D01*
X33784001Y-54210144D01*
X33781553Y-54235000D01*
X33791322Y-54334192D01*
X33820255Y-54429574D01*
X33835997Y-54459025D01*
X33867242Y-54517479D01*
X33930474Y-54594527D01*
X33949780Y-54610371D01*
X35104779Y-55765371D01*
X35104784Y-55765375D01*
X35119779Y-55780370D01*
X35107464Y-55810100D01*
X35064000Y-56028606D01*
X35064000Y-56251394D01*
X35107464Y-56469900D01*
X35192721Y-56675729D01*
X35316495Y-56860970D01*
X35474030Y-57018505D01*
X35516911Y-57047157D01*
X35445000Y-57047157D01*
X35370311Y-57054513D01*
X35298492Y-57076299D01*
X35232304Y-57111678D01*
X35174289Y-57159289D01*
X35126678Y-57217304D01*
X35091299Y-57283492D01*
X35069513Y-57355311D01*
X35062157Y-57430000D01*
X35062157Y-58930000D01*
X35069513Y-59004689D01*
X35091299Y-59076508D01*
X35126678Y-59142696D01*
X35174289Y-59200711D01*
X35232304Y-59248322D01*
X35298492Y-59283701D01*
X35370311Y-59305487D01*
X35445000Y-59312843D01*
X36945000Y-59312843D01*
X36974360Y-59309951D01*
X38329628Y-60665220D01*
X38345473Y-60684527D01*
X38422521Y-60747759D01*
X38510425Y-60794745D01*
X38605806Y-60823678D01*
X38615694Y-60824652D01*
X38680146Y-60831000D01*
X38680153Y-60831000D01*
X38704999Y-60833447D01*
X38729845Y-60831000D01*
X49505154Y-60831000D01*
X49530000Y-60833447D01*
X49554846Y-60831000D01*
X49554854Y-60831000D01*
X49629193Y-60823678D01*
X49724575Y-60794745D01*
X49812479Y-60747759D01*
X49889527Y-60684527D01*
X49905376Y-60665215D01*
X51140220Y-59430372D01*
X51159527Y-59414527D01*
X51222759Y-59337479D01*
X51269745Y-59249575D01*
X51298678Y-59154193D01*
X51306000Y-59079854D01*
X51306000Y-59079847D01*
X51308447Y-59055001D01*
X51306000Y-59030155D01*
X51306000Y-58312790D01*
X51367805Y-58250985D01*
X51447804Y-58131258D01*
X51502908Y-57998225D01*
X51531000Y-57856997D01*
X51531000Y-57835078D01*
X54083000Y-57835078D01*
X54083000Y-57988922D01*
X54113013Y-58139809D01*
X54171887Y-58281942D01*
X54257358Y-58409859D01*
X54366141Y-58518642D01*
X54494058Y-58604113D01*
X54636191Y-58662987D01*
X54787078Y-58693000D01*
X54802443Y-58693000D01*
X57004000Y-60894558D01*
X57004000Y-61036888D01*
X57034013Y-61187775D01*
X57092887Y-61329908D01*
X57178358Y-61457825D01*
X57287141Y-61566608D01*
X57415058Y-61652079D01*
X57557191Y-61710953D01*
X57708078Y-61740966D01*
X57861922Y-61740966D01*
X58012809Y-61710953D01*
X58154942Y-61652079D01*
X58282859Y-61566608D01*
X58391642Y-61457825D01*
X58477113Y-61329908D01*
X58535987Y-61187775D01*
X58566000Y-61036888D01*
X58566000Y-60883044D01*
X58535987Y-60732157D01*
X58477113Y-60590024D01*
X58391642Y-60462107D01*
X58282859Y-60353324D01*
X58154942Y-60267853D01*
X58012809Y-60208979D01*
X57861922Y-60178966D01*
X57719592Y-60178966D01*
X55625845Y-58085220D01*
X55645000Y-57988922D01*
X55645000Y-57835078D01*
X55614987Y-57684191D01*
X55556113Y-57542058D01*
X55470816Y-57414400D01*
X68582090Y-57414400D01*
X68612762Y-57515528D01*
X68720527Y-57748629D01*
X68871697Y-57956227D01*
X69060463Y-58130344D01*
X69279570Y-58264289D01*
X69520599Y-58352915D01*
X69723000Y-58230085D01*
X69723000Y-57212000D01*
X69977000Y-57212000D01*
X69977000Y-58230085D01*
X70179401Y-58352915D01*
X70420430Y-58264289D01*
X70639537Y-58130344D01*
X70828303Y-57956227D01*
X70979473Y-57748629D01*
X71087238Y-57515528D01*
X71117910Y-57414400D01*
X70994224Y-57212000D01*
X69977000Y-57212000D01*
X69723000Y-57212000D01*
X68705776Y-57212000D01*
X68582090Y-57414400D01*
X55470816Y-57414400D01*
X55470642Y-57414141D01*
X55361859Y-57305358D01*
X55233942Y-57219887D01*
X55091809Y-57161013D01*
X54940922Y-57131000D01*
X54787078Y-57131000D01*
X54636191Y-57161013D01*
X54494058Y-57219887D01*
X54366141Y-57305358D01*
X54257358Y-57414141D01*
X54171887Y-57542058D01*
X54113013Y-57684191D01*
X54083000Y-57835078D01*
X51531000Y-57835078D01*
X51531000Y-57713003D01*
X51502908Y-57571775D01*
X51447804Y-57438742D01*
X51367805Y-57319015D01*
X51265985Y-57217195D01*
X51146258Y-57137196D01*
X51013225Y-57082092D01*
X50871997Y-57054000D01*
X50728003Y-57054000D01*
X50642853Y-57070937D01*
X50732805Y-56980985D01*
X50812804Y-56861258D01*
X50867908Y-56728225D01*
X50896000Y-56586997D01*
X50896000Y-56443003D01*
X50867908Y-56301775D01*
X50812804Y-56168742D01*
X50732805Y-56049015D01*
X50630985Y-55947195D01*
X50530421Y-55880000D01*
X50630985Y-55812805D01*
X50732805Y-55710985D01*
X50812804Y-55591258D01*
X50867908Y-55458225D01*
X50896000Y-55316997D01*
X50896000Y-55173003D01*
X50867908Y-55031775D01*
X50812804Y-54898742D01*
X50732805Y-54779015D01*
X50630985Y-54677195D01*
X50511258Y-54597196D01*
X50378225Y-54542092D01*
X50236997Y-54514000D01*
X50093003Y-54514000D01*
X49951775Y-54542092D01*
X49818742Y-54597196D01*
X49699015Y-54677195D01*
X49637210Y-54739000D01*
X39041370Y-54739000D01*
X38977279Y-54584271D01*
X38853505Y-54399030D01*
X38695970Y-54241495D01*
X38510729Y-54117721D01*
X38467947Y-54100000D01*
X38510729Y-54082279D01*
X38695970Y-53958505D01*
X38808475Y-53846000D01*
X42017210Y-53846000D01*
X42079015Y-53907805D01*
X42198742Y-53987804D01*
X42331775Y-54042908D01*
X42473003Y-54071000D01*
X42616997Y-54071000D01*
X42758225Y-54042908D01*
X42891258Y-53987804D01*
X43010985Y-53907805D01*
X43112805Y-53805985D01*
X43192804Y-53686258D01*
X43247908Y-53553225D01*
X43276000Y-53411997D01*
X43276000Y-53268003D01*
X43247908Y-53126775D01*
X43192804Y-52993742D01*
X43112805Y-52874015D01*
X43010985Y-52772195D01*
X42891258Y-52692196D01*
X42758225Y-52637092D01*
X42616997Y-52609000D01*
X42473003Y-52609000D01*
X42331775Y-52637092D01*
X42198742Y-52692196D01*
X42079015Y-52772195D01*
X42017210Y-52834000D01*
X39079225Y-52834000D01*
X39062536Y-52750100D01*
X38977279Y-52544271D01*
X38853505Y-52359030D01*
X38695970Y-52201495D01*
X38510729Y-52077721D01*
X38467947Y-52060000D01*
X38510729Y-52042279D01*
X38695970Y-51918505D01*
X38853505Y-51760970D01*
X38977279Y-51575729D01*
X39062536Y-51369900D01*
X39106000Y-51151394D01*
X39106000Y-50928606D01*
X39062536Y-50710100D01*
X38977279Y-50504271D01*
X38944254Y-50454845D01*
X39499001Y-51009593D01*
X39499000Y-51542210D01*
X39437195Y-51604015D01*
X39357196Y-51723742D01*
X39302092Y-51856775D01*
X39274000Y-51998003D01*
X39274000Y-52141997D01*
X39302092Y-52283225D01*
X39357196Y-52416258D01*
X39437195Y-52535985D01*
X39539015Y-52637805D01*
X39658742Y-52717804D01*
X39791775Y-52772908D01*
X39933003Y-52801000D01*
X40076997Y-52801000D01*
X40218225Y-52772908D01*
X40351258Y-52717804D01*
X40470985Y-52637805D01*
X40572805Y-52535985D01*
X40652804Y-52416258D01*
X40707908Y-52283225D01*
X40736000Y-52141997D01*
X40736000Y-51998003D01*
X40707908Y-51856775D01*
X40652804Y-51723742D01*
X40572805Y-51604015D01*
X40511000Y-51542210D01*
X40511000Y-50824845D01*
X40513447Y-50799999D01*
X40511000Y-50775153D01*
X40511000Y-50775146D01*
X40503678Y-50700807D01*
X40491980Y-50662241D01*
X40474745Y-50605425D01*
X40459312Y-50576553D01*
X40427759Y-50517521D01*
X40364527Y-50440473D01*
X40345220Y-50424628D01*
X39321591Y-49401000D01*
X42970409Y-49401000D01*
X46614628Y-53045220D01*
X46630473Y-53064527D01*
X46707521Y-53127759D01*
X46772902Y-53162706D01*
X46795425Y-53174745D01*
X46890807Y-53203678D01*
X46990000Y-53213448D01*
X47014854Y-53211000D01*
X49637210Y-53211000D01*
X49699015Y-53272805D01*
X49818742Y-53352804D01*
X49951775Y-53407908D01*
X50093003Y-53436000D01*
X50236997Y-53436000D01*
X50378225Y-53407908D01*
X50511258Y-53352804D01*
X50630985Y-53272805D01*
X50732805Y-53170985D01*
X50812804Y-53051258D01*
X50867908Y-52918225D01*
X50896000Y-52776997D01*
X50896000Y-52633003D01*
X50867908Y-52491775D01*
X50812804Y-52358742D01*
X50732805Y-52239015D01*
X50630985Y-52137195D01*
X50511258Y-52057196D01*
X50378225Y-52002092D01*
X50236997Y-51974000D01*
X50093003Y-51974000D01*
X49951775Y-52002092D01*
X49818742Y-52057196D01*
X49699015Y-52137195D01*
X49637210Y-52199000D01*
X47199592Y-52199000D01*
X43555376Y-48554785D01*
X43539527Y-48535473D01*
X43462479Y-48472241D01*
X43374575Y-48425255D01*
X43279193Y-48396322D01*
X43204854Y-48389000D01*
X43204846Y-48389000D01*
X43180000Y-48386553D01*
X43155154Y-48389000D01*
X37409175Y-48389000D01*
X37506075Y-48376725D01*
X37858262Y-48259094D01*
X38093086Y-48133577D01*
X38219000Y-47843605D01*
X37085000Y-46709605D01*
X35951000Y-47843605D01*
X36076914Y-48133577D01*
X36409126Y-48299433D01*
X36736968Y-48389000D01*
X36696095Y-48389000D01*
X36671249Y-48386553D01*
X36646403Y-48389000D01*
X36646396Y-48389000D01*
X36572057Y-48396322D01*
X36476675Y-48425255D01*
X36388771Y-48472241D01*
X36311723Y-48535473D01*
X36295878Y-48554780D01*
X33949785Y-50900874D01*
X33930473Y-50916723D01*
X33867241Y-50993771D01*
X33820255Y-51081676D01*
X33791322Y-51177058D01*
X33784000Y-51251397D01*
X33784000Y-51251404D01*
X33781553Y-51276250D01*
X28067000Y-51276250D01*
X28067000Y-48062426D01*
X31649000Y-48062426D01*
X31649000Y-48457574D01*
X31726090Y-48845129D01*
X31877306Y-49210197D01*
X32096838Y-49538750D01*
X32376250Y-49818162D01*
X32704803Y-50037694D01*
X33069871Y-50188910D01*
X33457426Y-50266000D01*
X33852574Y-50266000D01*
X34240129Y-50188910D01*
X34605197Y-50037694D01*
X34933750Y-49818162D01*
X35213162Y-49538750D01*
X35432694Y-49210197D01*
X35583910Y-48845129D01*
X35661000Y-48457574D01*
X35661000Y-48062426D01*
X35583910Y-47674871D01*
X35537302Y-47562350D01*
X35771395Y-47664000D01*
X36905395Y-46530000D01*
X37264605Y-46530000D01*
X38398605Y-47664000D01*
X38665566Y-47548078D01*
X55734000Y-47548078D01*
X55734000Y-47701922D01*
X55764013Y-47852809D01*
X55822887Y-47994942D01*
X55908358Y-48122859D01*
X56017141Y-48231642D01*
X56145058Y-48317113D01*
X56287191Y-48375987D01*
X56438078Y-48406000D01*
X56537439Y-48406000D01*
X56457887Y-48525058D01*
X56399013Y-48667191D01*
X56369000Y-48818078D01*
X56369000Y-48971922D01*
X56399013Y-49122809D01*
X56457887Y-49264942D01*
X56543358Y-49392859D01*
X56652141Y-49501642D01*
X56780058Y-49587113D01*
X56922191Y-49645987D01*
X57073078Y-49676000D01*
X57226922Y-49676000D01*
X57377809Y-49645987D01*
X57519942Y-49587113D01*
X57647859Y-49501642D01*
X57748501Y-49401000D01*
X62492341Y-49401000D01*
X62519663Y-49491069D01*
X62617720Y-49674521D01*
X62749683Y-49835317D01*
X62910479Y-49967280D01*
X63093931Y-50065337D01*
X63158752Y-50085000D01*
X63093931Y-50104663D01*
X62910479Y-50202720D01*
X62749683Y-50334683D01*
X62617720Y-50495479D01*
X62573077Y-50579000D01*
X61244836Y-50579000D01*
X61219990Y-50576553D01*
X61195144Y-50579000D01*
X61195136Y-50579000D01*
X61120797Y-50586322D01*
X61025415Y-50615255D01*
X60937511Y-50662241D01*
X60860463Y-50725473D01*
X60844618Y-50744780D01*
X59665399Y-51924000D01*
X59523068Y-51924000D01*
X59372181Y-51954013D01*
X59230048Y-52012887D01*
X59102131Y-52098358D01*
X58993348Y-52207141D01*
X58907877Y-52335058D01*
X58849003Y-52477191D01*
X58818990Y-52628078D01*
X58818990Y-52781922D01*
X58849003Y-52932809D01*
X58907877Y-53074942D01*
X58993348Y-53202859D01*
X59102131Y-53311642D01*
X59230048Y-53397113D01*
X59372181Y-53455987D01*
X59523068Y-53486000D01*
X59676912Y-53486000D01*
X59827799Y-53455987D01*
X59969932Y-53397113D01*
X60097849Y-53311642D01*
X60206632Y-53202859D01*
X60292103Y-53074942D01*
X60350977Y-52932809D01*
X60380990Y-52781922D01*
X60380990Y-52639591D01*
X61429582Y-51591000D01*
X62573077Y-51591000D01*
X62617720Y-51674521D01*
X62749683Y-51835317D01*
X62910479Y-51967280D01*
X63093931Y-52065337D01*
X63158752Y-52085000D01*
X63093931Y-52104663D01*
X62910479Y-52202720D01*
X62749683Y-52334683D01*
X62617720Y-52495479D01*
X62519663Y-52678931D01*
X62459280Y-52877988D01*
X62438891Y-53085000D01*
X62459280Y-53292012D01*
X62519663Y-53491069D01*
X62617720Y-53674521D01*
X62749683Y-53835317D01*
X62875634Y-53938683D01*
X62710463Y-54039656D01*
X62521697Y-54213773D01*
X62370527Y-54421371D01*
X62262762Y-54654472D01*
X62232090Y-54755600D01*
X62355776Y-54958000D01*
X63373000Y-54958000D01*
X63373000Y-54938000D01*
X63627000Y-54938000D01*
X63627000Y-54958000D01*
X63647000Y-54958000D01*
X63647000Y-55212000D01*
X63627000Y-55212000D01*
X63627000Y-55232000D01*
X63373000Y-55232000D01*
X63373000Y-55212000D01*
X62355776Y-55212000D01*
X62232090Y-55414400D01*
X62262762Y-55515528D01*
X62370527Y-55748629D01*
X62521697Y-55956227D01*
X62578910Y-56009000D01*
X58383501Y-56009000D01*
X58282859Y-55908358D01*
X58154942Y-55822887D01*
X58012809Y-55764013D01*
X57861922Y-55734000D01*
X57708078Y-55734000D01*
X57557191Y-55764013D01*
X57415058Y-55822887D01*
X57287141Y-55908358D01*
X57178358Y-56017141D01*
X57092887Y-56145058D01*
X57034013Y-56287191D01*
X57004000Y-56438078D01*
X57004000Y-56591922D01*
X57034013Y-56742809D01*
X57092887Y-56884942D01*
X57178358Y-57012859D01*
X57287141Y-57121642D01*
X57415058Y-57207113D01*
X57557191Y-57265987D01*
X57708078Y-57296000D01*
X57861922Y-57296000D01*
X58012809Y-57265987D01*
X58154942Y-57207113D01*
X58282859Y-57121642D01*
X58383501Y-57021000D01*
X64045154Y-57021000D01*
X64070000Y-57023447D01*
X64094846Y-57021000D01*
X64094854Y-57021000D01*
X64169193Y-57013678D01*
X64264575Y-56984745D01*
X64352479Y-56937759D01*
X64429527Y-56874527D01*
X64445376Y-56855215D01*
X65202362Y-56098229D01*
X65292988Y-56125720D01*
X65448128Y-56141000D01*
X65551872Y-56141000D01*
X65707012Y-56125720D01*
X65906069Y-56065337D01*
X66089521Y-55967280D01*
X66091081Y-55966000D01*
X69180949Y-55966000D01*
X69060463Y-56039656D01*
X68871697Y-56213773D01*
X68720527Y-56421371D01*
X68612762Y-56654472D01*
X68582090Y-56755600D01*
X68705776Y-56958000D01*
X69723000Y-56958000D01*
X69723000Y-56938000D01*
X69977000Y-56938000D01*
X69977000Y-56958000D01*
X70994224Y-56958000D01*
X71117910Y-56755600D01*
X71087238Y-56654472D01*
X70979473Y-56421371D01*
X70828303Y-56213773D01*
X70639537Y-56039656D01*
X70474366Y-55938683D01*
X70600317Y-55835317D01*
X70732280Y-55674521D01*
X70830337Y-55491069D01*
X70890720Y-55292012D01*
X70911109Y-55085000D01*
X70890720Y-54877988D01*
X70830337Y-54678931D01*
X70732280Y-54495479D01*
X70600317Y-54334683D01*
X70439521Y-54202720D01*
X70256069Y-54104663D01*
X70191248Y-54085000D01*
X70256069Y-54065337D01*
X70439521Y-53967280D01*
X70600317Y-53835317D01*
X70732280Y-53674521D01*
X70830337Y-53491069D01*
X70890720Y-53292012D01*
X70911109Y-53085000D01*
X70890720Y-52877988D01*
X70830337Y-52678931D01*
X70732280Y-52495479D01*
X70600317Y-52334683D01*
X70439521Y-52202720D01*
X70256069Y-52104663D01*
X70191248Y-52085000D01*
X70256069Y-52065337D01*
X70439521Y-51967280D01*
X70600317Y-51835317D01*
X70732280Y-51674521D01*
X70830337Y-51491069D01*
X70890720Y-51292012D01*
X70911109Y-51085000D01*
X70890720Y-50877988D01*
X70830337Y-50678931D01*
X70732280Y-50495479D01*
X70600317Y-50334683D01*
X70439521Y-50202720D01*
X70256069Y-50104663D01*
X70191248Y-50085000D01*
X70256069Y-50065337D01*
X70439521Y-49967280D01*
X70600317Y-49835317D01*
X70732280Y-49674521D01*
X70830337Y-49491069D01*
X70890720Y-49292012D01*
X70911109Y-49085000D01*
X70890720Y-48877988D01*
X70830337Y-48678931D01*
X70732280Y-48495479D01*
X70600317Y-48334683D01*
X70439521Y-48202720D01*
X70256069Y-48104663D01*
X70191248Y-48085000D01*
X70256069Y-48065337D01*
X70439521Y-47967280D01*
X70600317Y-47835317D01*
X70732280Y-47674521D01*
X70830337Y-47491069D01*
X70890720Y-47292012D01*
X70911109Y-47085000D01*
X70890720Y-46877988D01*
X70830337Y-46678931D01*
X70732280Y-46495479D01*
X70600317Y-46334683D01*
X70439521Y-46202720D01*
X70327499Y-46142843D01*
X70525000Y-46142843D01*
X70599689Y-46135487D01*
X70671508Y-46113701D01*
X70737696Y-46078322D01*
X70795711Y-46030711D01*
X70843322Y-45972696D01*
X70878701Y-45906508D01*
X70900487Y-45834689D01*
X70907843Y-45760000D01*
X70907843Y-44410000D01*
X70900487Y-44335311D01*
X70878701Y-44263492D01*
X70843322Y-44197304D01*
X70795711Y-44139289D01*
X70737696Y-44091678D01*
X70671508Y-44056299D01*
X70599689Y-44034513D01*
X70525000Y-44027157D01*
X69175000Y-44027157D01*
X69100311Y-44034513D01*
X69028492Y-44056299D01*
X68962304Y-44091678D01*
X68904289Y-44139289D01*
X68856678Y-44197304D01*
X68853099Y-44204000D01*
X66091081Y-44204000D01*
X66089521Y-44202720D01*
X65906069Y-44104663D01*
X65707012Y-44044280D01*
X65551872Y-44029000D01*
X65448128Y-44029000D01*
X65292988Y-44044280D01*
X65093931Y-44104663D01*
X64910479Y-44202720D01*
X64749683Y-44334683D01*
X64617720Y-44495479D01*
X64557843Y-44607501D01*
X64557843Y-44410000D01*
X64550487Y-44335311D01*
X64528701Y-44263492D01*
X64493322Y-44197304D01*
X64445711Y-44139289D01*
X64387696Y-44091678D01*
X64321508Y-44056299D01*
X64249689Y-44034513D01*
X64175000Y-44027157D01*
X62825000Y-44027157D01*
X62750311Y-44034513D01*
X62678492Y-44056299D01*
X62612304Y-44091678D01*
X62554289Y-44139289D01*
X62506678Y-44197304D01*
X62471299Y-44263492D01*
X62449513Y-44335311D01*
X62442157Y-44410000D01*
X62442157Y-45760000D01*
X62449513Y-45834689D01*
X62471299Y-45906508D01*
X62506678Y-45972696D01*
X62554289Y-46030711D01*
X62612304Y-46078322D01*
X62678492Y-46113701D01*
X62750311Y-46135487D01*
X62825000Y-46142843D01*
X63022501Y-46142843D01*
X62910479Y-46202720D01*
X62749683Y-46334683D01*
X62617720Y-46495479D01*
X62519663Y-46678931D01*
X62459280Y-46877988D01*
X62438891Y-47085000D01*
X62442240Y-47119000D01*
X57113501Y-47119000D01*
X57012859Y-47018358D01*
X56884942Y-46932887D01*
X56742809Y-46874013D01*
X56591922Y-46844000D01*
X56438078Y-46844000D01*
X56287191Y-46874013D01*
X56145058Y-46932887D01*
X56017141Y-47018358D01*
X55908358Y-47127141D01*
X55822887Y-47255058D01*
X55764013Y-47397191D01*
X55734000Y-47548078D01*
X38665566Y-47548078D01*
X38688577Y-47538086D01*
X38854433Y-47205874D01*
X38952290Y-46847688D01*
X38978389Y-46477294D01*
X38931725Y-46108925D01*
X38814094Y-45756738D01*
X38688577Y-45521914D01*
X38398605Y-45396000D01*
X37264605Y-46530000D01*
X36905395Y-46530000D01*
X35771395Y-45396000D01*
X35481423Y-45521914D01*
X35315567Y-45854126D01*
X35217710Y-46212312D01*
X35191611Y-46582706D01*
X35238275Y-46951075D01*
X35283527Y-47086558D01*
X35213162Y-46981250D01*
X34933750Y-46701838D01*
X34605197Y-46482306D01*
X34240129Y-46331090D01*
X33852574Y-46254000D01*
X33457426Y-46254000D01*
X33069871Y-46331090D01*
X32704803Y-46482306D01*
X32376250Y-46701838D01*
X32096838Y-46981250D01*
X31877306Y-47309803D01*
X31726090Y-47674871D01*
X31649000Y-48062426D01*
X28067000Y-48062426D01*
X28067000Y-45216395D01*
X35951000Y-45216395D01*
X37085000Y-46350395D01*
X38219000Y-45216395D01*
X38093086Y-44926423D01*
X37760874Y-44760567D01*
X37402688Y-44662710D01*
X37032294Y-44636611D01*
X36663925Y-44683275D01*
X36311738Y-44800906D01*
X36076914Y-44926423D01*
X35951000Y-45216395D01*
X28067000Y-45216395D01*
X28067000Y-43683605D01*
X35951000Y-43683605D01*
X36076914Y-43973577D01*
X36409126Y-44139433D01*
X36767312Y-44237290D01*
X37137706Y-44263389D01*
X37506075Y-44216725D01*
X37858262Y-44099094D01*
X38093086Y-43973577D01*
X38219000Y-43683605D01*
X37085000Y-42549605D01*
X35951000Y-43683605D01*
X28067000Y-43683605D01*
X28067000Y-40442426D01*
X31649000Y-40442426D01*
X31649000Y-40837574D01*
X31726090Y-41225129D01*
X31877306Y-41590197D01*
X32096838Y-41918750D01*
X32376250Y-42198162D01*
X32704803Y-42417694D01*
X33069871Y-42568910D01*
X33457426Y-42646000D01*
X33852574Y-42646000D01*
X34240129Y-42568910D01*
X34605197Y-42417694D01*
X34933750Y-42198162D01*
X35213162Y-41918750D01*
X35282585Y-41814852D01*
X35217710Y-42052312D01*
X35191611Y-42422706D01*
X35238275Y-42791075D01*
X35355906Y-43143262D01*
X35481423Y-43378086D01*
X35771395Y-43504000D01*
X36905395Y-42370000D01*
X37264605Y-42370000D01*
X38398605Y-43504000D01*
X38688577Y-43378086D01*
X38854433Y-43045874D01*
X38952290Y-42687688D01*
X38978389Y-42317294D01*
X38931725Y-41948925D01*
X38814094Y-41596738D01*
X38688577Y-41361914D01*
X38398605Y-41236000D01*
X37264605Y-42370000D01*
X36905395Y-42370000D01*
X35771395Y-41236000D01*
X35537302Y-41337650D01*
X35583910Y-41225129D01*
X35617473Y-41056395D01*
X35951000Y-41056395D01*
X37085000Y-42190395D01*
X38219000Y-41056395D01*
X38093086Y-40766423D01*
X37760874Y-40600567D01*
X37402688Y-40502710D01*
X37032294Y-40476611D01*
X36663925Y-40523275D01*
X36311738Y-40640906D01*
X36076914Y-40766423D01*
X35951000Y-41056395D01*
X35617473Y-41056395D01*
X35661000Y-40837574D01*
X35661000Y-40442426D01*
X35583910Y-40054871D01*
X35509819Y-39876000D01*
X42017210Y-39876000D01*
X42079015Y-39937805D01*
X42198742Y-40017804D01*
X42331775Y-40072908D01*
X42473003Y-40101000D01*
X42616997Y-40101000D01*
X42758225Y-40072908D01*
X42891258Y-40017804D01*
X43010985Y-39937805D01*
X43112805Y-39835985D01*
X43192804Y-39716258D01*
X43247908Y-39583225D01*
X43276000Y-39441997D01*
X43276000Y-39298003D01*
X43247908Y-39156775D01*
X43192804Y-39023742D01*
X43112805Y-38904015D01*
X43010985Y-38802195D01*
X42891258Y-38722196D01*
X42758225Y-38667092D01*
X42616997Y-38639000D01*
X42473003Y-38639000D01*
X42331775Y-38667092D01*
X42198742Y-38722196D01*
X42079015Y-38802195D01*
X42017210Y-38864000D01*
X37229425Y-38864000D01*
X37263322Y-38822696D01*
X37298701Y-38756508D01*
X37320487Y-38684689D01*
X37327843Y-38610000D01*
X37327843Y-38495122D01*
X37361519Y-38522759D01*
X37449423Y-38569745D01*
X37522605Y-38591944D01*
X37544804Y-38598678D01*
X37554692Y-38599652D01*
X37619144Y-38606000D01*
X37619151Y-38606000D01*
X37643997Y-38608447D01*
X37668843Y-38606000D01*
X54717210Y-38606000D01*
X54779015Y-38667805D01*
X54898742Y-38747804D01*
X55031775Y-38802908D01*
X55173003Y-38831000D01*
X55316997Y-38831000D01*
X55458225Y-38802908D01*
X55591258Y-38747804D01*
X55710985Y-38667805D01*
X55812805Y-38565985D01*
X55892804Y-38446258D01*
X55947908Y-38313225D01*
X55976000Y-38171997D01*
X55976000Y-38028003D01*
X55947908Y-37886775D01*
X55892804Y-37753742D01*
X55812805Y-37634015D01*
X55710985Y-37532195D01*
X55591258Y-37452196D01*
X55458225Y-37397092D01*
X55316997Y-37369000D01*
X55173003Y-37369000D01*
X55031775Y-37397092D01*
X54898742Y-37452196D01*
X54779015Y-37532195D01*
X54717210Y-37594000D01*
X38820475Y-37594000D01*
X38853505Y-37560970D01*
X38977279Y-37375729D01*
X38989593Y-37346000D01*
X55210154Y-37346000D01*
X55235000Y-37348447D01*
X55259846Y-37346000D01*
X55259854Y-37346000D01*
X55334193Y-37338678D01*
X55429575Y-37309745D01*
X55517479Y-37262759D01*
X55594527Y-37199527D01*
X55610376Y-37180215D01*
X55864591Y-36926000D01*
X55951997Y-36926000D01*
X56093225Y-36897908D01*
X56226258Y-36842804D01*
X56345985Y-36762805D01*
X56447805Y-36660985D01*
X56527804Y-36541258D01*
X56582908Y-36408225D01*
X56611000Y-36266997D01*
X56611000Y-36123003D01*
X56582908Y-35981775D01*
X56527804Y-35848742D01*
X56447805Y-35729015D01*
X56345985Y-35627195D01*
X56226258Y-35547196D01*
X56093225Y-35492092D01*
X55951997Y-35464000D01*
X55808003Y-35464000D01*
X55666775Y-35492092D01*
X55533742Y-35547196D01*
X55414015Y-35627195D01*
X55312195Y-35729015D01*
X55232196Y-35848742D01*
X55177092Y-35981775D01*
X55149000Y-36123003D01*
X55149000Y-36210409D01*
X55025409Y-36334000D01*
X38989593Y-36334000D01*
X38977279Y-36304271D01*
X38853505Y-36119030D01*
X38695970Y-35961495D01*
X38510729Y-35837721D01*
X38467947Y-35820000D01*
X38510729Y-35802279D01*
X38695970Y-35678505D01*
X38853505Y-35520970D01*
X38977279Y-35335729D01*
X38989593Y-35306000D01*
X40740154Y-35306000D01*
X40765000Y-35308447D01*
X40789846Y-35306000D01*
X40789854Y-35306000D01*
X40864193Y-35298678D01*
X40959575Y-35269745D01*
X41047479Y-35222759D01*
X41124527Y-35159527D01*
X41140376Y-35140215D01*
X44024592Y-32256000D01*
X55352210Y-32256000D01*
X55414015Y-32317805D01*
X55533742Y-32397804D01*
X55666775Y-32452908D01*
X55808003Y-32481000D01*
X55951997Y-32481000D01*
X56093225Y-32452908D01*
X56226258Y-32397804D01*
X56345985Y-32317805D01*
X56447805Y-32215985D01*
X56527804Y-32096258D01*
X56582908Y-31963225D01*
X56611000Y-31821997D01*
X56611000Y-31678003D01*
X56582908Y-31536775D01*
X56527804Y-31403742D01*
X56447805Y-31284015D01*
X56345985Y-31182195D01*
X56226258Y-31102196D01*
X56093225Y-31047092D01*
X55951997Y-31019000D01*
X55808003Y-31019000D01*
X55666775Y-31047092D01*
X55533742Y-31102196D01*
X55414015Y-31182195D01*
X55352210Y-31244000D01*
X43839845Y-31244000D01*
X43814999Y-31241553D01*
X43790153Y-31244000D01*
X43790146Y-31244000D01*
X43725694Y-31250348D01*
X43715806Y-31251322D01*
X43693607Y-31258056D01*
X43620425Y-31280255D01*
X43532521Y-31327241D01*
X43455473Y-31390473D01*
X43439630Y-31409778D01*
X41353647Y-33495762D01*
X41342908Y-33441775D01*
X41287804Y-33308742D01*
X41207805Y-33189015D01*
X41146000Y-33127210D01*
X41146000Y-31774846D01*
X41148447Y-31750000D01*
X41146000Y-31725154D01*
X41146000Y-31725146D01*
X41138678Y-31650807D01*
X41109745Y-31555425D01*
X41062759Y-31467521D01*
X40999527Y-31390473D01*
X40980220Y-31374628D01*
X39985376Y-30379785D01*
X39969527Y-30360473D01*
X39892479Y-30297241D01*
X39804575Y-30250255D01*
X39709193Y-30221322D01*
X39634854Y-30214000D01*
X39634846Y-30214000D01*
X39610000Y-30211553D01*
X39585154Y-30214000D01*
X38989593Y-30214000D01*
X38977279Y-30184271D01*
X38853505Y-29999030D01*
X38695970Y-29841495D01*
X38510729Y-29717721D01*
X38304900Y-29632464D01*
X38086394Y-29589000D01*
X37863606Y-29589000D01*
X37645100Y-29632464D01*
X37439271Y-29717721D01*
X37254030Y-29841495D01*
X37096495Y-29999030D01*
X36972721Y-30184271D01*
X36887464Y-30390100D01*
X36844000Y-30608606D01*
X36844000Y-30813406D01*
X36730729Y-30737721D01*
X36524900Y-30652464D01*
X36306394Y-30609000D01*
X36083606Y-30609000D01*
X35865100Y-30652464D01*
X35659271Y-30737721D01*
X35474030Y-30861495D01*
X35316495Y-31019030D01*
X35192721Y-31204271D01*
X35107464Y-31410100D01*
X35064000Y-31628606D01*
X35064000Y-31851394D01*
X35107464Y-32069900D01*
X35119778Y-32099630D01*
X33314785Y-33904624D01*
X33295473Y-33920473D01*
X33232241Y-33997521D01*
X33185255Y-34085426D01*
X33156322Y-34180808D01*
X33149000Y-34255147D01*
X33149000Y-34255154D01*
X33146553Y-34280000D01*
X33149000Y-34304846D01*
X33149001Y-37729142D01*
X33146553Y-37753998D01*
X33156322Y-37853190D01*
X33185255Y-37948572D01*
X33207127Y-37989490D01*
X33232242Y-38036477D01*
X33295474Y-38113525D01*
X33314780Y-38129370D01*
X33819411Y-38634000D01*
X33457426Y-38634000D01*
X33069871Y-38711090D01*
X32704803Y-38862306D01*
X32376250Y-39081838D01*
X32096838Y-39361250D01*
X31877306Y-39689803D01*
X31726090Y-40054871D01*
X31649000Y-40442426D01*
X28067000Y-40442426D01*
X28067000Y-27742426D01*
X31649000Y-27742426D01*
X31649000Y-28137574D01*
X31726090Y-28525129D01*
X31877306Y-28890197D01*
X32096838Y-29218750D01*
X32376250Y-29498162D01*
X32704803Y-29717694D01*
X33069871Y-29868910D01*
X33457426Y-29946000D01*
X33852574Y-29946000D01*
X34240129Y-29868910D01*
X34605197Y-29717694D01*
X34933750Y-29498162D01*
X35213162Y-29218750D01*
X35432694Y-28890197D01*
X35583910Y-28525129D01*
X35661000Y-28137574D01*
X35661000Y-27742426D01*
X35617474Y-27523605D01*
X35951000Y-27523605D01*
X36076914Y-27813577D01*
X36409126Y-27979433D01*
X36767312Y-28077290D01*
X37137706Y-28103389D01*
X37506075Y-28056725D01*
X37858262Y-27939094D01*
X38093086Y-27813577D01*
X38219000Y-27523605D01*
X37085000Y-26389605D01*
X35951000Y-27523605D01*
X35617474Y-27523605D01*
X35583910Y-27354871D01*
X35537302Y-27242350D01*
X35771395Y-27344000D01*
X36905395Y-26210000D01*
X37264605Y-26210000D01*
X38398605Y-27344000D01*
X38688577Y-27218086D01*
X38854433Y-26885874D01*
X38952290Y-26527688D01*
X38978389Y-26157294D01*
X38931725Y-25788925D01*
X38814094Y-25436738D01*
X38688577Y-25201914D01*
X38398605Y-25076000D01*
X37264605Y-26210000D01*
X36905395Y-26210000D01*
X35771395Y-25076000D01*
X35481423Y-25201914D01*
X35315567Y-25534126D01*
X35217710Y-25892312D01*
X35191611Y-26262706D01*
X35238275Y-26631075D01*
X35283527Y-26766558D01*
X35213162Y-26661250D01*
X34933750Y-26381838D01*
X34605197Y-26162306D01*
X34240129Y-26011090D01*
X33852574Y-25934000D01*
X33457426Y-25934000D01*
X33069871Y-26011090D01*
X32704803Y-26162306D01*
X32376250Y-26381838D01*
X32096838Y-26661250D01*
X31877306Y-26989803D01*
X31726090Y-27354871D01*
X31649000Y-27742426D01*
X28067000Y-27742426D01*
X28067000Y-24896395D01*
X35951000Y-24896395D01*
X37085000Y-26030395D01*
X38219000Y-24896395D01*
X38093086Y-24606423D01*
X37760874Y-24440567D01*
X37402688Y-24342710D01*
X37032294Y-24316611D01*
X36663925Y-24363275D01*
X36311738Y-24480906D01*
X36076914Y-24606423D01*
X35951000Y-24896395D01*
X28067000Y-24896395D01*
X28067000Y-23622000D01*
X58928000Y-23622000D01*
X58928000Y-43815000D01*
M02*
