M48
; DRILL file {KiCad (5.1.2)-1} date 16.06.2019 16:42:19
; FORMAT={-:-/ absolute / inch / decimal}
; #@! TF.CreationDate,2019-06-16T16:42:19+02:00
; #@! TF.GenerationSoftware,Kicad,Pcbnew,(5.1.2)-1
; #@! TF.FileFunction,Plated,1,2,PTH
FMAT,2
INCH
T1C0.0118
T2C0.0157
T3C0.0315
T4C0.0350
T5C0.0394
T6C0.0709
%
G90
G05
T1
X1.575Y-2.05
X1.6Y-1.325
X1.6Y-2.9266
X1.65Y-2.975
X1.675Y-1.55
X1.675Y-2.1
X1.875Y-2.7
X1.975Y-2.075
X1.975Y-2.175
X1.975Y-2.225
X1.975Y-3.15
X2.0Y-2.275
X2.0Y-3.05
X2.1Y-2.7
X2.175Y-1.5
X2.2Y-1.25
X2.2Y-1.425
T2
X1.95Y-2.95
X2.0234Y-2.7285
X2.16Y-2.28
X2.175Y-2.925
X2.225Y-1.875
X2.25Y-1.925
X2.275Y-2.225
X2.275Y-2.4
X2.3465Y-2.075
T3
X2.75Y-1.775
X2.75Y-1.8537
X2.75Y-1.9325
X2.75Y-2.0112
X2.75Y-2.09
X2.75Y-2.1687
X2.75Y-2.2474
X2.5Y-1.775
X2.5Y-1.8537
X2.5Y-1.9325
X2.5Y-2.0112
X2.5Y-2.09
X2.5Y-2.1687
X2.5787Y-1.775
X2.5787Y-1.8537
X2.5787Y-1.9325
X2.5787Y-2.0112
X2.5787Y-2.09
X2.5787Y-2.1687
X2.875Y-3.0713
X2.875Y-3.15
T4
X1.425Y-1.2496
X1.425Y-1.3299
X1.425Y-1.4102
X1.425Y-1.4906
X1.4951Y-1.2094
X1.4951Y-1.2898
X1.4951Y-1.3701
X1.4951Y-1.4504
X1.425Y-2.0496
X1.425Y-2.1299
X1.425Y-2.2102
X1.425Y-2.2906
X1.4951Y-2.0094
X1.4951Y-2.0898
X1.4951Y-2.1701
X1.4951Y-2.2504
X1.425Y-2.8496
X1.425Y-2.9299
X1.425Y-3.0102
X1.425Y-3.0906
X1.4951Y-2.8094
X1.4951Y-2.8898
X1.4951Y-2.9701
X1.4951Y-3.0504
T5
X1.775Y-1.3
X1.775Y-2.125
X1.775Y-2.95
X1.85Y-2.575
X1.925Y-1.775
X2.05Y-3.3
X2.175Y-1.15
X2.175Y-1.35
X2.175Y-1.975
X2.175Y-2.175
X2.175Y-2.8
X2.175Y-3.0
X2.3Y-3.05
T6
X1.46Y-1.0319
X1.46Y-1.6681
X1.46Y-1.8319
X1.46Y-2.4681
X1.46Y-2.6319
X1.46Y-3.2681
T0
M30
