%TF.GenerationSoftware,KiCad,Pcbnew,(5.1.2)-1*%
%TF.CreationDate,2019-06-16T17:19:58+02:00*%
%TF.ProjectId,i2s_tx,6932735f-7478-42e6-9b69-6361645f7063,rev?*%
%TF.SameCoordinates,Original*%
%TF.FileFunction,Soldermask,Bot*%
%TF.FilePolarity,Negative*%
%FSLAX46Y46*%
G04 Gerber Fmt 4.6, Leading zero omitted, Abs format (unit mm)*
G04 Created by KiCad (PCBNEW (5.1.2)-1) date 2019-06-16 17:19:58*
%MOMM*%
%LPD*%
G04 APERTURE LIST*
%ADD10C,0.150000*%
G04 APERTURE END LIST*
D10*
G36*
X37464487Y-81758996D02*
G01*
X37701253Y-81857068D01*
X37701255Y-81857069D01*
X37914339Y-81999447D01*
X38095553Y-82180661D01*
X38237932Y-82393747D01*
X38336004Y-82630513D01*
X38386000Y-82881861D01*
X38386000Y-83138139D01*
X38336004Y-83389487D01*
X38237932Y-83626253D01*
X38237931Y-83626255D01*
X38095553Y-83839339D01*
X37914339Y-84020553D01*
X37701255Y-84162931D01*
X37701254Y-84162932D01*
X37701253Y-84162932D01*
X37464487Y-84261004D01*
X37213139Y-84311000D01*
X36956861Y-84311000D01*
X36705513Y-84261004D01*
X36468747Y-84162932D01*
X36468746Y-84162932D01*
X36468745Y-84162931D01*
X36255661Y-84020553D01*
X36074447Y-83839339D01*
X35932069Y-83626255D01*
X35932068Y-83626253D01*
X35833996Y-83389487D01*
X35784000Y-83138139D01*
X35784000Y-82881861D01*
X35833996Y-82630513D01*
X35932068Y-82393747D01*
X36074447Y-82180661D01*
X36255661Y-81999447D01*
X36468745Y-81857069D01*
X36468747Y-81857068D01*
X36705513Y-81758996D01*
X36956861Y-81709000D01*
X37213139Y-81709000D01*
X37464487Y-81758996D01*
X37464487Y-81758996D01*
G37*
G36*
X34143871Y-79668408D02*
G01*
X34448883Y-79794748D01*
X34723387Y-79978166D01*
X34956834Y-80211613D01*
X35140252Y-80486117D01*
X35266592Y-80791129D01*
X35331000Y-81114928D01*
X35331000Y-81445072D01*
X35266592Y-81768871D01*
X35140252Y-82073883D01*
X34956834Y-82348387D01*
X34723387Y-82581834D01*
X34448883Y-82765252D01*
X34143871Y-82891592D01*
X33981971Y-82923796D01*
X33820073Y-82956000D01*
X33489927Y-82956000D01*
X33328029Y-82923796D01*
X33166129Y-82891592D01*
X32861117Y-82765252D01*
X32586613Y-82581834D01*
X32353166Y-82348387D01*
X32169748Y-82073883D01*
X32043408Y-81768871D01*
X31979000Y-81445072D01*
X31979000Y-81114928D01*
X32043408Y-80791129D01*
X32169748Y-80486117D01*
X32353166Y-80211613D01*
X32586613Y-79978166D01*
X32861117Y-79794748D01*
X33166129Y-79668408D01*
X33489927Y-79604000D01*
X33820073Y-79604000D01*
X34143871Y-79668408D01*
X34143871Y-79668408D01*
G37*
G36*
X73751000Y-80736000D02*
G01*
X72299000Y-80736000D01*
X72299000Y-79284000D01*
X73751000Y-79284000D01*
X73751000Y-80736000D01*
X73751000Y-80736000D01*
G37*
G36*
X38208642Y-76709781D02*
G01*
X38354414Y-76770162D01*
X38354416Y-76770163D01*
X38485608Y-76857822D01*
X38597178Y-76969392D01*
X38684837Y-77100584D01*
X38684838Y-77100586D01*
X38745219Y-77246358D01*
X38776000Y-77401107D01*
X38776000Y-77558893D01*
X38745219Y-77713642D01*
X38713517Y-77790177D01*
X38684837Y-77859416D01*
X38597178Y-77990608D01*
X38485608Y-78102178D01*
X38354416Y-78189837D01*
X38354415Y-78189838D01*
X38354414Y-78189838D01*
X38208642Y-78250219D01*
X38053893Y-78281000D01*
X37896107Y-78281000D01*
X37741358Y-78250219D01*
X37595586Y-78189838D01*
X37595585Y-78189838D01*
X37595584Y-78189837D01*
X37464392Y-78102178D01*
X37352822Y-77990608D01*
X37265163Y-77859416D01*
X37236483Y-77790177D01*
X37224932Y-77768566D01*
X37209387Y-77749624D01*
X37190445Y-77734079D01*
X37168834Y-77722528D01*
X37145385Y-77715415D01*
X37120999Y-77713013D01*
X37096613Y-77715415D01*
X37073164Y-77722528D01*
X37051553Y-77734079D01*
X37032611Y-77749624D01*
X37017066Y-77768566D01*
X37005515Y-77790177D01*
X36998402Y-77813626D01*
X36996000Y-77838012D01*
X36996000Y-79301000D01*
X35394000Y-79301000D01*
X35394000Y-77699000D01*
X37049558Y-77699000D01*
X37073944Y-77696598D01*
X37097393Y-77689485D01*
X37119004Y-77677934D01*
X37137946Y-77662389D01*
X37153491Y-77643447D01*
X37165042Y-77621836D01*
X37172155Y-77598387D01*
X37174557Y-77574001D01*
X37174000Y-77568351D01*
X37174000Y-77401107D01*
X37204781Y-77246358D01*
X37265162Y-77100586D01*
X37265163Y-77100584D01*
X37352822Y-76969392D01*
X37464392Y-76857822D01*
X37595584Y-76770163D01*
X37595586Y-76770162D01*
X37741358Y-76709781D01*
X37896107Y-76679000D01*
X38053893Y-76679000D01*
X38208642Y-76709781D01*
X38208642Y-76709781D01*
G37*
G36*
X73096213Y-77287502D02*
G01*
X73167321Y-77294505D01*
X73304172Y-77336019D01*
X73304175Y-77336020D01*
X73430294Y-77403432D01*
X73540843Y-77494157D01*
X73631568Y-77604706D01*
X73698980Y-77730825D01*
X73698981Y-77730828D01*
X73740495Y-77867679D01*
X73754512Y-78010000D01*
X73740495Y-78152321D01*
X73729114Y-78189837D01*
X73698980Y-78289175D01*
X73631568Y-78415294D01*
X73540843Y-78525843D01*
X73430294Y-78616568D01*
X73304175Y-78683980D01*
X73304172Y-78683981D01*
X73167321Y-78725495D01*
X73096213Y-78732498D01*
X73060660Y-78736000D01*
X72989340Y-78736000D01*
X72953787Y-78732498D01*
X72882679Y-78725495D01*
X72745828Y-78683981D01*
X72745825Y-78683980D01*
X72619706Y-78616568D01*
X72509157Y-78525843D01*
X72418432Y-78415294D01*
X72351020Y-78289175D01*
X72320886Y-78189837D01*
X72309505Y-78152321D01*
X72295488Y-78010000D01*
X72309505Y-77867679D01*
X72351019Y-77730828D01*
X72351020Y-77730825D01*
X72418432Y-77604706D01*
X72509157Y-77494157D01*
X72619706Y-77403432D01*
X72745825Y-77336020D01*
X72745828Y-77336019D01*
X72882679Y-77294505D01*
X72953787Y-77287502D01*
X72989340Y-77284000D01*
X73060660Y-77284000D01*
X73096213Y-77287502D01*
X73096213Y-77287502D01*
G37*
G36*
X36428642Y-75689781D02*
G01*
X36574414Y-75750162D01*
X36574416Y-75750163D01*
X36705608Y-75837822D01*
X36817178Y-75949392D01*
X36904837Y-76080584D01*
X36904838Y-76080586D01*
X36965219Y-76226358D01*
X36996000Y-76381107D01*
X36996000Y-76538893D01*
X36965219Y-76693642D01*
X36904838Y-76839414D01*
X36904837Y-76839416D01*
X36817178Y-76970608D01*
X36705608Y-77082178D01*
X36574416Y-77169837D01*
X36574415Y-77169838D01*
X36574414Y-77169838D01*
X36428642Y-77230219D01*
X36273893Y-77261000D01*
X36116107Y-77261000D01*
X35961358Y-77230219D01*
X35815586Y-77169838D01*
X35815585Y-77169838D01*
X35815584Y-77169837D01*
X35684392Y-77082178D01*
X35572822Y-76970608D01*
X35485163Y-76839416D01*
X35485162Y-76839414D01*
X35424781Y-76693642D01*
X35394000Y-76538893D01*
X35394000Y-76381107D01*
X35424781Y-76226358D01*
X35485162Y-76080586D01*
X35485163Y-76080584D01*
X35572822Y-75949392D01*
X35684392Y-75837822D01*
X35815584Y-75750163D01*
X35815586Y-75750162D01*
X35961358Y-75689781D01*
X36116107Y-75659000D01*
X36273893Y-75659000D01*
X36428642Y-75689781D01*
X36428642Y-75689781D01*
G37*
G36*
X38208642Y-74669781D02*
G01*
X38354414Y-74730162D01*
X38354416Y-74730163D01*
X38485608Y-74817822D01*
X38597178Y-74929392D01*
X38684837Y-75060584D01*
X38684838Y-75060586D01*
X38745219Y-75206358D01*
X38776000Y-75361107D01*
X38776000Y-75518893D01*
X38745219Y-75673642D01*
X38684838Y-75819414D01*
X38684837Y-75819416D01*
X38597178Y-75950608D01*
X38485608Y-76062178D01*
X38354416Y-76149837D01*
X38354415Y-76149838D01*
X38354414Y-76149838D01*
X38208642Y-76210219D01*
X38053893Y-76241000D01*
X37896107Y-76241000D01*
X37741358Y-76210219D01*
X37595586Y-76149838D01*
X37595585Y-76149838D01*
X37595584Y-76149837D01*
X37464392Y-76062178D01*
X37352822Y-75950608D01*
X37265163Y-75819416D01*
X37265162Y-75819414D01*
X37204781Y-75673642D01*
X37174000Y-75518893D01*
X37174000Y-75361107D01*
X37204781Y-75206358D01*
X37265162Y-75060586D01*
X37265163Y-75060584D01*
X37352822Y-74929392D01*
X37464392Y-74817822D01*
X37595584Y-74730163D01*
X37595586Y-74730162D01*
X37741358Y-74669781D01*
X37896107Y-74639000D01*
X38053893Y-74639000D01*
X38208642Y-74669781D01*
X38208642Y-74669781D01*
G37*
G36*
X36428642Y-73649781D02*
G01*
X36574414Y-73710162D01*
X36574416Y-73710163D01*
X36705608Y-73797822D01*
X36817178Y-73909392D01*
X36904837Y-74040584D01*
X36904838Y-74040586D01*
X36965219Y-74186358D01*
X36996000Y-74341107D01*
X36996000Y-74498893D01*
X36965219Y-74653642D01*
X36904838Y-74799414D01*
X36904837Y-74799416D01*
X36817178Y-74930608D01*
X36705608Y-75042178D01*
X36574416Y-75129837D01*
X36574415Y-75129838D01*
X36574414Y-75129838D01*
X36428642Y-75190219D01*
X36273893Y-75221000D01*
X36116107Y-75221000D01*
X35961358Y-75190219D01*
X35815586Y-75129838D01*
X35815585Y-75129838D01*
X35815584Y-75129837D01*
X35684392Y-75042178D01*
X35572822Y-74930608D01*
X35485163Y-74799416D01*
X35485162Y-74799414D01*
X35424781Y-74653642D01*
X35394000Y-74498893D01*
X35394000Y-74341107D01*
X35424781Y-74186358D01*
X35485162Y-74040586D01*
X35485163Y-74040584D01*
X35572822Y-73909392D01*
X35684392Y-73797822D01*
X35815584Y-73710163D01*
X35815586Y-73710162D01*
X35961358Y-73649781D01*
X36116107Y-73619000D01*
X36273893Y-73619000D01*
X36428642Y-73649781D01*
X36428642Y-73649781D01*
G37*
G36*
X38208642Y-72629781D02*
G01*
X38354414Y-72690162D01*
X38354416Y-72690163D01*
X38485608Y-72777822D01*
X38597178Y-72889392D01*
X38684837Y-73020584D01*
X38684838Y-73020586D01*
X38745219Y-73166358D01*
X38776000Y-73321107D01*
X38776000Y-73478893D01*
X38745219Y-73633642D01*
X38684838Y-73779414D01*
X38684837Y-73779416D01*
X38597178Y-73910608D01*
X38485608Y-74022178D01*
X38354416Y-74109837D01*
X38354415Y-74109838D01*
X38354414Y-74109838D01*
X38208642Y-74170219D01*
X38053893Y-74201000D01*
X37896107Y-74201000D01*
X37741358Y-74170219D01*
X37595586Y-74109838D01*
X37595585Y-74109838D01*
X37595584Y-74109837D01*
X37464392Y-74022178D01*
X37352822Y-73910608D01*
X37265163Y-73779416D01*
X37265162Y-73779414D01*
X37204781Y-73633642D01*
X37174000Y-73478893D01*
X37174000Y-73321107D01*
X37204781Y-73166358D01*
X37265162Y-73020586D01*
X37265163Y-73020584D01*
X37352822Y-72889392D01*
X37464392Y-72777822D01*
X37595584Y-72690163D01*
X37595586Y-72690162D01*
X37741358Y-72629781D01*
X37896107Y-72599000D01*
X38053893Y-72599000D01*
X38208642Y-72629781D01*
X38208642Y-72629781D01*
G37*
G36*
X36428642Y-71609781D02*
G01*
X36574414Y-71670162D01*
X36574416Y-71670163D01*
X36705608Y-71757822D01*
X36817178Y-71869392D01*
X36904837Y-72000584D01*
X36904838Y-72000586D01*
X36965219Y-72146358D01*
X36996000Y-72301107D01*
X36996000Y-72458893D01*
X36965219Y-72613642D01*
X36904838Y-72759414D01*
X36904837Y-72759416D01*
X36817178Y-72890608D01*
X36705608Y-73002178D01*
X36574416Y-73089837D01*
X36574415Y-73089838D01*
X36574414Y-73089838D01*
X36428642Y-73150219D01*
X36273893Y-73181000D01*
X36116107Y-73181000D01*
X35961358Y-73150219D01*
X35815586Y-73089838D01*
X35815585Y-73089838D01*
X35815584Y-73089837D01*
X35684392Y-73002178D01*
X35572822Y-72890608D01*
X35485163Y-72759416D01*
X35485162Y-72759414D01*
X35424781Y-72613642D01*
X35394000Y-72458893D01*
X35394000Y-72301107D01*
X35424781Y-72146358D01*
X35485162Y-72000586D01*
X35485163Y-72000584D01*
X35572822Y-71869392D01*
X35684392Y-71757822D01*
X35815584Y-71670163D01*
X35815586Y-71670162D01*
X35961358Y-71609781D01*
X36116107Y-71579000D01*
X36273893Y-71579000D01*
X36428642Y-71609781D01*
X36428642Y-71609781D01*
G37*
G36*
X38208642Y-70589781D02*
G01*
X38354414Y-70650162D01*
X38354416Y-70650163D01*
X38485608Y-70737822D01*
X38597178Y-70849392D01*
X38684837Y-70980584D01*
X38684838Y-70980586D01*
X38745219Y-71126358D01*
X38776000Y-71281107D01*
X38776000Y-71438893D01*
X38745219Y-71593642D01*
X38684838Y-71739414D01*
X38684837Y-71739416D01*
X38597178Y-71870608D01*
X38485608Y-71982178D01*
X38354416Y-72069837D01*
X38354415Y-72069838D01*
X38354414Y-72069838D01*
X38208642Y-72130219D01*
X38053893Y-72161000D01*
X37896107Y-72161000D01*
X37741358Y-72130219D01*
X37595586Y-72069838D01*
X37595585Y-72069838D01*
X37595584Y-72069837D01*
X37464392Y-71982178D01*
X37352822Y-71870608D01*
X37265163Y-71739416D01*
X37265162Y-71739414D01*
X37204781Y-71593642D01*
X37174000Y-71438893D01*
X37174000Y-71281107D01*
X37204781Y-71126358D01*
X37265162Y-70980586D01*
X37265163Y-70980584D01*
X37352822Y-70849392D01*
X37464392Y-70737822D01*
X37595584Y-70650163D01*
X37595586Y-70650162D01*
X37741358Y-70589781D01*
X37896107Y-70559000D01*
X38053893Y-70559000D01*
X38208642Y-70589781D01*
X38208642Y-70589781D01*
G37*
G36*
X33981971Y-66936204D02*
G01*
X34143871Y-66968408D01*
X34448883Y-67094748D01*
X34723387Y-67278166D01*
X34956834Y-67511613D01*
X35140252Y-67786117D01*
X35266592Y-68091129D01*
X35331000Y-68414928D01*
X35331000Y-68745072D01*
X35266592Y-69068871D01*
X35140252Y-69373883D01*
X34956834Y-69648387D01*
X34723387Y-69881834D01*
X34448883Y-70065252D01*
X34143871Y-70191592D01*
X33820073Y-70256000D01*
X33489927Y-70256000D01*
X33166129Y-70191592D01*
X32861117Y-70065252D01*
X32586613Y-69881834D01*
X32353166Y-69648387D01*
X32169748Y-69373883D01*
X32043408Y-69068871D01*
X31979000Y-68745072D01*
X31979000Y-68414928D01*
X32043408Y-68091129D01*
X32169748Y-67786117D01*
X32353166Y-67511613D01*
X32586613Y-67278166D01*
X32861117Y-67094748D01*
X33166129Y-66968408D01*
X33328029Y-66936204D01*
X33489927Y-66904000D01*
X33820073Y-66904000D01*
X33981971Y-66936204D01*
X33981971Y-66936204D01*
G37*
G36*
X37464487Y-65598996D02*
G01*
X37701253Y-65697068D01*
X37701255Y-65697069D01*
X37914339Y-65839447D01*
X38095553Y-66020661D01*
X38237932Y-66233747D01*
X38336004Y-66470513D01*
X38386000Y-66721861D01*
X38386000Y-66978139D01*
X38336004Y-67229487D01*
X38315840Y-67278166D01*
X38237931Y-67466255D01*
X38095553Y-67679339D01*
X37914339Y-67860553D01*
X37701255Y-68002931D01*
X37701254Y-68002932D01*
X37701253Y-68002932D01*
X37464487Y-68101004D01*
X37213139Y-68151000D01*
X36956861Y-68151000D01*
X36705513Y-68101004D01*
X36468747Y-68002932D01*
X36468746Y-68002932D01*
X36468745Y-68002931D01*
X36255661Y-67860553D01*
X36074447Y-67679339D01*
X35932069Y-67466255D01*
X35854160Y-67278166D01*
X35833996Y-67229487D01*
X35784000Y-66978139D01*
X35784000Y-66721861D01*
X35833996Y-66470513D01*
X35932068Y-66233747D01*
X36074447Y-66020661D01*
X36255661Y-65839447D01*
X36468745Y-65697069D01*
X36468747Y-65697068D01*
X36705513Y-65598996D01*
X36956861Y-65549000D01*
X37213139Y-65549000D01*
X37464487Y-65598996D01*
X37464487Y-65598996D01*
G37*
G36*
X37464487Y-61438996D02*
G01*
X37701253Y-61537068D01*
X37701255Y-61537069D01*
X37914339Y-61679447D01*
X38095553Y-61860661D01*
X38237932Y-62073747D01*
X38336004Y-62310513D01*
X38386000Y-62561861D01*
X38386000Y-62818139D01*
X38336004Y-63069487D01*
X38237932Y-63306253D01*
X38237931Y-63306255D01*
X38095553Y-63519339D01*
X37914339Y-63700553D01*
X37701255Y-63842931D01*
X37701254Y-63842932D01*
X37701253Y-63842932D01*
X37464487Y-63941004D01*
X37213139Y-63991000D01*
X36956861Y-63991000D01*
X36705513Y-63941004D01*
X36468747Y-63842932D01*
X36468746Y-63842932D01*
X36468745Y-63842931D01*
X36255661Y-63700553D01*
X36074447Y-63519339D01*
X35932069Y-63306255D01*
X35932068Y-63306253D01*
X35833996Y-63069487D01*
X35784000Y-62818139D01*
X35784000Y-62561861D01*
X35833996Y-62310513D01*
X35932068Y-62073747D01*
X36074447Y-61860661D01*
X36255661Y-61679447D01*
X36468745Y-61537069D01*
X36468747Y-61537068D01*
X36705513Y-61438996D01*
X36956861Y-61389000D01*
X37213139Y-61389000D01*
X37464487Y-61438996D01*
X37464487Y-61438996D01*
G37*
G36*
X34143871Y-59348408D02*
G01*
X34448883Y-59474748D01*
X34723387Y-59658166D01*
X34956834Y-59891613D01*
X35140252Y-60166117D01*
X35266592Y-60471129D01*
X35331000Y-60794928D01*
X35331000Y-61125072D01*
X35266592Y-61448871D01*
X35140252Y-61753883D01*
X34956834Y-62028387D01*
X34723387Y-62261834D01*
X34448883Y-62445252D01*
X34143871Y-62571592D01*
X33981971Y-62603796D01*
X33820073Y-62636000D01*
X33489927Y-62636000D01*
X33328029Y-62603796D01*
X33166129Y-62571592D01*
X32861117Y-62445252D01*
X32586613Y-62261834D01*
X32353166Y-62028387D01*
X32169748Y-61753883D01*
X32043408Y-61448871D01*
X31979000Y-61125072D01*
X31979000Y-60794928D01*
X32043408Y-60471129D01*
X32169748Y-60166117D01*
X32353166Y-59891613D01*
X32586613Y-59658166D01*
X32861117Y-59474748D01*
X33166129Y-59348408D01*
X33489927Y-59284000D01*
X33820073Y-59284000D01*
X34143871Y-59348408D01*
X34143871Y-59348408D01*
G37*
G36*
X38208642Y-56389781D02*
G01*
X38354414Y-56450162D01*
X38354416Y-56450163D01*
X38485608Y-56537822D01*
X38597178Y-56649392D01*
X38684837Y-56780584D01*
X38684838Y-56780586D01*
X38745219Y-56926358D01*
X38776000Y-57081107D01*
X38776000Y-57238893D01*
X38745219Y-57393642D01*
X38713517Y-57470177D01*
X38684837Y-57539416D01*
X38597178Y-57670608D01*
X38485608Y-57782178D01*
X38354416Y-57869837D01*
X38354415Y-57869838D01*
X38354414Y-57869838D01*
X38208642Y-57930219D01*
X38053893Y-57961000D01*
X37896107Y-57961000D01*
X37741358Y-57930219D01*
X37595586Y-57869838D01*
X37595585Y-57869838D01*
X37595584Y-57869837D01*
X37464392Y-57782178D01*
X37352822Y-57670608D01*
X37265163Y-57539416D01*
X37236483Y-57470177D01*
X37224932Y-57448566D01*
X37209387Y-57429624D01*
X37190445Y-57414079D01*
X37168834Y-57402528D01*
X37145385Y-57395415D01*
X37120999Y-57393013D01*
X37096613Y-57395415D01*
X37073164Y-57402528D01*
X37051553Y-57414079D01*
X37032611Y-57429624D01*
X37017066Y-57448566D01*
X37005515Y-57470177D01*
X36998402Y-57493626D01*
X36996000Y-57518012D01*
X36996000Y-58981000D01*
X35394000Y-58981000D01*
X35394000Y-57379000D01*
X37049558Y-57379000D01*
X37073944Y-57376598D01*
X37097393Y-57369485D01*
X37119004Y-57357934D01*
X37137946Y-57342389D01*
X37153491Y-57323447D01*
X37165042Y-57301836D01*
X37172155Y-57278387D01*
X37174557Y-57254001D01*
X37174000Y-57248351D01*
X37174000Y-57081107D01*
X37204781Y-56926358D01*
X37265162Y-56780586D01*
X37265163Y-56780584D01*
X37352822Y-56649392D01*
X37464392Y-56537822D01*
X37595584Y-56450163D01*
X37595586Y-56450162D01*
X37741358Y-56389781D01*
X37896107Y-56359000D01*
X38053893Y-56359000D01*
X38208642Y-56389781D01*
X38208642Y-56389781D01*
G37*
G36*
X69921213Y-56362502D02*
G01*
X69992321Y-56369505D01*
X70129172Y-56411019D01*
X70129175Y-56411020D01*
X70255294Y-56478432D01*
X70365843Y-56569157D01*
X70456568Y-56679706D01*
X70523980Y-56805825D01*
X70523981Y-56805828D01*
X70565495Y-56942679D01*
X70579512Y-57085000D01*
X70565495Y-57227321D01*
X70536335Y-57323447D01*
X70523980Y-57364175D01*
X70456568Y-57490294D01*
X70365843Y-57600843D01*
X70255294Y-57691568D01*
X70129175Y-57758980D01*
X70129172Y-57758981D01*
X69992321Y-57800495D01*
X69921213Y-57807498D01*
X69885660Y-57811000D01*
X69814340Y-57811000D01*
X69778787Y-57807498D01*
X69707679Y-57800495D01*
X69570828Y-57758981D01*
X69570825Y-57758980D01*
X69444706Y-57691568D01*
X69334157Y-57600843D01*
X69243432Y-57490294D01*
X69176020Y-57364175D01*
X69163665Y-57323447D01*
X69134505Y-57227321D01*
X69120488Y-57085000D01*
X69134505Y-56942679D01*
X69176019Y-56805828D01*
X69176020Y-56805825D01*
X69243432Y-56679706D01*
X69334157Y-56569157D01*
X69444706Y-56478432D01*
X69570825Y-56411020D01*
X69570828Y-56411019D01*
X69707679Y-56369505D01*
X69778787Y-56362502D01*
X69814340Y-56359000D01*
X69885660Y-56359000D01*
X69921213Y-56362502D01*
X69921213Y-56362502D01*
G37*
G36*
X36428642Y-55369781D02*
G01*
X36574414Y-55430162D01*
X36574416Y-55430163D01*
X36705608Y-55517822D01*
X36817178Y-55629392D01*
X36903765Y-55758980D01*
X36904838Y-55760586D01*
X36965219Y-55906358D01*
X36996000Y-56061107D01*
X36996000Y-56218893D01*
X36965219Y-56373642D01*
X36921813Y-56478432D01*
X36904837Y-56519416D01*
X36817178Y-56650608D01*
X36705608Y-56762178D01*
X36574416Y-56849837D01*
X36574415Y-56849838D01*
X36574414Y-56849838D01*
X36428642Y-56910219D01*
X36273893Y-56941000D01*
X36116107Y-56941000D01*
X35961358Y-56910219D01*
X35815586Y-56849838D01*
X35815585Y-56849838D01*
X35815584Y-56849837D01*
X35684392Y-56762178D01*
X35572822Y-56650608D01*
X35485163Y-56519416D01*
X35468187Y-56478432D01*
X35424781Y-56373642D01*
X35394000Y-56218893D01*
X35394000Y-56061107D01*
X35424781Y-55906358D01*
X35485162Y-55760586D01*
X35486235Y-55758980D01*
X35572822Y-55629392D01*
X35684392Y-55517822D01*
X35815584Y-55430163D01*
X35815586Y-55430162D01*
X35961358Y-55369781D01*
X36116107Y-55339000D01*
X36273893Y-55339000D01*
X36428642Y-55369781D01*
X36428642Y-55369781D01*
G37*
G36*
X38208642Y-54349781D02*
G01*
X38354414Y-54410162D01*
X38354416Y-54410163D01*
X38485608Y-54497822D01*
X38597178Y-54609392D01*
X38684837Y-54740584D01*
X38684838Y-54740586D01*
X38745219Y-54886358D01*
X38776000Y-55041107D01*
X38776000Y-55198893D01*
X38745219Y-55353642D01*
X38688615Y-55490295D01*
X38684837Y-55499416D01*
X38597178Y-55630608D01*
X38485608Y-55742178D01*
X38354416Y-55829837D01*
X38354415Y-55829838D01*
X38354414Y-55829838D01*
X38208642Y-55890219D01*
X38053893Y-55921000D01*
X37896107Y-55921000D01*
X37741358Y-55890219D01*
X37595586Y-55829838D01*
X37595585Y-55829838D01*
X37595584Y-55829837D01*
X37464392Y-55742178D01*
X37352822Y-55630608D01*
X37265163Y-55499416D01*
X37261385Y-55490295D01*
X37204781Y-55353642D01*
X37174000Y-55198893D01*
X37174000Y-55041107D01*
X37204781Y-54886358D01*
X37265162Y-54740586D01*
X37265163Y-54740584D01*
X37352822Y-54609392D01*
X37464392Y-54497822D01*
X37595584Y-54410163D01*
X37595586Y-54410162D01*
X37741358Y-54349781D01*
X37896107Y-54319000D01*
X38053893Y-54319000D01*
X38208642Y-54349781D01*
X38208642Y-54349781D01*
G37*
G36*
X69921213Y-54362502D02*
G01*
X69992321Y-54369505D01*
X70126347Y-54410162D01*
X70129175Y-54411020D01*
X70255294Y-54478432D01*
X70365843Y-54569157D01*
X70456568Y-54679706D01*
X70523980Y-54805825D01*
X70523981Y-54805828D01*
X70565495Y-54942679D01*
X70579512Y-55085000D01*
X70565495Y-55227321D01*
X70531617Y-55339000D01*
X70523980Y-55364175D01*
X70456568Y-55490294D01*
X70365843Y-55600843D01*
X70255294Y-55691568D01*
X70129175Y-55758980D01*
X70129172Y-55758981D01*
X69992321Y-55800495D01*
X69921213Y-55807498D01*
X69885660Y-55811000D01*
X69814340Y-55811000D01*
X69778787Y-55807498D01*
X69707679Y-55800495D01*
X69570828Y-55758981D01*
X69570825Y-55758980D01*
X69444706Y-55691568D01*
X69334157Y-55600843D01*
X69243432Y-55490294D01*
X69176020Y-55364175D01*
X69168383Y-55339000D01*
X69134505Y-55227321D01*
X69120488Y-55085000D01*
X69134505Y-54942679D01*
X69176019Y-54805828D01*
X69176020Y-54805825D01*
X69243432Y-54679706D01*
X69334157Y-54569157D01*
X69444706Y-54478432D01*
X69570825Y-54411020D01*
X69573653Y-54410162D01*
X69707679Y-54369505D01*
X69778787Y-54362502D01*
X69814340Y-54359000D01*
X69885660Y-54359000D01*
X69921213Y-54362502D01*
X69921213Y-54362502D01*
G37*
G36*
X65571213Y-54362502D02*
G01*
X65642321Y-54369505D01*
X65776347Y-54410162D01*
X65779175Y-54411020D01*
X65905294Y-54478432D01*
X66015843Y-54569157D01*
X66106568Y-54679706D01*
X66173980Y-54805825D01*
X66173981Y-54805828D01*
X66215495Y-54942679D01*
X66229512Y-55085000D01*
X66215495Y-55227321D01*
X66181617Y-55339000D01*
X66173980Y-55364175D01*
X66106568Y-55490294D01*
X66015843Y-55600843D01*
X65905294Y-55691568D01*
X65779175Y-55758980D01*
X65779172Y-55758981D01*
X65642321Y-55800495D01*
X65571213Y-55807498D01*
X65535660Y-55811000D01*
X65464340Y-55811000D01*
X65428787Y-55807498D01*
X65357679Y-55800495D01*
X65220828Y-55758981D01*
X65220825Y-55758980D01*
X65094706Y-55691568D01*
X64984157Y-55600843D01*
X64893432Y-55490294D01*
X64826020Y-55364175D01*
X64818383Y-55339000D01*
X64784505Y-55227321D01*
X64770488Y-55085000D01*
X64784505Y-54942679D01*
X64826019Y-54805828D01*
X64826020Y-54805825D01*
X64893432Y-54679706D01*
X64984157Y-54569157D01*
X65094706Y-54478432D01*
X65220825Y-54411020D01*
X65223653Y-54410162D01*
X65357679Y-54369505D01*
X65428787Y-54362502D01*
X65464340Y-54359000D01*
X65535660Y-54359000D01*
X65571213Y-54362502D01*
X65571213Y-54362502D01*
G37*
G36*
X63571213Y-54362502D02*
G01*
X63642321Y-54369505D01*
X63776347Y-54410162D01*
X63779175Y-54411020D01*
X63905294Y-54478432D01*
X64015843Y-54569157D01*
X64106568Y-54679706D01*
X64173980Y-54805825D01*
X64173981Y-54805828D01*
X64215495Y-54942679D01*
X64229512Y-55085000D01*
X64215495Y-55227321D01*
X64181617Y-55339000D01*
X64173980Y-55364175D01*
X64106568Y-55490294D01*
X64015843Y-55600843D01*
X63905294Y-55691568D01*
X63779175Y-55758980D01*
X63779172Y-55758981D01*
X63642321Y-55800495D01*
X63571213Y-55807498D01*
X63535660Y-55811000D01*
X63464340Y-55811000D01*
X63428787Y-55807498D01*
X63357679Y-55800495D01*
X63220828Y-55758981D01*
X63220825Y-55758980D01*
X63094706Y-55691568D01*
X62984157Y-55600843D01*
X62893432Y-55490294D01*
X62826020Y-55364175D01*
X62818383Y-55339000D01*
X62784505Y-55227321D01*
X62770488Y-55085000D01*
X62784505Y-54942679D01*
X62826019Y-54805828D01*
X62826020Y-54805825D01*
X62893432Y-54679706D01*
X62984157Y-54569157D01*
X63094706Y-54478432D01*
X63220825Y-54411020D01*
X63223653Y-54410162D01*
X63357679Y-54369505D01*
X63428787Y-54362502D01*
X63464340Y-54359000D01*
X63535660Y-54359000D01*
X63571213Y-54362502D01*
X63571213Y-54362502D01*
G37*
G36*
X36428642Y-53329781D02*
G01*
X36574414Y-53390162D01*
X36574416Y-53390163D01*
X36705608Y-53477822D01*
X36817178Y-53589392D01*
X36904837Y-53720584D01*
X36904838Y-53720586D01*
X36965219Y-53866358D01*
X36996000Y-54021107D01*
X36996000Y-54178893D01*
X36965219Y-54333642D01*
X36905245Y-54478432D01*
X36904837Y-54479416D01*
X36817178Y-54610608D01*
X36705608Y-54722178D01*
X36574416Y-54809837D01*
X36574415Y-54809838D01*
X36574414Y-54809838D01*
X36428642Y-54870219D01*
X36273893Y-54901000D01*
X36116107Y-54901000D01*
X35961358Y-54870219D01*
X35815586Y-54809838D01*
X35815585Y-54809838D01*
X35815584Y-54809837D01*
X35684392Y-54722178D01*
X35572822Y-54610608D01*
X35485163Y-54479416D01*
X35484755Y-54478432D01*
X35424781Y-54333642D01*
X35394000Y-54178893D01*
X35394000Y-54021107D01*
X35424781Y-53866358D01*
X35485162Y-53720586D01*
X35485163Y-53720584D01*
X35572822Y-53589392D01*
X35684392Y-53477822D01*
X35815584Y-53390163D01*
X35815586Y-53390162D01*
X35961358Y-53329781D01*
X36116107Y-53299000D01*
X36273893Y-53299000D01*
X36428642Y-53329781D01*
X36428642Y-53329781D01*
G37*
G36*
X38208642Y-52309781D02*
G01*
X38354414Y-52370162D01*
X38354416Y-52370163D01*
X38485608Y-52457822D01*
X38597178Y-52569392D01*
X38684837Y-52700584D01*
X38684838Y-52700586D01*
X38745219Y-52846358D01*
X38776000Y-53001107D01*
X38776000Y-53158893D01*
X38745219Y-53313642D01*
X38684838Y-53459414D01*
X38684837Y-53459416D01*
X38597178Y-53590608D01*
X38485608Y-53702178D01*
X38354416Y-53789837D01*
X38354415Y-53789838D01*
X38354414Y-53789838D01*
X38208642Y-53850219D01*
X38053893Y-53881000D01*
X37896107Y-53881000D01*
X37741358Y-53850219D01*
X37595586Y-53789838D01*
X37595585Y-53789838D01*
X37595584Y-53789837D01*
X37464392Y-53702178D01*
X37352822Y-53590608D01*
X37265163Y-53459416D01*
X37265162Y-53459414D01*
X37204781Y-53313642D01*
X37174000Y-53158893D01*
X37174000Y-53001107D01*
X37204781Y-52846358D01*
X37265162Y-52700586D01*
X37265163Y-52700584D01*
X37352822Y-52569392D01*
X37464392Y-52457822D01*
X37595584Y-52370163D01*
X37595586Y-52370162D01*
X37741358Y-52309781D01*
X37896107Y-52279000D01*
X38053893Y-52279000D01*
X38208642Y-52309781D01*
X38208642Y-52309781D01*
G37*
G36*
X69921213Y-52362502D02*
G01*
X69992321Y-52369505D01*
X70129172Y-52411019D01*
X70129175Y-52411020D01*
X70255294Y-52478432D01*
X70365843Y-52569157D01*
X70456568Y-52679706D01*
X70523980Y-52805825D01*
X70523981Y-52805828D01*
X70565495Y-52942679D01*
X70579512Y-53085000D01*
X70565495Y-53227321D01*
X70534413Y-53329782D01*
X70523980Y-53364175D01*
X70456568Y-53490294D01*
X70365843Y-53600843D01*
X70255294Y-53691568D01*
X70129175Y-53758980D01*
X70129172Y-53758981D01*
X69992321Y-53800495D01*
X69921213Y-53807498D01*
X69885660Y-53811000D01*
X69814340Y-53811000D01*
X69778787Y-53807498D01*
X69707679Y-53800495D01*
X69570828Y-53758981D01*
X69570825Y-53758980D01*
X69444706Y-53691568D01*
X69334157Y-53600843D01*
X69243432Y-53490294D01*
X69176020Y-53364175D01*
X69165587Y-53329782D01*
X69134505Y-53227321D01*
X69120488Y-53085000D01*
X69134505Y-52942679D01*
X69176019Y-52805828D01*
X69176020Y-52805825D01*
X69243432Y-52679706D01*
X69334157Y-52569157D01*
X69444706Y-52478432D01*
X69570825Y-52411020D01*
X69570828Y-52411019D01*
X69707679Y-52369505D01*
X69778787Y-52362502D01*
X69814340Y-52359000D01*
X69885660Y-52359000D01*
X69921213Y-52362502D01*
X69921213Y-52362502D01*
G37*
G36*
X63571213Y-52362502D02*
G01*
X63642321Y-52369505D01*
X63779172Y-52411019D01*
X63779175Y-52411020D01*
X63905294Y-52478432D01*
X64015843Y-52569157D01*
X64106568Y-52679706D01*
X64173980Y-52805825D01*
X64173981Y-52805828D01*
X64215495Y-52942679D01*
X64229512Y-53085000D01*
X64215495Y-53227321D01*
X64184413Y-53329782D01*
X64173980Y-53364175D01*
X64106568Y-53490294D01*
X64015843Y-53600843D01*
X63905294Y-53691568D01*
X63779175Y-53758980D01*
X63779172Y-53758981D01*
X63642321Y-53800495D01*
X63571213Y-53807498D01*
X63535660Y-53811000D01*
X63464340Y-53811000D01*
X63428787Y-53807498D01*
X63357679Y-53800495D01*
X63220828Y-53758981D01*
X63220825Y-53758980D01*
X63094706Y-53691568D01*
X62984157Y-53600843D01*
X62893432Y-53490294D01*
X62826020Y-53364175D01*
X62815587Y-53329782D01*
X62784505Y-53227321D01*
X62770488Y-53085000D01*
X62784505Y-52942679D01*
X62826019Y-52805828D01*
X62826020Y-52805825D01*
X62893432Y-52679706D01*
X62984157Y-52569157D01*
X63094706Y-52478432D01*
X63220825Y-52411020D01*
X63220828Y-52411019D01*
X63357679Y-52369505D01*
X63428787Y-52362502D01*
X63464340Y-52359000D01*
X63535660Y-52359000D01*
X63571213Y-52362502D01*
X63571213Y-52362502D01*
G37*
G36*
X65571213Y-52362502D02*
G01*
X65642321Y-52369505D01*
X65779172Y-52411019D01*
X65779175Y-52411020D01*
X65905294Y-52478432D01*
X66015843Y-52569157D01*
X66106568Y-52679706D01*
X66173980Y-52805825D01*
X66173981Y-52805828D01*
X66215495Y-52942679D01*
X66229512Y-53085000D01*
X66215495Y-53227321D01*
X66184413Y-53329782D01*
X66173980Y-53364175D01*
X66106568Y-53490294D01*
X66015843Y-53600843D01*
X65905294Y-53691568D01*
X65779175Y-53758980D01*
X65779172Y-53758981D01*
X65642321Y-53800495D01*
X65571213Y-53807498D01*
X65535660Y-53811000D01*
X65464340Y-53811000D01*
X65428787Y-53807498D01*
X65357679Y-53800495D01*
X65220828Y-53758981D01*
X65220825Y-53758980D01*
X65094706Y-53691568D01*
X64984157Y-53600843D01*
X64893432Y-53490294D01*
X64826020Y-53364175D01*
X64815587Y-53329782D01*
X64784505Y-53227321D01*
X64770488Y-53085000D01*
X64784505Y-52942679D01*
X64826019Y-52805828D01*
X64826020Y-52805825D01*
X64893432Y-52679706D01*
X64984157Y-52569157D01*
X65094706Y-52478432D01*
X65220825Y-52411020D01*
X65220828Y-52411019D01*
X65357679Y-52369505D01*
X65428787Y-52362502D01*
X65464340Y-52359000D01*
X65535660Y-52359000D01*
X65571213Y-52362502D01*
X65571213Y-52362502D01*
G37*
G36*
X36428642Y-51289781D02*
G01*
X36574414Y-51350162D01*
X36574416Y-51350163D01*
X36705608Y-51437822D01*
X36817178Y-51549392D01*
X36904837Y-51680584D01*
X36904838Y-51680586D01*
X36965219Y-51826358D01*
X36996000Y-51981107D01*
X36996000Y-52138893D01*
X36965219Y-52293642D01*
X36916599Y-52411020D01*
X36904837Y-52439416D01*
X36817178Y-52570608D01*
X36705608Y-52682178D01*
X36574416Y-52769837D01*
X36574415Y-52769838D01*
X36574414Y-52769838D01*
X36428642Y-52830219D01*
X36273893Y-52861000D01*
X36116107Y-52861000D01*
X35961358Y-52830219D01*
X35815586Y-52769838D01*
X35815585Y-52769838D01*
X35815584Y-52769837D01*
X35684392Y-52682178D01*
X35572822Y-52570608D01*
X35485163Y-52439416D01*
X35473401Y-52411020D01*
X35424781Y-52293642D01*
X35394000Y-52138893D01*
X35394000Y-51981107D01*
X35424781Y-51826358D01*
X35485162Y-51680586D01*
X35485163Y-51680584D01*
X35572822Y-51549392D01*
X35684392Y-51437822D01*
X35815584Y-51350163D01*
X35815586Y-51350162D01*
X35961358Y-51289781D01*
X36116107Y-51259000D01*
X36273893Y-51259000D01*
X36428642Y-51289781D01*
X36428642Y-51289781D01*
G37*
G36*
X38208642Y-50269781D02*
G01*
X38354414Y-50330162D01*
X38354416Y-50330163D01*
X38485608Y-50417822D01*
X38597178Y-50529392D01*
X38684837Y-50660584D01*
X38684838Y-50660586D01*
X38745219Y-50806358D01*
X38776000Y-50961107D01*
X38776000Y-51118893D01*
X38745219Y-51273642D01*
X38707720Y-51364172D01*
X38684837Y-51419416D01*
X38597178Y-51550608D01*
X38485608Y-51662178D01*
X38354416Y-51749837D01*
X38354415Y-51749838D01*
X38354414Y-51749838D01*
X38208642Y-51810219D01*
X38053893Y-51841000D01*
X37896107Y-51841000D01*
X37741358Y-51810219D01*
X37595586Y-51749838D01*
X37595585Y-51749838D01*
X37595584Y-51749837D01*
X37464392Y-51662178D01*
X37352822Y-51550608D01*
X37265163Y-51419416D01*
X37242280Y-51364172D01*
X37204781Y-51273642D01*
X37174000Y-51118893D01*
X37174000Y-50961107D01*
X37204781Y-50806358D01*
X37265162Y-50660586D01*
X37265163Y-50660584D01*
X37352822Y-50529392D01*
X37464392Y-50417822D01*
X37595584Y-50330163D01*
X37595586Y-50330162D01*
X37741358Y-50269781D01*
X37896107Y-50239000D01*
X38053893Y-50239000D01*
X38208642Y-50269781D01*
X38208642Y-50269781D01*
G37*
G36*
X63571213Y-50362502D02*
G01*
X63642321Y-50369505D01*
X63779172Y-50411019D01*
X63779175Y-50411020D01*
X63905294Y-50478432D01*
X64015843Y-50569157D01*
X64106568Y-50679706D01*
X64173980Y-50805825D01*
X64173981Y-50805828D01*
X64215495Y-50942679D01*
X64229512Y-51085000D01*
X64215495Y-51227321D01*
X64196547Y-51289782D01*
X64173980Y-51364175D01*
X64106568Y-51490294D01*
X64015843Y-51600843D01*
X63905294Y-51691568D01*
X63779175Y-51758980D01*
X63779172Y-51758981D01*
X63642321Y-51800495D01*
X63571213Y-51807498D01*
X63535660Y-51811000D01*
X63464340Y-51811000D01*
X63428787Y-51807498D01*
X63357679Y-51800495D01*
X63220828Y-51758981D01*
X63220825Y-51758980D01*
X63094706Y-51691568D01*
X62984157Y-51600843D01*
X62893432Y-51490294D01*
X62826020Y-51364175D01*
X62803453Y-51289782D01*
X62784505Y-51227321D01*
X62770488Y-51085000D01*
X62784505Y-50942679D01*
X62826019Y-50805828D01*
X62826020Y-50805825D01*
X62893432Y-50679706D01*
X62984157Y-50569157D01*
X63094706Y-50478432D01*
X63220825Y-50411020D01*
X63220828Y-50411019D01*
X63357679Y-50369505D01*
X63428787Y-50362502D01*
X63464340Y-50359000D01*
X63535660Y-50359000D01*
X63571213Y-50362502D01*
X63571213Y-50362502D01*
G37*
G36*
X65571213Y-50362502D02*
G01*
X65642321Y-50369505D01*
X65779172Y-50411019D01*
X65779175Y-50411020D01*
X65905294Y-50478432D01*
X66015843Y-50569157D01*
X66106568Y-50679706D01*
X66173980Y-50805825D01*
X66173981Y-50805828D01*
X66215495Y-50942679D01*
X66229512Y-51085000D01*
X66215495Y-51227321D01*
X66196547Y-51289782D01*
X66173980Y-51364175D01*
X66106568Y-51490294D01*
X66015843Y-51600843D01*
X65905294Y-51691568D01*
X65779175Y-51758980D01*
X65779172Y-51758981D01*
X65642321Y-51800495D01*
X65571213Y-51807498D01*
X65535660Y-51811000D01*
X65464340Y-51811000D01*
X65428787Y-51807498D01*
X65357679Y-51800495D01*
X65220828Y-51758981D01*
X65220825Y-51758980D01*
X65094706Y-51691568D01*
X64984157Y-51600843D01*
X64893432Y-51490294D01*
X64826020Y-51364175D01*
X64803453Y-51289782D01*
X64784505Y-51227321D01*
X64770488Y-51085000D01*
X64784505Y-50942679D01*
X64826019Y-50805828D01*
X64826020Y-50805825D01*
X64893432Y-50679706D01*
X64984157Y-50569157D01*
X65094706Y-50478432D01*
X65220825Y-50411020D01*
X65220828Y-50411019D01*
X65357679Y-50369505D01*
X65428787Y-50362502D01*
X65464340Y-50359000D01*
X65535660Y-50359000D01*
X65571213Y-50362502D01*
X65571213Y-50362502D01*
G37*
G36*
X69921213Y-50362502D02*
G01*
X69992321Y-50369505D01*
X70129172Y-50411019D01*
X70129175Y-50411020D01*
X70255294Y-50478432D01*
X70365843Y-50569157D01*
X70456568Y-50679706D01*
X70523980Y-50805825D01*
X70523981Y-50805828D01*
X70565495Y-50942679D01*
X70579512Y-51085000D01*
X70565495Y-51227321D01*
X70546547Y-51289782D01*
X70523980Y-51364175D01*
X70456568Y-51490294D01*
X70365843Y-51600843D01*
X70255294Y-51691568D01*
X70129175Y-51758980D01*
X70129172Y-51758981D01*
X69992321Y-51800495D01*
X69921213Y-51807498D01*
X69885660Y-51811000D01*
X69814340Y-51811000D01*
X69778787Y-51807498D01*
X69707679Y-51800495D01*
X69570828Y-51758981D01*
X69570825Y-51758980D01*
X69444706Y-51691568D01*
X69334157Y-51600843D01*
X69243432Y-51490294D01*
X69176020Y-51364175D01*
X69153453Y-51289782D01*
X69134505Y-51227321D01*
X69120488Y-51085000D01*
X69134505Y-50942679D01*
X69176019Y-50805828D01*
X69176020Y-50805825D01*
X69243432Y-50679706D01*
X69334157Y-50569157D01*
X69444706Y-50478432D01*
X69570825Y-50411020D01*
X69570828Y-50411019D01*
X69707679Y-50369505D01*
X69778787Y-50362502D01*
X69814340Y-50359000D01*
X69885660Y-50359000D01*
X69921213Y-50362502D01*
X69921213Y-50362502D01*
G37*
G36*
X34143871Y-46648408D02*
G01*
X34448883Y-46774748D01*
X34723387Y-46958166D01*
X34956834Y-47191613D01*
X35140252Y-47466117D01*
X35266592Y-47771129D01*
X35331000Y-48094928D01*
X35331000Y-48425072D01*
X35266592Y-48748871D01*
X35140252Y-49053883D01*
X34956834Y-49328387D01*
X34723387Y-49561834D01*
X34448883Y-49745252D01*
X34143871Y-49871592D01*
X33981971Y-49903796D01*
X33820073Y-49936000D01*
X33489927Y-49936000D01*
X33166129Y-49871592D01*
X32861117Y-49745252D01*
X32586613Y-49561834D01*
X32353166Y-49328387D01*
X32169748Y-49053883D01*
X32043408Y-48748871D01*
X31979000Y-48425072D01*
X31979000Y-48094928D01*
X32043408Y-47771129D01*
X32169748Y-47466117D01*
X32353166Y-47191613D01*
X32586613Y-46958166D01*
X32861117Y-46774748D01*
X33166129Y-46648408D01*
X33489927Y-46584000D01*
X33820073Y-46584000D01*
X34143871Y-46648408D01*
X34143871Y-46648408D01*
G37*
G36*
X63571213Y-48362502D02*
G01*
X63642321Y-48369505D01*
X63779172Y-48411019D01*
X63779175Y-48411020D01*
X63905294Y-48478432D01*
X64015843Y-48569157D01*
X64106568Y-48679706D01*
X64173980Y-48805825D01*
X64173981Y-48805828D01*
X64215495Y-48942679D01*
X64229512Y-49085000D01*
X64215495Y-49227321D01*
X64184836Y-49328387D01*
X64173980Y-49364175D01*
X64106568Y-49490294D01*
X64015843Y-49600843D01*
X63905294Y-49691568D01*
X63779175Y-49758980D01*
X63779172Y-49758981D01*
X63642321Y-49800495D01*
X63571213Y-49807498D01*
X63535660Y-49811000D01*
X63464340Y-49811000D01*
X63428787Y-49807498D01*
X63357679Y-49800495D01*
X63220828Y-49758981D01*
X63220825Y-49758980D01*
X63094706Y-49691568D01*
X62984157Y-49600843D01*
X62893432Y-49490294D01*
X62826020Y-49364175D01*
X62815164Y-49328387D01*
X62784505Y-49227321D01*
X62770488Y-49085000D01*
X62784505Y-48942679D01*
X62826019Y-48805828D01*
X62826020Y-48805825D01*
X62893432Y-48679706D01*
X62984157Y-48569157D01*
X63094706Y-48478432D01*
X63220825Y-48411020D01*
X63220828Y-48411019D01*
X63357679Y-48369505D01*
X63428787Y-48362502D01*
X63464340Y-48359000D01*
X63535660Y-48359000D01*
X63571213Y-48362502D01*
X63571213Y-48362502D01*
G37*
G36*
X69921213Y-48362502D02*
G01*
X69992321Y-48369505D01*
X70129172Y-48411019D01*
X70129175Y-48411020D01*
X70255294Y-48478432D01*
X70365843Y-48569157D01*
X70456568Y-48679706D01*
X70523980Y-48805825D01*
X70523981Y-48805828D01*
X70565495Y-48942679D01*
X70579512Y-49085000D01*
X70565495Y-49227321D01*
X70534836Y-49328387D01*
X70523980Y-49364175D01*
X70456568Y-49490294D01*
X70365843Y-49600843D01*
X70255294Y-49691568D01*
X70129175Y-49758980D01*
X70129172Y-49758981D01*
X69992321Y-49800495D01*
X69921213Y-49807498D01*
X69885660Y-49811000D01*
X69814340Y-49811000D01*
X69778787Y-49807498D01*
X69707679Y-49800495D01*
X69570828Y-49758981D01*
X69570825Y-49758980D01*
X69444706Y-49691568D01*
X69334157Y-49600843D01*
X69243432Y-49490294D01*
X69176020Y-49364175D01*
X69165164Y-49328387D01*
X69134505Y-49227321D01*
X69120488Y-49085000D01*
X69134505Y-48942679D01*
X69176019Y-48805828D01*
X69176020Y-48805825D01*
X69243432Y-48679706D01*
X69334157Y-48569157D01*
X69444706Y-48478432D01*
X69570825Y-48411020D01*
X69570828Y-48411019D01*
X69707679Y-48369505D01*
X69778787Y-48362502D01*
X69814340Y-48359000D01*
X69885660Y-48359000D01*
X69921213Y-48362502D01*
X69921213Y-48362502D01*
G37*
G36*
X65571213Y-48362502D02*
G01*
X65642321Y-48369505D01*
X65779172Y-48411019D01*
X65779175Y-48411020D01*
X65905294Y-48478432D01*
X66015843Y-48569157D01*
X66106568Y-48679706D01*
X66173980Y-48805825D01*
X66173981Y-48805828D01*
X66215495Y-48942679D01*
X66229512Y-49085000D01*
X66215495Y-49227321D01*
X66184836Y-49328387D01*
X66173980Y-49364175D01*
X66106568Y-49490294D01*
X66015843Y-49600843D01*
X65905294Y-49691568D01*
X65779175Y-49758980D01*
X65779172Y-49758981D01*
X65642321Y-49800495D01*
X65571213Y-49807498D01*
X65535660Y-49811000D01*
X65464340Y-49811000D01*
X65428787Y-49807498D01*
X65357679Y-49800495D01*
X65220828Y-49758981D01*
X65220825Y-49758980D01*
X65094706Y-49691568D01*
X64984157Y-49600843D01*
X64893432Y-49490294D01*
X64826020Y-49364175D01*
X64815164Y-49328387D01*
X64784505Y-49227321D01*
X64770488Y-49085000D01*
X64784505Y-48942679D01*
X64826019Y-48805828D01*
X64826020Y-48805825D01*
X64893432Y-48679706D01*
X64984157Y-48569157D01*
X65094706Y-48478432D01*
X65220825Y-48411020D01*
X65220828Y-48411019D01*
X65357679Y-48369505D01*
X65428787Y-48362502D01*
X65464340Y-48359000D01*
X65535660Y-48359000D01*
X65571213Y-48362502D01*
X65571213Y-48362502D01*
G37*
G36*
X37464487Y-45278996D02*
G01*
X37701253Y-45377068D01*
X37701255Y-45377069D01*
X37870708Y-45490294D01*
X37914339Y-45519447D01*
X38095553Y-45700661D01*
X38237932Y-45913747D01*
X38336004Y-46150513D01*
X38386000Y-46401861D01*
X38386000Y-46658139D01*
X38336004Y-46909487D01*
X38315840Y-46958166D01*
X38237931Y-47146255D01*
X38095553Y-47359339D01*
X37914339Y-47540553D01*
X37701255Y-47682931D01*
X37701254Y-47682932D01*
X37701253Y-47682932D01*
X37464487Y-47781004D01*
X37213139Y-47831000D01*
X36956861Y-47831000D01*
X36705513Y-47781004D01*
X36468747Y-47682932D01*
X36468746Y-47682932D01*
X36468745Y-47682931D01*
X36255661Y-47540553D01*
X36074447Y-47359339D01*
X35932069Y-47146255D01*
X35854160Y-46958166D01*
X35833996Y-46909487D01*
X35784000Y-46658139D01*
X35784000Y-46401861D01*
X35833996Y-46150513D01*
X35932068Y-45913747D01*
X36074447Y-45700661D01*
X36255661Y-45519447D01*
X36299292Y-45490294D01*
X36468745Y-45377069D01*
X36468747Y-45377068D01*
X36705513Y-45278996D01*
X36956861Y-45229000D01*
X37213139Y-45229000D01*
X37464487Y-45278996D01*
X37464487Y-45278996D01*
G37*
G36*
X65571213Y-46362502D02*
G01*
X65642321Y-46369505D01*
X65748989Y-46401863D01*
X65779175Y-46411020D01*
X65905294Y-46478432D01*
X66015843Y-46569157D01*
X66106568Y-46679706D01*
X66173980Y-46805825D01*
X66173981Y-46805828D01*
X66215495Y-46942679D01*
X66229512Y-47085000D01*
X66215495Y-47227321D01*
X66175447Y-47359339D01*
X66173980Y-47364175D01*
X66106568Y-47490294D01*
X66015843Y-47600843D01*
X65905294Y-47691568D01*
X65779175Y-47758980D01*
X65779172Y-47758981D01*
X65642321Y-47800495D01*
X65571213Y-47807498D01*
X65535660Y-47811000D01*
X65464340Y-47811000D01*
X65428787Y-47807498D01*
X65357679Y-47800495D01*
X65220828Y-47758981D01*
X65220825Y-47758980D01*
X65094706Y-47691568D01*
X64984157Y-47600843D01*
X64893432Y-47490294D01*
X64826020Y-47364175D01*
X64824553Y-47359339D01*
X64784505Y-47227321D01*
X64770488Y-47085000D01*
X64784505Y-46942679D01*
X64826019Y-46805828D01*
X64826020Y-46805825D01*
X64893432Y-46679706D01*
X64984157Y-46569157D01*
X65094706Y-46478432D01*
X65220825Y-46411020D01*
X65251011Y-46401863D01*
X65357679Y-46369505D01*
X65428787Y-46362502D01*
X65464340Y-46359000D01*
X65535660Y-46359000D01*
X65571213Y-46362502D01*
X65571213Y-46362502D01*
G37*
G36*
X69921213Y-46362502D02*
G01*
X69992321Y-46369505D01*
X70098989Y-46401863D01*
X70129175Y-46411020D01*
X70255294Y-46478432D01*
X70365843Y-46569157D01*
X70456568Y-46679706D01*
X70523980Y-46805825D01*
X70523981Y-46805828D01*
X70565495Y-46942679D01*
X70579512Y-47085000D01*
X70565495Y-47227321D01*
X70525447Y-47359339D01*
X70523980Y-47364175D01*
X70456568Y-47490294D01*
X70365843Y-47600843D01*
X70255294Y-47691568D01*
X70129175Y-47758980D01*
X70129172Y-47758981D01*
X69992321Y-47800495D01*
X69921213Y-47807498D01*
X69885660Y-47811000D01*
X69814340Y-47811000D01*
X69778787Y-47807498D01*
X69707679Y-47800495D01*
X69570828Y-47758981D01*
X69570825Y-47758980D01*
X69444706Y-47691568D01*
X69334157Y-47600843D01*
X69243432Y-47490294D01*
X69176020Y-47364175D01*
X69174553Y-47359339D01*
X69134505Y-47227321D01*
X69120488Y-47085000D01*
X69134505Y-46942679D01*
X69176019Y-46805828D01*
X69176020Y-46805825D01*
X69243432Y-46679706D01*
X69334157Y-46569157D01*
X69444706Y-46478432D01*
X69570825Y-46411020D01*
X69601011Y-46401863D01*
X69707679Y-46369505D01*
X69778787Y-46362502D01*
X69814340Y-46359000D01*
X69885660Y-46359000D01*
X69921213Y-46362502D01*
X69921213Y-46362502D01*
G37*
G36*
X63571213Y-46362502D02*
G01*
X63642321Y-46369505D01*
X63748989Y-46401863D01*
X63779175Y-46411020D01*
X63905294Y-46478432D01*
X64015843Y-46569157D01*
X64106568Y-46679706D01*
X64173980Y-46805825D01*
X64173981Y-46805828D01*
X64215495Y-46942679D01*
X64229512Y-47085000D01*
X64215495Y-47227321D01*
X64175447Y-47359339D01*
X64173980Y-47364175D01*
X64106568Y-47490294D01*
X64015843Y-47600843D01*
X63905294Y-47691568D01*
X63779175Y-47758980D01*
X63779172Y-47758981D01*
X63642321Y-47800495D01*
X63571213Y-47807498D01*
X63535660Y-47811000D01*
X63464340Y-47811000D01*
X63428787Y-47807498D01*
X63357679Y-47800495D01*
X63220828Y-47758981D01*
X63220825Y-47758980D01*
X63094706Y-47691568D01*
X62984157Y-47600843D01*
X62893432Y-47490294D01*
X62826020Y-47364175D01*
X62824553Y-47359339D01*
X62784505Y-47227321D01*
X62770488Y-47085000D01*
X62784505Y-46942679D01*
X62826019Y-46805828D01*
X62826020Y-46805825D01*
X62893432Y-46679706D01*
X62984157Y-46569157D01*
X63094706Y-46478432D01*
X63220825Y-46411020D01*
X63251011Y-46401863D01*
X63357679Y-46369505D01*
X63428787Y-46362502D01*
X63464340Y-46359000D01*
X63535660Y-46359000D01*
X63571213Y-46362502D01*
X63571213Y-46362502D01*
G37*
G36*
X70576000Y-45811000D02*
G01*
X69124000Y-45811000D01*
X69124000Y-44359000D01*
X70576000Y-44359000D01*
X70576000Y-45811000D01*
X70576000Y-45811000D01*
G37*
G36*
X65571213Y-44362502D02*
G01*
X65642321Y-44369505D01*
X65779172Y-44411019D01*
X65779175Y-44411020D01*
X65905294Y-44478432D01*
X66015843Y-44569157D01*
X66106568Y-44679706D01*
X66173980Y-44805825D01*
X66173981Y-44805828D01*
X66215495Y-44942679D01*
X66229512Y-45085000D01*
X66215495Y-45227321D01*
X66199819Y-45278996D01*
X66173980Y-45364175D01*
X66106568Y-45490294D01*
X66015843Y-45600843D01*
X65905294Y-45691568D01*
X65779175Y-45758980D01*
X65779172Y-45758981D01*
X65642321Y-45800495D01*
X65571213Y-45807498D01*
X65535660Y-45811000D01*
X65464340Y-45811000D01*
X65428787Y-45807498D01*
X65357679Y-45800495D01*
X65220828Y-45758981D01*
X65220825Y-45758980D01*
X65094706Y-45691568D01*
X64984157Y-45600843D01*
X64893432Y-45490294D01*
X64826020Y-45364175D01*
X64800181Y-45278996D01*
X64784505Y-45227321D01*
X64770488Y-45085000D01*
X64784505Y-44942679D01*
X64826019Y-44805828D01*
X64826020Y-44805825D01*
X64893432Y-44679706D01*
X64984157Y-44569157D01*
X65094706Y-44478432D01*
X65220825Y-44411020D01*
X65220828Y-44411019D01*
X65357679Y-44369505D01*
X65428787Y-44362502D01*
X65464340Y-44359000D01*
X65535660Y-44359000D01*
X65571213Y-44362502D01*
X65571213Y-44362502D01*
G37*
G36*
X64226000Y-45811000D02*
G01*
X62774000Y-45811000D01*
X62774000Y-44359000D01*
X64226000Y-44359000D01*
X64226000Y-45811000D01*
X64226000Y-45811000D01*
G37*
G36*
X37464487Y-41118996D02*
G01*
X37701253Y-41217068D01*
X37701255Y-41217069D01*
X37914339Y-41359447D01*
X38095553Y-41540661D01*
X38237932Y-41753747D01*
X38336004Y-41990513D01*
X38386000Y-42241861D01*
X38386000Y-42498139D01*
X38336004Y-42749487D01*
X38237932Y-42986253D01*
X38237931Y-42986255D01*
X38095553Y-43199339D01*
X37914339Y-43380553D01*
X37701255Y-43522931D01*
X37701254Y-43522932D01*
X37701253Y-43522932D01*
X37464487Y-43621004D01*
X37213139Y-43671000D01*
X36956861Y-43671000D01*
X36705513Y-43621004D01*
X36468747Y-43522932D01*
X36468746Y-43522932D01*
X36468745Y-43522931D01*
X36255661Y-43380553D01*
X36074447Y-43199339D01*
X35932069Y-42986255D01*
X35932068Y-42986253D01*
X35833996Y-42749487D01*
X35784000Y-42498139D01*
X35784000Y-42241861D01*
X35833996Y-41990513D01*
X35932068Y-41753747D01*
X36074447Y-41540661D01*
X36255661Y-41359447D01*
X36468745Y-41217069D01*
X36468747Y-41217068D01*
X36705513Y-41118996D01*
X36956861Y-41069000D01*
X37213139Y-41069000D01*
X37464487Y-41118996D01*
X37464487Y-41118996D01*
G37*
G36*
X34143871Y-39028408D02*
G01*
X34448883Y-39154748D01*
X34723387Y-39338166D01*
X34956834Y-39571613D01*
X35140252Y-39846117D01*
X35266592Y-40151129D01*
X35331000Y-40474928D01*
X35331000Y-40805072D01*
X35266592Y-41128871D01*
X35140252Y-41433883D01*
X34956834Y-41708387D01*
X34723387Y-41941834D01*
X34448883Y-42125252D01*
X34143871Y-42251592D01*
X33820073Y-42316000D01*
X33489927Y-42316000D01*
X33166129Y-42251592D01*
X32861117Y-42125252D01*
X32586613Y-41941834D01*
X32353166Y-41708387D01*
X32169748Y-41433883D01*
X32043408Y-41128871D01*
X31979000Y-40805072D01*
X31979000Y-40474928D01*
X32043408Y-40151129D01*
X32169748Y-39846117D01*
X32353166Y-39571613D01*
X32586613Y-39338166D01*
X32861117Y-39154748D01*
X33166129Y-39028408D01*
X33489927Y-38964000D01*
X33820073Y-38964000D01*
X34143871Y-39028408D01*
X34143871Y-39028408D01*
G37*
G36*
X38208642Y-36069781D02*
G01*
X38354414Y-36130162D01*
X38354416Y-36130163D01*
X38485608Y-36217822D01*
X38597178Y-36329392D01*
X38684837Y-36460584D01*
X38684838Y-36460586D01*
X38745219Y-36606358D01*
X38776000Y-36761107D01*
X38776000Y-36918893D01*
X38745219Y-37073642D01*
X38713517Y-37150177D01*
X38684837Y-37219416D01*
X38597178Y-37350608D01*
X38485608Y-37462178D01*
X38354416Y-37549837D01*
X38354415Y-37549838D01*
X38354414Y-37549838D01*
X38208642Y-37610219D01*
X38053893Y-37641000D01*
X37896107Y-37641000D01*
X37741358Y-37610219D01*
X37595586Y-37549838D01*
X37595585Y-37549838D01*
X37595584Y-37549837D01*
X37464392Y-37462178D01*
X37352822Y-37350608D01*
X37265163Y-37219416D01*
X37236483Y-37150177D01*
X37224932Y-37128566D01*
X37209387Y-37109624D01*
X37190445Y-37094079D01*
X37168834Y-37082528D01*
X37145385Y-37075415D01*
X37120999Y-37073013D01*
X37096613Y-37075415D01*
X37073164Y-37082528D01*
X37051553Y-37094079D01*
X37032611Y-37109624D01*
X37017066Y-37128566D01*
X37005515Y-37150177D01*
X36998402Y-37173626D01*
X36996000Y-37198012D01*
X36996000Y-38661000D01*
X35394000Y-38661000D01*
X35394000Y-37059000D01*
X37049558Y-37059000D01*
X37073944Y-37056598D01*
X37097393Y-37049485D01*
X37119004Y-37037934D01*
X37137946Y-37022389D01*
X37153491Y-37003447D01*
X37165042Y-36981836D01*
X37172155Y-36958387D01*
X37174557Y-36934001D01*
X37174000Y-36928351D01*
X37174000Y-36761107D01*
X37204781Y-36606358D01*
X37265162Y-36460586D01*
X37265163Y-36460584D01*
X37352822Y-36329392D01*
X37464392Y-36217822D01*
X37595584Y-36130163D01*
X37595586Y-36130162D01*
X37741358Y-36069781D01*
X37896107Y-36039000D01*
X38053893Y-36039000D01*
X38208642Y-36069781D01*
X38208642Y-36069781D01*
G37*
G36*
X36428642Y-35049781D02*
G01*
X36574414Y-35110162D01*
X36574416Y-35110163D01*
X36705608Y-35197822D01*
X36817178Y-35309392D01*
X36904837Y-35440584D01*
X36904838Y-35440586D01*
X36965219Y-35586358D01*
X36996000Y-35741107D01*
X36996000Y-35898893D01*
X36965219Y-36053642D01*
X36904838Y-36199414D01*
X36904837Y-36199416D01*
X36817178Y-36330608D01*
X36705608Y-36442178D01*
X36574416Y-36529837D01*
X36574415Y-36529838D01*
X36574414Y-36529838D01*
X36428642Y-36590219D01*
X36273893Y-36621000D01*
X36116107Y-36621000D01*
X35961358Y-36590219D01*
X35815586Y-36529838D01*
X35815585Y-36529838D01*
X35815584Y-36529837D01*
X35684392Y-36442178D01*
X35572822Y-36330608D01*
X35485163Y-36199416D01*
X35485162Y-36199414D01*
X35424781Y-36053642D01*
X35394000Y-35898893D01*
X35394000Y-35741107D01*
X35424781Y-35586358D01*
X35485162Y-35440586D01*
X35485163Y-35440584D01*
X35572822Y-35309392D01*
X35684392Y-35197822D01*
X35815584Y-35110163D01*
X35815586Y-35110162D01*
X35961358Y-35049781D01*
X36116107Y-35019000D01*
X36273893Y-35019000D01*
X36428642Y-35049781D01*
X36428642Y-35049781D01*
G37*
G36*
X38208642Y-34029781D02*
G01*
X38354414Y-34090162D01*
X38354416Y-34090163D01*
X38485608Y-34177822D01*
X38597178Y-34289392D01*
X38684837Y-34420584D01*
X38684838Y-34420586D01*
X38745219Y-34566358D01*
X38776000Y-34721107D01*
X38776000Y-34878893D01*
X38745219Y-35033642D01*
X38684838Y-35179414D01*
X38684837Y-35179416D01*
X38597178Y-35310608D01*
X38485608Y-35422178D01*
X38354416Y-35509837D01*
X38354415Y-35509838D01*
X38354414Y-35509838D01*
X38208642Y-35570219D01*
X38053893Y-35601000D01*
X37896107Y-35601000D01*
X37741358Y-35570219D01*
X37595586Y-35509838D01*
X37595585Y-35509838D01*
X37595584Y-35509837D01*
X37464392Y-35422178D01*
X37352822Y-35310608D01*
X37265163Y-35179416D01*
X37265162Y-35179414D01*
X37204781Y-35033642D01*
X37174000Y-34878893D01*
X37174000Y-34721107D01*
X37204781Y-34566358D01*
X37265162Y-34420586D01*
X37265163Y-34420584D01*
X37352822Y-34289392D01*
X37464392Y-34177822D01*
X37595584Y-34090163D01*
X37595586Y-34090162D01*
X37741358Y-34029781D01*
X37896107Y-33999000D01*
X38053893Y-33999000D01*
X38208642Y-34029781D01*
X38208642Y-34029781D01*
G37*
G36*
X36428642Y-33009781D02*
G01*
X36574414Y-33070162D01*
X36574416Y-33070163D01*
X36705608Y-33157822D01*
X36817178Y-33269392D01*
X36904837Y-33400584D01*
X36904838Y-33400586D01*
X36965219Y-33546358D01*
X36996000Y-33701107D01*
X36996000Y-33858893D01*
X36965219Y-34013642D01*
X36904838Y-34159414D01*
X36904837Y-34159416D01*
X36817178Y-34290608D01*
X36705608Y-34402178D01*
X36574416Y-34489837D01*
X36574415Y-34489838D01*
X36574414Y-34489838D01*
X36428642Y-34550219D01*
X36273893Y-34581000D01*
X36116107Y-34581000D01*
X35961358Y-34550219D01*
X35815586Y-34489838D01*
X35815585Y-34489838D01*
X35815584Y-34489837D01*
X35684392Y-34402178D01*
X35572822Y-34290608D01*
X35485163Y-34159416D01*
X35485162Y-34159414D01*
X35424781Y-34013642D01*
X35394000Y-33858893D01*
X35394000Y-33701107D01*
X35424781Y-33546358D01*
X35485162Y-33400586D01*
X35485163Y-33400584D01*
X35572822Y-33269392D01*
X35684392Y-33157822D01*
X35815584Y-33070163D01*
X35815586Y-33070162D01*
X35961358Y-33009781D01*
X36116107Y-32979000D01*
X36273893Y-32979000D01*
X36428642Y-33009781D01*
X36428642Y-33009781D01*
G37*
G36*
X38208642Y-31989781D02*
G01*
X38354414Y-32050162D01*
X38354416Y-32050163D01*
X38485608Y-32137822D01*
X38597178Y-32249392D01*
X38684837Y-32380584D01*
X38684838Y-32380586D01*
X38745219Y-32526358D01*
X38776000Y-32681107D01*
X38776000Y-32838893D01*
X38745219Y-32993642D01*
X38684838Y-33139414D01*
X38684837Y-33139416D01*
X38597178Y-33270608D01*
X38485608Y-33382178D01*
X38354416Y-33469837D01*
X38354415Y-33469838D01*
X38354414Y-33469838D01*
X38208642Y-33530219D01*
X38053893Y-33561000D01*
X37896107Y-33561000D01*
X37741358Y-33530219D01*
X37595586Y-33469838D01*
X37595585Y-33469838D01*
X37595584Y-33469837D01*
X37464392Y-33382178D01*
X37352822Y-33270608D01*
X37265163Y-33139416D01*
X37265162Y-33139414D01*
X37204781Y-32993642D01*
X37174000Y-32838893D01*
X37174000Y-32681107D01*
X37204781Y-32526358D01*
X37265162Y-32380586D01*
X37265163Y-32380584D01*
X37352822Y-32249392D01*
X37464392Y-32137822D01*
X37595584Y-32050163D01*
X37595586Y-32050162D01*
X37741358Y-31989781D01*
X37896107Y-31959000D01*
X38053893Y-31959000D01*
X38208642Y-31989781D01*
X38208642Y-31989781D01*
G37*
G36*
X36428642Y-30969781D02*
G01*
X36574414Y-31030162D01*
X36574416Y-31030163D01*
X36705608Y-31117822D01*
X36817178Y-31229392D01*
X36904837Y-31360584D01*
X36904838Y-31360586D01*
X36965219Y-31506358D01*
X36996000Y-31661107D01*
X36996000Y-31818893D01*
X36965219Y-31973642D01*
X36904838Y-32119414D01*
X36904837Y-32119416D01*
X36817178Y-32250608D01*
X36705608Y-32362178D01*
X36574416Y-32449837D01*
X36574415Y-32449838D01*
X36574414Y-32449838D01*
X36428642Y-32510219D01*
X36273893Y-32541000D01*
X36116107Y-32541000D01*
X35961358Y-32510219D01*
X35815586Y-32449838D01*
X35815585Y-32449838D01*
X35815584Y-32449837D01*
X35684392Y-32362178D01*
X35572822Y-32250608D01*
X35485163Y-32119416D01*
X35485162Y-32119414D01*
X35424781Y-31973642D01*
X35394000Y-31818893D01*
X35394000Y-31661107D01*
X35424781Y-31506358D01*
X35485162Y-31360586D01*
X35485163Y-31360584D01*
X35572822Y-31229392D01*
X35684392Y-31117822D01*
X35815584Y-31030163D01*
X35815586Y-31030162D01*
X35961358Y-30969781D01*
X36116107Y-30939000D01*
X36273893Y-30939000D01*
X36428642Y-30969781D01*
X36428642Y-30969781D01*
G37*
G36*
X38208642Y-29949781D02*
G01*
X38354414Y-30010162D01*
X38354416Y-30010163D01*
X38485608Y-30097822D01*
X38597178Y-30209392D01*
X38684837Y-30340584D01*
X38684838Y-30340586D01*
X38745219Y-30486358D01*
X38776000Y-30641107D01*
X38776000Y-30798893D01*
X38745219Y-30953642D01*
X38684838Y-31099414D01*
X38684837Y-31099416D01*
X38597178Y-31230608D01*
X38485608Y-31342178D01*
X38354416Y-31429837D01*
X38354415Y-31429838D01*
X38354414Y-31429838D01*
X38208642Y-31490219D01*
X38053893Y-31521000D01*
X37896107Y-31521000D01*
X37741358Y-31490219D01*
X37595586Y-31429838D01*
X37595585Y-31429838D01*
X37595584Y-31429837D01*
X37464392Y-31342178D01*
X37352822Y-31230608D01*
X37265163Y-31099416D01*
X37265162Y-31099414D01*
X37204781Y-30953642D01*
X37174000Y-30798893D01*
X37174000Y-30641107D01*
X37204781Y-30486358D01*
X37265162Y-30340586D01*
X37265163Y-30340584D01*
X37352822Y-30209392D01*
X37464392Y-30097822D01*
X37595584Y-30010163D01*
X37595586Y-30010162D01*
X37741358Y-29949781D01*
X37896107Y-29919000D01*
X38053893Y-29919000D01*
X38208642Y-29949781D01*
X38208642Y-29949781D01*
G37*
G36*
X33981971Y-26296204D02*
G01*
X34143871Y-26328408D01*
X34448883Y-26454748D01*
X34723387Y-26638166D01*
X34956834Y-26871613D01*
X35140252Y-27146117D01*
X35266592Y-27451129D01*
X35331000Y-27774928D01*
X35331000Y-28105072D01*
X35266592Y-28428871D01*
X35140252Y-28733883D01*
X34956834Y-29008387D01*
X34723387Y-29241834D01*
X34448883Y-29425252D01*
X34143871Y-29551592D01*
X33981971Y-29583796D01*
X33820073Y-29616000D01*
X33489927Y-29616000D01*
X33328029Y-29583796D01*
X33166129Y-29551592D01*
X32861117Y-29425252D01*
X32586613Y-29241834D01*
X32353166Y-29008387D01*
X32169748Y-28733883D01*
X32043408Y-28428871D01*
X31979000Y-28105072D01*
X31979000Y-27774928D01*
X32043408Y-27451129D01*
X32169748Y-27146117D01*
X32353166Y-26871613D01*
X32586613Y-26638166D01*
X32861117Y-26454748D01*
X33166129Y-26328408D01*
X33489927Y-26264000D01*
X33820073Y-26264000D01*
X33981971Y-26296204D01*
X33981971Y-26296204D01*
G37*
G36*
X37464487Y-24958996D02*
G01*
X37701253Y-25057068D01*
X37701255Y-25057069D01*
X37914339Y-25199447D01*
X38095553Y-25380661D01*
X38237932Y-25593747D01*
X38336004Y-25830513D01*
X38386000Y-26081861D01*
X38386000Y-26338139D01*
X38336004Y-26589487D01*
X38315840Y-26638166D01*
X38237931Y-26826255D01*
X38095553Y-27039339D01*
X37914339Y-27220553D01*
X37701255Y-27362931D01*
X37701254Y-27362932D01*
X37701253Y-27362932D01*
X37464487Y-27461004D01*
X37213139Y-27511000D01*
X36956861Y-27511000D01*
X36705513Y-27461004D01*
X36468747Y-27362932D01*
X36468746Y-27362932D01*
X36468745Y-27362931D01*
X36255661Y-27220553D01*
X36074447Y-27039339D01*
X35932069Y-26826255D01*
X35854160Y-26638166D01*
X35833996Y-26589487D01*
X35784000Y-26338139D01*
X35784000Y-26081861D01*
X35833996Y-25830513D01*
X35932068Y-25593747D01*
X36074447Y-25380661D01*
X36255661Y-25199447D01*
X36468745Y-25057069D01*
X36468747Y-25057068D01*
X36705513Y-24958996D01*
X36956861Y-24909000D01*
X37213139Y-24909000D01*
X37464487Y-24958996D01*
X37464487Y-24958996D01*
G37*
M02*
